<svg width="722" height="530" xmlns="http://www.w3.org/2000/svg" xmlns:xlink="http://www.w3.org/1999/xlink" overflow="hidden"><defs><clipPath id="clip0"><rect x="279" y="97" width="722" height="530"/></clipPath><clipPath id="clip1"><rect x="280" y="98" width="720" height="528"/></clipPath><clipPath id="clip2"><rect x="280" y="98" width="720" height="528"/></clipPath></defs><g clip-path="url(#clip0)" transform="translate(-279 -97)"><g clip-path="url(#clip1)"><g clip-path="url(#clip2)"><g><path d="M619.114 95.3769 99.8112 95.3769C44.6899 95.3769 0 140.067 0 195.188L0 523.737C0 578.858 44.6899 623.548 99.8112 623.548L619.114 623.548C674.234 623.548 718.925 578.858 718.925 523.737L718.925 195.188C718.925 140.067 674.234 95.3769 619.114 95.3769ZM250.172 451.743 110.403 570.984C100.544 579.397 85.7234 578.228 77.3111 568.359 68.8974 558.501 70.0671 543.68 79.9369 535.268L219.706 416.027C229.563 407.614 244.383 408.783 252.796 418.653 261.21 428.51 260.04 443.331 250.172 451.743ZM359.462 406.412C340.768 406.365 322.646 400.153 308.478 387.901L308.489 387.912 308.444 387.878C308.455 387.889 308.468 387.889 308.478 387.901L94.0247 201.768C84.2237 193.262 83.1805 178.442 91.6742 168.654 100.179 158.853 115 157.81 124.787 166.303L339.3 352.482C343.885 356.563 351.439 359.509 359.462 359.462 367.475 359.486 374.901 356.62 379.738 352.402L379.842 352.311 594.137 166.305C603.925 157.811 618.746 158.854 627.251 168.655 635.743 178.442 634.701 193.263 624.9 201.769L410.388 387.958C396.267 400.083 378.169 406.388 359.462 406.412ZM641.624 568.359C633.21 578.228 618.389 579.397 608.533 570.984L468.764 451.743C458.896 443.329 457.726 428.51 466.14 418.653 474.552 408.783 489.373 407.615 499.23 416.027L638.999 535.268C648.868 543.68 650.037 558.501 641.624 568.359Z" transform="matrix(1.0015 0 0 1 280 0.5713)"/></g></g></g></g></svg>