<svg id="Capa_1" data-name="Capa 1" xmlns="http://www.w3.org/2000/svg" viewBox="0 0 50 50"><defs><style>.cls-1{fill:#9f3;}.cls-2{stroke:#fff;stroke-linecap:round;stroke-miterlimit:10;stroke-width:0.25px;}</style></defs><title>favicon</title><rect class="cls-1" x="1" y="1" width="48" height="48" rx="12" ry="12"/><path class="cls-2" d="M22.74,14V27.44a10.48,10.48,0,0,1-1.19,5.15,7.77,7.77,0,0,1-3.4,3.24,11.54,11.54,0,0,1-5.21,1.09,16.2,16.2,0,0,1-4.78-.66,11.32,11.32,0,0,1-3.68-1.89l2.1-4.06a10.42,10.42,0,0,0,2.93,1.5,10.25,10.25,0,0,0,3.2.51,4.44,4.44,0,0,0,3.34-1.11,4.83,4.83,0,0,0,1.07-3.46v-.91a6.56,6.56,0,0,1-5.37,2.3A7.51,7.51,0,0,1,6,27a8.62,8.62,0,0,1-2-6.15V14H9.59v6.53a4.39,4.39,0,0,0,.92,3,3.47,3.47,0,0,0,2.69,1,3.92,3.92,0,0,0,2.85-1,4.45,4.45,0,0,0,1.07-3.27V14Z"/><path class="cls-2" d="M30.85,32.91a9.9,9.9,0,0,1-3.91-3.68,10.11,10.11,0,0,1-1.42-5.34,10.11,10.11,0,0,1,1.42-5.34,9.9,9.9,0,0,1,3.91-3.68,11.72,11.72,0,0,1,5.6-1.32,12.13,12.13,0,0,1,4.92,1A9.5,9.5,0,0,1,45,17.3l-3.58,3.24a5.88,5.88,0,0,0-4.68-2.33,5.8,5.8,0,0,0-2.88.71,4.84,4.84,0,0,0-2,2,6.09,6.09,0,0,0-.7,3,6.09,6.09,0,0,0,.7,3,4.84,4.84,0,0,0,2,2,5.8,5.8,0,0,0,2.88.71,5.88,5.88,0,0,0,4.68-2.33L45,30.48a9.5,9.5,0,0,1-3.63,2.78,12.13,12.13,0,0,1-4.92,1A11.84,11.84,0,0,1,30.85,32.91Z"/></svg>