<svg width="722" height="511" xmlns="http://www.w3.org/2000/svg" xmlns:xlink="http://www.w3.org/1999/xlink" overflow="hidden"><defs><clipPath id="clip0"><rect x="279" y="109" width="722" height="511"/></clipPath><clipPath id="clip1"><rect x="280" y="110" width="720" height="509"/></clipPath><clipPath id="clip2"><rect x="280" y="110" width="720" height="509"/></clipPath><clipPath id="clip3"><rect x="280" y="0" width="720" height="720"/></clipPath><clipPath id="clip4"><path d="M948.571 103.252C976.975 103.252 1000 126.252 1000 154.624L1000 565.602C1000 593.974 976.975 616.974 948.571 616.974L331.429 616.974C303.025 616.974 280 593.974 280 565.602L280 154.624C280 126.252 303.025 103.252 331.429 103.252Z"/></clipPath><linearGradient x1="359.58" y1="0" x2="359.58" y2="513.722" gradientUnits="userSpaceOnUse" spreadMethod="pad" id="fill5"><stop offset="0" stop-color="#FFFFFF"/><stop offset="1" stop-color="#F0F0F0"/></linearGradient><linearGradient x1="530.821" y1="0" x2="530.821" y2="513.722" gradientUnits="userSpaceOnUse" spreadMethod="pad" id="fill6"><stop offset="0" stop-color="#F44653"/><stop offset="1" stop-color="#EE2A39"/></linearGradient><linearGradient x1="119.843" y1="0" x2="119.843" y2="513.722" gradientUnits="userSpaceOnUse" spreadMethod="pad" id="fill7"><stop offset="0" stop-color="#1035BB"/><stop offset="1" stop-color="#042396"/></linearGradient><linearGradient x1="359.58" y1="0" x2="359.58" y2="513.722" gradientUnits="userSpaceOnUse" spreadMethod="pad" id="fill8"><stop offset="0" stop-color="#FFFFFF"/><stop offset="1" stop-color="#F0F0F0"/></linearGradient></defs><g clip-path="url(#clip0)" transform="translate(-279 -109)"><g clip-path="url(#clip1)"><g clip-path="url(#clip2)"><g clip-path="url(#clip3)"><g clip-path="url(#clip4)"><path d="M719.185 0-0.0250841 0-0.0250841 513.722 719.185 513.722 719.185 0Z" fill="url(#fill5)" transform="matrix(1.0011 0 0 1 280 103.252)"/><path d="M719.185 0 342.457 0 342.457 513.722 719.185 513.722 719.185 0Z" fill="url(#fill6)" transform="matrix(1.0011 0 0 1 280 103.252)"/><path d="M239.712 0-0.0250841 0-0.0250841 513.722 239.712 513.722 239.712 0Z" fill="url(#fill7)" transform="matrix(1.0011 0 0 1 280 103.252)"/><path d="M479.449 0 239.712 0 239.712 513.722 479.449 513.722 479.449 0Z" fill="url(#fill8)" transform="matrix(1.0011 0 0 1 280 103.252)"/></g></g></g></g></g></svg>