<!DOCTYPE svg PUBLIC "-//W3C//DTD SVG 1.1//EN" "http://www.w3.org/Graphics/SVG/1.1/DTD/svg11.dtd">
<!-- Uploaded to: SVG Repo, www.svgrepo.com, Transformed by: SVG Repo Mixer Tools -->
<svg fill="#ffffff" height="64px" width="64px" version="1.1" id="Layer_1" xmlns="http://www.w3.org/2000/svg" xmlns:xlink="http://www.w3.org/1999/xlink" viewBox="0 0 512 512" enable-background="new 0 0 512 512" xml:space="preserve" stroke="#ffffff">
<g id="SVGRepo_bgCarrier" stroke-width="0"/>
<g id="SVGRepo_tracerCarrier" stroke-linecap="round" stroke-linejoin="round"/>
<g id="SVGRepo_iconCarrier"> <path d="M0,149.3V448c0,23.5,19.1,42.7,42.7,42.7H64v-384H42.7C19.1,106.7,0,125.8,0,149.3z M469.3,106.7H448v384h21.3 c23.5,0,42.7-19.1,42.7-42.7V149.3C512,125.8,492.9,106.7,469.3,106.7z M106.7,490.7h298.7v-384H106.7V490.7z M213.3,64h85.3v21.3 h42.7V64c0-23.5-19.1-42.7-42.7-42.7h-85.3c-23.5,0-42.7,19.1-42.7,42.7v21.3h42.7V64z"/> </g>
</svg>