<svg width="864" height="109" xmlns="http://www.w3.org/2000/svg" xmlns:xlink="http://www.w3.org/1999/xlink" overflow="hidden"><defs><clipPath id="clip0"><rect x="171" y="188" width="864" height="109"/></clipPath><clipPath id="clip1"><rect x="172" y="189" width="862" height="107"/></clipPath><clipPath id="clip2"><rect x="172" y="189" width="862" height="107"/></clipPath></defs><g clip-path="url(#clip0)" transform="translate(-171 -188)"><g clip-path="url(#clip1)"><g clip-path="url(#clip2)"><path d="M366.388 89.1507C366.388 99.9587 355.679 108.72 342.469 108.72 329.259 108.72 318.551 99.9587 318.551 89.1507 318.551 78.3427 329.259 69.581 342.469 69.581 355.679 69.581 366.388 78.3427 366.388 89.1507Z" fill="#F3E600" transform="matrix(1 0 0 1.00032 142.606 155.435)"/><path d="M601.224 89.1507C601.224 99.9587 592.462 108.72 581.654 108.72 570.846 108.72 562.084 99.9587 562.084 89.1507 562.084 78.3427 570.846 69.581 581.654 69.581 592.462 69.581 601.224 78.3427 601.224 89.1507Z" fill="#99FF33" transform="matrix(1 0 0 1.00032 142.606 155.435)"/><path d="M879.548 86.9763C879.548 98.9852 867.866 108.72 853.455 108.72 839.044 108.72 827.362 98.9852 827.362 86.9763 827.362 74.9674 839.044 65.2322 853.455 65.2322 867.866 65.2322 879.548 74.9674 879.548 86.9763Z" fill="#2196F3" transform="matrix(1 0 0 1.00032 142.606 155.435)"/><text font-family="Montserrat Alternates,Montserrat Alternates_MSFontService,sans-serif" font-weight="700" font-size="23" transform="matrix(4.34881 0 0 4.3502 168.873 272)">Yeisson</text><text font-family="Montserrat Alternates,Montserrat Alternates_MSFontService,sans-serif" font-weight="700" font-size="23" transform="matrix(4.34881 0 0 4.3502 619.758 272)">C</text><text font-family="Montserrat Alternates,Montserrat Alternates_MSFontService,sans-serif" font-weight="700" font-size="23" transform="matrix(4.34881 0 0 4.3502 692.209 272)">astil</text><text font-family="Montserrat Alternates,Montserrat Alternates_MSFontService,sans-serif" font-weight="700" font-size="23" transform="matrix(4.34881 0 0 4.3502 927.915 272)">l</text><text font-family="Montserrat Alternates,Montserrat Alternates_MSFontService,sans-serif" font-weight="700" font-size="23" transform="matrix(4.34881 0 0 4.3502 963.88 272)">o</text><path d="M861.848 104.372 867.284 132.247" transform="matrix(1 0 0 1.00032 142.606 155.435)"/><path d="M861.848 104.372 867.284 132.247" stroke="#FFFFFF" stroke-width="6.52322" stroke-linecap="round" stroke-linejoin="round" fill="none" transform="matrix(1 0 0 1.00032 142.606 155.435)"/><path d="M872.59 122.202 867.284 132.247" transform="matrix(1 0 0 1.00032 142.606 155.435)"/><path d="M872.59 122.202 867.284 132.247" stroke="#FFFFFF" stroke-width="6.52322" stroke-linecap="round" stroke-linejoin="round" fill="none" transform="matrix(1 0 0 1.00032 142.606 155.435)"/><path d="M861.848 104.372 883.462 123.506" transform="matrix(1 0 0 1.00032 142.606 155.435)"/><path d="M861.848 104.372 883.462 123.506" stroke="#FFFFFF" stroke-width="6.52322" stroke-linecap="round" stroke-linejoin="round" fill="none" transform="matrix(1 0 0 1.00032 142.606 155.435)"/><path d="M882.983 123.767 872.59 122.202" transform="matrix(1 0 0 1.00032 142.606 155.435)"/><path d="M882.983 123.767 872.59 122.202" stroke="#FFFFFF" stroke-width="6.52322" stroke-linecap="round" stroke-linejoin="round" fill="none" transform="matrix(1 0 0 1.00032 142.606 155.435)"/><path d="M861.848 104.372 867.284 132.247" transform="matrix(1 0 0 1.00032 142.606 155.435)"/><path d="M861.848 104.372 867.284 132.247" stroke="#000000" stroke-width="4.34881" stroke-linecap="round" stroke-linejoin="round" fill="none" transform="matrix(1 0 0 1.00032 142.606 155.435)"/><path d="M872.59 122.202 867.284 132.247" transform="matrix(1 0 0 1.00032 142.606 155.435)"/><path d="M872.59 122.202 867.284 132.247" stroke="#000000" stroke-width="4.34881" stroke-linecap="round" stroke-linejoin="round" fill="none" transform="matrix(1 0 0 1.00032 142.606 155.435)"/><path d="M861.848 104.372 883.462 123.506" transform="matrix(1 0 0 1.00032 142.606 155.435)"/><path d="M861.848 104.372 883.462 123.506" stroke="#000000" stroke-width="4.34881" stroke-linecap="round" stroke-linejoin="round" fill="none" transform="matrix(1 0 0 1.00032 142.606 155.435)"/><path d="M882.983 123.767 872.59 122.202" transform="matrix(1 0 0 1.00032 142.606 155.435)"/><path d="M882.983 123.767 872.59 122.202" stroke="#000000" stroke-width="4.34881" stroke-linecap="round" stroke-linejoin="round" fill="none" transform="matrix(1 0 0 1.00032 142.606 155.435)"/><path d="M869.241 124.507C872.844 124.507 875.764 121.586 875.764 117.983 875.764 114.381 872.844 111.46 869.241 111.46 865.638 111.46 862.718 114.381 862.718 117.983 862.718 121.586 865.638 124.507 869.241 124.507Z" transform="matrix(1 0 0 1.00032 142.606 155.435)"/><path d="M876.46 115.939C875.698 113.643 873.53 112.109 871.111 112.156 870.708 110.216 868.959 108.854 866.98 108.938 864.578 108.493 862.271 110.08 861.826 112.482 861.382 114.884 862.969 117.191 865.371 117.635 865.349 118.056 865.349 118.476 865.371 118.897 864.857 119.548 864.54 120.333 864.457 121.158 863.088 123.131 863.578 125.841 865.551 127.21 866.29 127.722 867.168 127.993 868.067 127.986 870.31 128.135 872.253 126.445 872.416 124.202 872.416 124.202 872.416 124.202 872.416 123.985L872.416 123.985C872.901 124.177 873.416 124.28 873.938 124.289 876.244 124.986 878.677 123.681 879.374 121.375 880.07 119.07 878.766 116.636 876.46 115.939Z" transform="matrix(1 0 0 1.00032 142.606 155.435)"/><path d="M864.327 110.895 881.722 136.988" stroke="#000000" stroke-width="4.34881" stroke-linecap="round" stroke-linejoin="round" fill="none" transform="matrix(1 0 0 1.00032 142.606 155.435)"/></g></g></g></svg>