<svg id="Capa_1" data-name="Capa 1" xmlns="http://www.w3.org/2000/svg" viewBox="0 0 213.5 54"><defs><style>.cls-1{fill:#f3e600;}.cls-2{fill:#9f3;}.cls-3{fill:#2196f3;}.cls-4{font-size:23.11px;font-family:MontserratAlternates-ExtraBold, Montserrat Alternates;font-weight:700;}.cls-5{letter-spacing:-0.02em;}.cls-6{letter-spacing:-0.01em;}.cls-7,.cls-8{fill:none;stroke-linecap:round;stroke-linejoin:round;}.cls-7{stroke:#fff;stroke-width:1.5px;}.cls-8{stroke:#000;}.cls-9{font-size:16.26px;font-family:Lato-Light, Lato Light;}</style></defs><title>logo</title><ellipse class="cls-1" cx="80" cy="21" rx="5.5" ry="4.5"/><circle class="cls-2" cx="135" cy="21" r="4.5"/><ellipse class="cls-3" cx="197.5" cy="20.5" rx="6" ry="5"/><text class="cls-4" transform="translate(7.29 27.23)">Yeisson <tspan class="cls-5" x="103.68" y="0">C</tspan><tspan x="120.34" y="0">astil</tspan><tspan class="cls-6" x="174.54" y="0">l</tspan><tspan x="182.81" y="0">o</tspan></text><line x1="199.43" y1="24.5" x2="200.68" y2="30.91"/><line class="cls-7" x1="199.43" y1="24.5" x2="200.68" y2="30.91"/><line x1="201.9" y1="28.6" x2="200.68" y2="30.91"/><line class="cls-7" x1="201.9" y1="28.6" x2="200.68" y2="30.91"/><line x1="199.43" y1="24.5" x2="204.4" y2="28.9"/><line class="cls-7" x1="199.43" y1="24.5" x2="204.4" y2="28.9"/><line x1="204.29" y1="28.96" x2="201.9" y2="28.6"/><line class="cls-7" x1="204.29" y1="28.96" x2="201.9" y2="28.6"/><line x1="199.43" y1="24.5" x2="200.68" y2="30.91"/><line class="cls-8" x1="199.43" y1="24.5" x2="200.68" y2="30.91"/><line x1="201.9" y1="28.6" x2="200.68" y2="30.91"/><line class="cls-8" x1="201.9" y1="28.6" x2="200.68" y2="30.91"/><line x1="199.43" y1="24.5" x2="204.4" y2="28.9"/><line class="cls-8" x1="199.43" y1="24.5" x2="204.4" y2="28.9"/><line x1="204.29" y1="28.96" x2="201.9" y2="28.6"/><line class="cls-8" x1="204.29" y1="28.96" x2="201.9" y2="28.6"/><path d="M201.13,29.13a1.5,1.5,0,0,0,0-3,1.5,1.5,0,0,0,0,3Z"/><path d="M202.79,27.16a1.27,1.27,0,0,0-1.23-.87.93.93,0,0,0-.95-.74,1,1,0,0,0-.37,2,2.81,2.81,0,0,0,0,.29,1,1,0,0,0-.21.52,1,1,0,0,0,.83,1.57.94.94,0,0,0,1-.87s0,0,0-.05h0a1,1,0,0,0,.35.07A1,1,0,0,0,202.79,27.16Z"/><line class="cls-8" x1="200" y1="26" x2="204" y2="32"/><text class="cls-9" transform="translate(43.75 45.86)">Mi rincón de ideas</text><line x1="199.43" y1="24.5" x2="200.68" y2="30.91"/><line class="cls-7" x1="199.43" y1="24.5" x2="200.68" y2="30.91"/><line x1="201.9" y1="28.6" x2="200.68" y2="30.91"/><line class="cls-7" x1="201.9" y1="28.6" x2="200.68" y2="30.91"/><line x1="199.43" y1="24.5" x2="204.4" y2="28.9"/><line class="cls-7" x1="199.43" y1="24.5" x2="204.4" y2="28.9"/><line x1="204.29" y1="28.96" x2="201.9" y2="28.6"/><line class="cls-7" x1="204.29" y1="28.96" x2="201.9" y2="28.6"/><line x1="199.43" y1="24.5" x2="200.68" y2="30.91"/><line class="cls-8" x1="199.43" y1="24.5" x2="200.68" y2="30.91"/><line x1="201.9" y1="28.6" x2="200.68" y2="30.91"/><line class="cls-8" x1="201.9" y1="28.6" x2="200.68" y2="30.91"/><line x1="199.43" y1="24.5" x2="204.4" y2="28.9"/><line class="cls-8" x1="199.43" y1="24.5" x2="204.4" y2="28.9"/><line x1="204.29" y1="28.96" x2="201.9" y2="28.6"/><line class="cls-8" x1="204.29" y1="28.96" x2="201.9" y2="28.6"/><path d="M201.13,29.13a1.5,1.5,0,0,0,0-3,1.5,1.5,0,0,0,0,3Z"/><path d="M202.79,27.16a1.27,1.27,0,0,0-1.23-.87.93.93,0,0,0-.95-.74,1,1,0,0,0-.37,2,2.81,2.81,0,0,0,0,.29,1,1,0,0,0-.21.52,1,1,0,0,0,.83,1.57.94.94,0,0,0,1-.87s0,0,0-.05h0a1,1,0,0,0,.35.07A1,1,0,0,0,202.79,27.16Z"/><line class="cls-8" x1="200" y1="26" x2="204" y2="32"/></svg>