<svg id="Capa_1" data-name="Capa 1" xmlns="http://www.w3.org/2000/svg" viewBox="0 0 213.5 54"><defs><style>.cls-1{font-size:16.26px;font-family:Lato-Light, Lato Light;}.cls-1,.cls-10,.cls-5{fill:#fff;}.cls-2{fill:#f3e600;}.cls-3{fill:#9f3;}.cls-4{fill:#2196f3;}.cls-5{font-size:23.11px;font-family:MontserratAlternates-ExtraBold, Montserrat Alternates;font-weight:700;}.cls-6{letter-spacing:-0.02em;}.cls-7{letter-spacing:-0.01em;}.cls-8,.cls-9{fill:none;stroke-linecap:round;stroke-linejoin:round;}.cls-8{stroke:#000;stroke-width:1.5px;}.cls-9{stroke:#fff;}</style></defs><title>logo</title><text class="cls-1" transform="translate(45.25 44.86)">Mi rincón de ideas</text><ellipse class="cls-2" cx="85.08" cy="21.5" rx="5.42" ry="5.5"/><circle class="cls-3" cx="139.5" cy="22" r="5"/><circle class="cls-4" cx="202.5" cy="22" r="5"/><text class="cls-5" transform="translate(12.29 27.73)">Yeisson <tspan class="cls-6" x="103.68" y="0">C</tspan><tspan x="120.34" y="0">astil</tspan><tspan class="cls-7" x="174.54" y="0">l</tspan><tspan x="182.81" y="0">o</tspan></text><line x1="204.43" y1="26" x2="205.68" y2="32.41"/><line class="cls-8" x1="204.43" y1="26" x2="205.68" y2="32.41"/><line x1="206.9" y1="30.1" x2="205.68" y2="32.41"/><line class="cls-8" x1="206.9" y1="30.1" x2="205.68" y2="32.41"/><line x1="204.43" y1="26" x2="209.4" y2="30.4"/><line class="cls-8" x1="204.43" y1="26" x2="209.4" y2="30.4"/><line x1="209.29" y1="30.46" x2="206.9" y2="30.1"/><line class="cls-8" x1="209.29" y1="30.46" x2="206.9" y2="30.1"/><line class="cls-9" x1="204.43" y1="26" x2="205.68" y2="32.41"/><line class="cls-9" x1="206.9" y1="30.1" x2="205.68" y2="32.41"/><line class="cls-9" x1="204.43" y1="26" x2="209.4" y2="30.4"/><line class="cls-9" x1="209.29" y1="30.46" x2="206.9" y2="30.1"/><path class="cls-10" d="M206.13,30.63a1.5,1.5,0,0,0,0-3,1.5,1.5,0,0,0,0,3Z"/><path class="cls-10" d="M207.79,28.66a1.27,1.27,0,0,0-1.23-.87.93.93,0,0,0-.95-.74,1,1,0,0,0-.37,2,2.81,2.81,0,0,0,0,.29,1,1,0,0,0-.21.52,1,1,0,0,0,.83,1.57.94.94,0,0,0,1-.87s0,0,0-.05h0a1,1,0,0,0,.35.07A1,1,0,0,0,207.79,28.66Z"/><line class="cls-9" x1="205" y1="27.5" x2="209" y2="33.5"/></svg>