<svg id="Capa_1" data-name="Capa 1" xmlns="http://www.w3.org/2000/svg" viewBox="0 0 211.75 39.5"><defs><style>.cls-1{fill:#f3e600;}.cls-2{fill:#9f3;}.cls-3{fill:#2196f3;}.cls-4{font-size:23.11px;font-family:MontserratAlternates-ExtraBold, Montserrat Alternates;font-weight:700;}.cls-5{letter-spacing:-0.02em;}.cls-6{letter-spacing:-0.01em;}.cls-7,.cls-8{fill:none;stroke-linecap:round;stroke-linejoin:round;}.cls-7{stroke:#fff;stroke-width:1.5px;}.cls-8{stroke:#000;}</style></defs><title>logo</title><ellipse class="cls-1" cx="78.75" cy="20.5" rx="5.5" ry="4.5"/><circle class="cls-2" cx="133.75" cy="20.5" r="4.5"/><ellipse class="cls-3" cx="196.25" cy="20" rx="6" ry="5"/><text class="cls-4" transform="translate(6.04 26.73)">Yeisson <tspan class="cls-5" x="103.68" y="0">C</tspan><tspan x="120.34" y="0">astil</tspan><tspan class="cls-6" x="174.54" y="0">l</tspan><tspan x="182.81" y="0">o</tspan></text><line x1="198.18" y1="24" x2="199.43" y2="30.41"/><line class="cls-7" x1="198.18" y1="24" x2="199.43" y2="30.41"/><line x1="200.65" y1="28.1" x2="199.43" y2="30.41"/><line class="cls-7" x1="200.65" y1="28.1" x2="199.43" y2="30.41"/><line x1="198.18" y1="24" x2="203.15" y2="28.4"/><line class="cls-7" x1="198.18" y1="24" x2="203.15" y2="28.4"/><line x1="203.04" y1="28.46" x2="200.65" y2="28.1"/><line class="cls-7" x1="203.04" y1="28.46" x2="200.65" y2="28.1"/><line x1="198.18" y1="24" x2="199.43" y2="30.41"/><line class="cls-8" x1="198.18" y1="24" x2="199.43" y2="30.41"/><line x1="200.65" y1="28.1" x2="199.43" y2="30.41"/><line class="cls-8" x1="200.65" y1="28.1" x2="199.43" y2="30.41"/><line x1="198.18" y1="24" x2="203.15" y2="28.4"/><line class="cls-8" x1="198.18" y1="24" x2="203.15" y2="28.4"/><line x1="203.04" y1="28.46" x2="200.65" y2="28.1"/><line class="cls-8" x1="203.04" y1="28.46" x2="200.65" y2="28.1"/><path d="M199.88,28.63a1.5,1.5,0,0,0,0-3,1.5,1.5,0,0,0,0,3Z"/><path d="M201.54,26.66a1.27,1.27,0,0,0-1.23-.87.93.93,0,0,0-.95-.74,1,1,0,0,0-.37,2,2.81,2.81,0,0,0,0,.29,1,1,0,0,0-.21.52,1,1,0,0,0,.83,1.57.94.94,0,0,0,1-.87s0,0,0-.05h0a1,1,0,0,0,.35.07A1,1,0,0,0,201.54,26.66Z"/><line class="cls-8" x1="198.75" y1="25.5" x2="202.75" y2="31.5"/></svg>