<svg id="Capa_1" data-name="Capa 1" xmlns="http://www.w3.org/2000/svg" viewBox="0 0 211.75 39.5"><defs><style>.cls-1{fill:#f3e600;}.cls-2{fill:#9f3;}.cls-3{fill:#2196f3;}.cls-4{font-size:23.11px;font-family:MontserratAlternates-ExtraBold, Montserrat Alternates;font-weight:700;}.cls-4,.cls-9{fill:#fff;}.cls-5{letter-spacing:-0.02em;}.cls-6{letter-spacing:-0.01em;}.cls-7,.cls-8{fill:none;stroke-linecap:round;stroke-linejoin:round;}.cls-7{stroke:#000;stroke-width:1.5px;}.cls-8{stroke:#fff;}</style></defs><title>logo</title><ellipse class="cls-1" cx="82.08" cy="20.5" rx="5.42" ry="5.5"/><circle class="cls-2" cx="136.5" cy="21" r="5"/><circle class="cls-3" cx="199.5" cy="21" r="5"/><text class="cls-4" transform="translate(9.29 26.73)">Yeisson <tspan class="cls-5" x="103.68" y="0">C</tspan><tspan x="120.34" y="0">astil</tspan><tspan class="cls-6" x="174.54" y="0">l</tspan><tspan x="182.81" y="0">o</tspan></text><line x1="201.43" y1="25" x2="202.68" y2="31.41"/><line class="cls-7" x1="201.43" y1="25" x2="202.68" y2="31.41"/><line x1="203.9" y1="29.1" x2="202.68" y2="31.41"/><line class="cls-7" x1="203.9" y1="29.1" x2="202.68" y2="31.41"/><line x1="201.43" y1="25" x2="206.4" y2="29.4"/><line class="cls-7" x1="201.43" y1="25" x2="206.4" y2="29.4"/><line x1="206.29" y1="29.46" x2="203.9" y2="29.1"/><line class="cls-7" x1="206.29" y1="29.46" x2="203.9" y2="29.1"/><line class="cls-8" x1="201.43" y1="25" x2="202.68" y2="31.41"/><line class="cls-8" x1="203.9" y1="29.1" x2="202.68" y2="31.41"/><line class="cls-8" x1="201.43" y1="25" x2="206.4" y2="29.4"/><line class="cls-8" x1="206.29" y1="29.46" x2="203.9" y2="29.1"/><path class="cls-9" d="M203.13,29.63a1.5,1.5,0,0,0,0-3,1.5,1.5,0,0,0,0,3Z"/><path class="cls-9" d="M204.79,27.66a1.27,1.27,0,0,0-1.23-.87.93.93,0,0,0-.95-.74,1,1,0,0,0-.37,2,2.81,2.81,0,0,0,0,.29,1,1,0,0,0-.21.52,1,1,0,0,0,.83,1.57.94.94,0,0,0,1-.87s0,0,0-.05h0a1,1,0,0,0,.35.07A1,1,0,0,0,204.79,27.66Z"/><line class="cls-8" x1="202" y1="26.5" x2="206" y2="32.5"/></svg>