<svg width="864" height="118" xmlns="http://www.w3.org/2000/svg" xmlns:xlink="http://www.w3.org/1999/xlink" overflow="hidden"><defs><clipPath id="clip0"><rect x="202" y="139" width="864" height="118"/></clipPath><clipPath id="clip1"><rect x="203" y="140" width="862" height="117"/></clipPath><clipPath id="clip2"><rect x="203" y="140" width="862" height="117"/></clipPath></defs><g clip-path="url(#clip0)" transform="translate(-202 -139)"><g clip-path="url(#clip1)"><g clip-path="url(#clip2)"><path d="M380.525 89.1516C380.525 102.362 369.972 113.07 356.954 113.07 343.937 113.07 333.384 102.362 333.384 89.1516 333.384 75.9417 343.937 65.2329 356.954 65.2329 369.972 65.2329 380.525 75.9417 380.525 89.1516Z" fill="#F3E600" transform="matrix(1 0 0 1.00513 159.995 108.943)"/><path d="M615.364 91.3261C615.364 103.335 605.629 113.07 593.62 113.07 581.61 113.07 571.875 103.335 571.875 91.3261 571.875 79.317 581.61 69.5818 593.62 69.5818 605.629 69.5818 615.364 79.317 615.364 91.3261Z" fill="#99FF33" transform="matrix(1 0 0 1.00513 159.995 108.943)"/><path d="M889.342 91.3261C889.342 103.335 879.607 113.07 867.598 113.07 855.589 113.07 845.853 103.335 845.853 91.3261 845.853 79.317 855.589 69.5818 867.598 69.5818 879.607 69.5818 889.342 79.317 889.342 91.3261Z" fill="#2196F3" transform="matrix(1 0 0 1.00513 159.995 108.943)"/><text fill="#FFFFFF" font-family="Montserrat Alternates,Montserrat Alternates_MSFontService,sans-serif" font-weight="700" font-size="23" transform="matrix(4.34886 0 0 4.37115 200.396 226)">Yeisson</text><text fill="#FFFFFF" font-family="Montserrat Alternates,Montserrat Alternates_MSFontService,sans-serif" font-weight="700" font-size="23" transform="matrix(4.34886 0 0 4.37115 651.286 226)">C</text><text fill="#FFFFFF" font-family="Montserrat Alternates,Montserrat Alternates_MSFontService,sans-serif" font-weight="700" font-size="23" transform="matrix(4.34886 0 0 4.37115 723.738 226)">astil</text><text fill="#FFFFFF" font-family="Montserrat Alternates,Montserrat Alternates_MSFontService,sans-serif" font-weight="700" font-size="23" transform="matrix(4.34886 0 0 4.37115 959.446 226)">l</text><text fill="#FFFFFF" font-family="Montserrat Alternates,Montserrat Alternates_MSFontService,sans-serif" font-weight="700" font-size="23" transform="matrix(4.34886 0 0 4.37115 995.411 226)">o</text><path d="M875.991 108.722 881.427 136.598" transform="matrix(1 0 0 1.00513 159.995 108.943)"/><path d="M875.991 108.722 881.427 136.598" stroke="#000000" stroke-width="6.52329" stroke-linecap="round" stroke-linejoin="round" fill="none" transform="matrix(1 0 0 1.00513 159.995 108.943)"/><path d="M886.733 126.552 881.427 136.598" transform="matrix(1 0 0 1.00513 159.995 108.943)"/><path d="M886.733 126.552 881.427 136.598" stroke="#000000" stroke-width="6.52329" stroke-linecap="round" stroke-linejoin="round" fill="none" transform="matrix(1 0 0 1.00513 159.995 108.943)"/><path d="M875.991 108.722 897.605 127.857" transform="matrix(1 0 0 1.00513 159.995 108.943)"/><path d="M875.991 108.722 897.605 127.857" stroke="#000000" stroke-width="6.52329" stroke-linecap="round" stroke-linejoin="round" fill="none" transform="matrix(1 0 0 1.00513 159.995 108.943)"/><path d="M897.126 128.117 886.733 126.552" transform="matrix(1 0 0 1.00513 159.995 108.943)"/><path d="M897.126 128.117 886.733 126.552" stroke="#000000" stroke-width="6.52329" stroke-linecap="round" stroke-linejoin="round" fill="none" transform="matrix(1 0 0 1.00513 159.995 108.943)"/><path d="M875.991 108.722 881.427 136.598" stroke="#FFFFFF" stroke-width="4.34886" stroke-linecap="round" stroke-linejoin="round" fill="none" transform="matrix(1 0 0 1.00513 159.995 108.943)"/><path d="M886.733 126.552 881.427 136.598" stroke="#FFFFFF" stroke-width="4.34886" stroke-linecap="round" stroke-linejoin="round" fill="none" transform="matrix(1 0 0 1.00513 159.995 108.943)"/><path d="M875.991 108.722 897.605 127.857" stroke="#FFFFFF" stroke-width="4.34886" stroke-linecap="round" stroke-linejoin="round" fill="none" transform="matrix(1 0 0 1.00513 159.995 108.943)"/><path d="M897.126 128.117 886.733 126.552" stroke="#FFFFFF" stroke-width="4.34886" stroke-linecap="round" stroke-linejoin="round" fill="none" transform="matrix(1 0 0 1.00513 159.995 108.943)"/><path d="M883.384 128.857C886.987 128.857 889.907 125.936 889.907 122.333 889.907 118.731 886.987 115.81 883.384 115.81 879.781 115.81 876.861 118.731 876.861 122.333 876.861 125.936 879.781 128.857 883.384 128.857Z" fill="#FFFFFF" transform="matrix(1 0 0 1.00513 159.995 108.943)"/><path d="M890.603 120.289C889.841 117.993 887.673 116.459 885.254 116.506 884.851 114.566 883.102 113.204 881.123 113.288 878.721 112.843 876.414 114.43 875.969 116.832 875.525 119.234 877.112 121.541 879.514 121.986 879.492 122.406 879.492 122.827 879.514 123.247 879 123.898 878.683 124.683 878.6 125.508 877.231 127.481 877.721 130.191 879.694 131.56 880.433 132.072 881.311 132.343 882.21 132.336 884.453 132.485 886.396 130.795 886.559 128.552 886.559 128.552 886.559 128.552 886.559 128.335L886.559 128.335C887.044 128.527 887.559 128.63 888.081 128.639 890.387 129.336 892.82 128.031 893.517 125.726 894.213 123.42 892.909 120.986 890.603 120.289Z" fill="#FFFFFF" transform="matrix(1 0 0 1.00513 159.995 108.943)"/><path d="M878.47 115.245 895.865 141.338" stroke="#FFFFFF" stroke-width="4.34886" stroke-linecap="round" stroke-linejoin="round" fill="none" transform="matrix(1 0 0 1.00513 159.995 108.943)"/></g></g><path d="M497.5 198C497.5 190.544 503.544 184.5 511 184.5 518.456 184.5 524.5 190.544 524.5 198 524.5 205.456 518.456 211.5 511 211.5 503.544 211.5 497.5 205.456 497.5 198Z" stroke="#000000" stroke-width="1.33333" stroke-miterlimit="8" fill="none" fill-rule="evenodd"/><path d="M742.5 199C742.5 191.544 748.32 185.5 755.5 185.5 762.68 185.5 768.5 191.544 768.5 199 768.5 206.456 762.68 212.5 755.5 212.5 748.32 212.5 742.5 206.456 742.5 199Z" stroke="#000000" stroke-width="1.33333" stroke-miterlimit="8" fill="none" fill-rule="evenodd"/></g></svg>