<svg id="Capa_1" data-name="Capa 1" xmlns="http://www.w3.org/2000/svg" viewBox="0 0 768 1024"><defs><style>.cls-1{opacity:0.04;}.cls-2,.cls-3{fill:none;stroke:#fff;stroke-linecap:round;stroke-width:2px;}.cls-2{stroke-linejoin:round;}</style></defs><title>patron</title><g class="cls-1"><g id="SVGRepo_iconCarrier" data-name="SVGRepo iconCarrier"><path class="cls-2" d="M660.36,97.54l4.92,4.74,11.08-10.67m-8.47,28.88H644.37s4.16-10,2.49-13.33a24,24,0,1,1,45.3-7.48C690.68,111.17,679.47,120.49,667.89,120.49Z"/></g><g id="SVGRepo_iconCarrier-2" data-name="SVGRepo iconCarrier"><path class="cls-2" d="M587.06,89.24a5.88,5.88,0,0,0-8.39-.88,6.24,6.24,0,0,0-.95,8.72,71.52,71.52,0,0,0,6.58,6.48,5.93,5.93,0,0,0,2,1.45,2.88,2.88,0,0,0,1.54,0,6,6,0,0,0,2-1.45,71.52,71.52,0,0,0,6.58-6.48,6.19,6.19,0,0,0-.95-8.72A5.88,5.88,0,0,0,587.06,89.24Z"/><path class="cls-2" d="M611.07,96.49a24,24,0,0,1-24,24h-24s4.15-10,2.49-13.33a24,24,0,1,1,45.5-10.67Z"/></g><g id="SVGRepo_iconCarrier-3" data-name="SVGRepo iconCarrier"><path class="cls-2" d="M13.33,3.42h0M5.47,19.08a8,8,0,0,1,15.09,0M13.33,32.42h0m-7.86,16a8,8,0,0,1,15.09,0m13-33H49.07a6.44,6.44,0,0,0,2.81-.3A2.72,2.72,0,0,0,53,13.91,7,7,0,0,0,53.33,11V8.82A7.06,7.06,0,0,0,53,5.92a2.64,2.64,0,0,0-1.16-1.2,6.44,6.44,0,0,0-2.81-.3H33.6a6.44,6.44,0,0,0-2.81.3,2.72,2.72,0,0,0-1.17,1.2,7.06,7.06,0,0,0-.29,2.9V11a7,7,0,0,0,.29,2.89,2.79,2.79,0,0,0,1.17,1.21A6.44,6.44,0,0,0,33.6,15.42Zm0,29H49.07a6.44,6.44,0,0,0,2.81-.3A2.72,2.72,0,0,0,53,42.91,7,7,0,0,0,53.33,40v-2.2a7.06,7.06,0,0,0-.29-2.9,2.64,2.64,0,0,0-1.16-1.2,6.44,6.44,0,0,0-2.81-.3H33.6a6.44,6.44,0,0,0-2.81.3,2.72,2.72,0,0,0-1.17,1.2,7.06,7.06,0,0,0-.29,2.9V40a7,7,0,0,0,.29,2.89,2.79,2.79,0,0,0,1.17,1.21A6.44,6.44,0,0,0,33.6,44.42ZM15.68,3.08A2.67,2.67,0,1,1,13,.42,2.66,2.66,0,0,1,15.68,3.08Zm0,29.34A2.67,2.67,0,1,1,13,29.75,2.66,2.66,0,0,1,15.68,32.42Z"/></g><g id="SVGRepo_iconCarrier-4" data-name="SVGRepo iconCarrier"><path class="cls-2" d="M521.12,104.49v16m-8-8h16m-11.74-18h7.47a6.64,6.64,0,0,0,2.81-.29A2.75,2.75,0,0,0,528.83,93a6.64,6.64,0,0,0,.29-2.81V82.75a6.64,6.64,0,0,0-.29-2.81,2.68,2.68,0,0,0-1.17-1.16,6.64,6.64,0,0,0-2.81-.29h-7.47a6.64,6.64,0,0,0-2.81.29,2.6,2.6,0,0,0-1.16,1.16,6.64,6.64,0,0,0-.29,2.81v7.47a6.64,6.64,0,0,0,.29,2.81,2.68,2.68,0,0,0,1.16,1.17A6.64,6.64,0,0,0,517.38,94.49Zm-27,0h7.47a6.64,6.64,0,0,0,2.81-.29A2.75,2.75,0,0,0,501.83,93a6.64,6.64,0,0,0,.29-2.81V82.75a6.64,6.64,0,0,0-.29-2.81,2.68,2.68,0,0,0-1.17-1.16,6.64,6.64,0,0,0-2.81-.29h-7.47a6.64,6.64,0,0,0-2.81.29,2.6,2.6,0,0,0-1.16,1.16,6.64,6.64,0,0,0-.29,2.81v7.47a6.64,6.64,0,0,0,.29,2.81,2.68,2.68,0,0,0,1.16,1.17A6.64,6.64,0,0,0,490.38,94.49Zm0,26h7.47a6.64,6.64,0,0,0,2.81-.29,2.75,2.75,0,0,0,1.17-1.17,6.64,6.64,0,0,0,.29-2.81v-7.47a6.64,6.64,0,0,0-.29-2.81,2.68,2.68,0,0,0-1.17-1.16,6.64,6.64,0,0,0-2.81-.29h-7.47a6.64,6.64,0,0,0-2.81.29,2.6,2.6,0,0,0-1.16,1.16,6.64,6.64,0,0,0-.29,2.81v7.47a6.64,6.64,0,0,0,.29,2.81,2.68,2.68,0,0,0,1.16,1.17A6.64,6.64,0,0,0,490.38,120.49Z"/></g><g id="SVGRepo_iconCarrier-5" data-name="SVGRepo iconCarrier"><path class="cls-2" d="M35,33.76H33.42a.64.64,0,0,1-.28,0,.2.2,0,0,1-.11-.11.64.64,0,0,1,0-.28V31.76m1,1.31-.14-.16-.08-.06h0l-.08.06-.26.29,0,0s0,0,0,0,0,0-.39,0v.24c.39,0,.39.08.4.09a.08.08,0,0,0,0,0s0,0,.09.1h.85c0-.09.07-.09.09-.1a.08.08,0,0,0,0,0s0,0-.51-.09v-.24c.52,0,.52,0,.52,0s0,0,0,0l0,0-.12-.13,0,0a.09.09,0,0,0-.1,0l0,0s0,0,0,0a.09.09,0,0,1-.1,0Z"/></g><g id="SVGRepo_iconCarrier-6" data-name="SVGRepo iconCarrier"><path class="cls-2" d="M404.48,120.49a18.67,18.67,0,0,1,18.67-18.67,19.48,19.48,0,0,1,2.66.19m8-18.86a10.67,10.67,0,1,1-10.66-10.66A10.66,10.66,0,0,1,433.81,83.15Zm-6.42,37.34,5.4-1.08a5.67,5.67,0,0,0,.92-.23,2.62,2.62,0,0,0,.55-.29,5.64,5.64,0,0,0,.71-.65l11.08-11.09a3.77,3.77,0,0,0-5.33-5.33l-11.09,11.09a5.37,5.37,0,0,0-.64.7,2.94,2.94,0,0,0-.3.55,6.14,6.14,0,0,0-.22.93Z"/></g><g id="SVGRepo_iconCarrier-7" data-name="SVGRepo iconCarrier"><path class="cls-2" d="M346.4,85.49h5.46a13.5,13.5,0,1,1,.16,27H346.4m-10-27H331a13.5,13.5,0,1,0-.16,27h5.61m-6-13h22"/></g><g id="SVGRepo_iconCarrier-8" data-name="SVGRepo iconCarrier"><path class="cls-2" d="M159.85,30.62a6.25,6.25,0,0,1,.3-2.77,2.67,2.67,0,0,1,1.2-1.15,7.3,7.3,0,0,1,2.9-.28h2.2a7.3,7.3,0,0,1,2.9.28,2.78,2.78,0,0,1,1.2,1.15,6.25,6.25,0,0,1,.3,2.77v12.6a6.2,6.2,0,0,1-.3,2.76,2.72,2.72,0,0,1-1.2,1.15,7.06,7.06,0,0,1-2.9.29h-2.2a7.06,7.06,0,0,1-2.9-.29,2.62,2.62,0,0,1-1.2-1.15,6.2,6.2,0,0,1-.3-2.76Z"/><path class="cls-2" d="M178.85,4.68a6.44,6.44,0,0,1,.3-2.81,2.64,2.64,0,0,1,1.2-1.16,7.06,7.06,0,0,1,2.9-.29h2.2a7.06,7.06,0,0,1,2.9.29,2.74,2.74,0,0,1,1.2,1.16,6.44,6.44,0,0,1,.3,2.81V44.15a6.44,6.44,0,0,1-.3,2.81,2.82,2.82,0,0,1-1.2,1.17,7.06,7.06,0,0,1-2.9.29h-2.2a7.06,7.06,0,0,1-2.9-.29,2.72,2.72,0,0,1-1.2-1.17,6.44,6.44,0,0,1-.3-2.81Z"/><path class="cls-2" d="M196.85,20.68a6.44,6.44,0,0,1,.3-2.81,2.64,2.64,0,0,1,1.2-1.16,7.06,7.06,0,0,1,2.9-.29h2.2a7.06,7.06,0,0,1,2.9.29,2.74,2.74,0,0,1,1.2,1.16,6.44,6.44,0,0,1,.3,2.81V44.15a6.44,6.44,0,0,1-.3,2.81,2.82,2.82,0,0,1-1.2,1.17,7.06,7.06,0,0,1-2.9.29h-2.2a7.06,7.06,0,0,1-2.9-.29,2.72,2.72,0,0,1-1.2-1.17,6.44,6.44,0,0,1-.3-2.81Z"/></g><g id="SVGRepo_iconCarrier-9" data-name="SVGRepo iconCarrier"><path class="cls-2" d="M265,102.49v8m0-16h0m2-22H254.43c-3,0-4.44,0-5.57.58a5.26,5.26,0,0,0-2.31,2.33C246,76.54,246,78,246,81V112c0,3,0,4.49.58,5.63a5.26,5.26,0,0,0,2.31,2.33c1.13.58,2.61.58,5.57.58h20.08c3,0,4.44,0,5.57-.58a5.26,5.26,0,0,0,2.31-2.33c.58-1.14.58-2.64.58-5.63V88.49M267.3,72l16,16M267,72.49V84.22a6.64,6.64,0,0,0,.29,2.81,2.7,2.7,0,0,0,1.17,1.17,6.62,6.62,0,0,0,2.81.29H283"/></g><g id="SVGRepo_iconCarrier-10" data-name="SVGRepo iconCarrier"><path class="cls-2" d="M267,40.42h0m-7.47,8h14.93c3,0,4.48,0,5.63-.59a5.35,5.35,0,0,0,2.33-2.33c.58-1.14.58-2.63.58-5.62V9c0-3,0-4.48-.58-5.62A5.35,5.35,0,0,0,280.11,1C279,.42,277.47.42,274.48.42H259.55c-3,0-4.48,0-5.62.58a5.3,5.3,0,0,0-2.33,2.33C251,4.47,251,6,251,9V39.88c0,3,0,4.48.58,5.62a5.3,5.3,0,0,0,2.33,2.33C255.07,48.42,256.56,48.42,259.55,48.42Z"/></g><g id="SVGRepo_iconCarrier-11" data-name="SVGRepo iconCarrier"><path class="cls-2" d="M442.82,40.42a14.67,14.67,0,1,0-12.75,8h17a19.88,19.88,0,0,1-4.23-7.93m-1.51-16.07a20,20,0,1,0-39.6-4,19.87,19.87,0,0,0,1.14,6.66c2.86,8-3.8,13.34-3.8,13.34h17"/></g><g id="SVGRepo_iconCarrier-12" data-name="SVGRepo iconCarrier"><path class="cls-2" d="M81.63,48l34.65-34.67L129.62,24.4m-48,24h24a24,24,0,0,0,24-23.55M81.63,48s4.16-10,2.49-13.33A24,24,0,1,1,129.63,24c0,.15,0,.3,0,.45M103,26.62l-9.33-8L82.33,29.75"/></g><g id="SVGRepo_iconCarrier-13" data-name="SVGRepo iconCarrier"><path class="cls-2" d="M563.07,13.87c0-3,0-4.44.58-5.57A5.36,5.36,0,0,1,566,6c1.14-.57,2.64-.57,5.62-.57h30.94c3,0,4.48,0,5.62.57a5.36,5.36,0,0,1,2.33,2.31c.58,1.13.58,2.61.58,5.57V34c0,3,0,4.44-.58,5.57a5.36,5.36,0,0,1-2.33,2.31c-1.14.58-2.64.58-5.62.58H571.6c-3,0-4.48,0-5.62-.58a5.36,5.36,0,0,1-2.33-2.31c-.58-1.13-.58-2.61-.58-5.57Z"/><path class="cls-2" d="M581.74,15.62l-8,8,8,8m10.66-16,8,8-8,8"/></g><g id="SVGRepo_iconCarrier-14" data-name="SVGRepo iconCarrier"><path class="cls-2" d="M328.18,16.42l-10.67,9.84,10.67,11.49m26.66-21.33,10.67,9.84L354.84,37.75m-8-32L336.18,48.42"/></g><g id="SVGRepo_iconCarrier-15" data-name="SVGRepo iconCarrier"><path class="cls-2" d="M743.22,48.42v-5a13.5,13.5,0,1,0-27-.33v5.34Zm0,0h21V45.75a13,13,0,0,0-13.33-13.33,12.89,12.89,0,0,0-9.6,4.35M737.56,14a8,8,0,1,1-8-8A8,8,0,0,1,737.56,14Zm18.66,5.33A5.33,5.33,0,1,1,750.89,14,5.34,5.34,0,0,1,756.22,19.28Z"/></g><g id="SVGRepo_iconCarrier-16" data-name="SVGRepo iconCarrier"><path class="cls-3" d="M505,37.42v11m-11,0h22m-26.47-11h30.94c3,0,4.48,0,5.62-.58a5.36,5.36,0,0,0,2.33-2.31c.58-1.13.58-2.61.58-5.57V8.87c0-3,0-4.44-.58-5.57A5.36,5.36,0,0,0,526.1,1C525,.42,523.46.42,520.48.42H489.54c-3,0-4.48,0-5.62.57a5.36,5.36,0,0,0-2.33,2.31C481,4.43,481,5.91,481,8.87V29c0,3,0,4.44.58,5.57a5.36,5.36,0,0,0,2.33,2.31C485.06,37.42,486.56,37.42,489.54,37.42Z"/></g><g id="SVGRepo_iconCarrier-17" data-name="SVGRepo iconCarrier"><path class="cls-2" d="M766.22,85.77h-8.48m8.48,10.72h-8m8,10.64h-8.48m-31-21.36h-8.48M731.58,81V72.49m0,48v-8.56m10.64-31.44v-8m0,48v-8M752.86,81V72.49m0,48v-8.56M726.22,96.49h-8m8.48,10.64h-8.48m20.8,5.36h6.4c4.48,0,6.72,0,8.43-.87a8,8,0,0,0,3.5-3.5c.87-1.71.87-4,.87-8.43v-6.4c0-4.48,0-6.72-.87-8.43a8,8,0,0,0-3.5-3.5c-1.71-.87-4-.87-8.43-.87H739c-4.48,0-6.72,0-8.43.87a8,8,0,0,0-3.5,3.5c-.87,1.71-.87,4-.87,8.43v6.4c0,4.48,0,6.72.87,8.43a8,8,0,0,0,3.5,3.5C732.3,112.49,734.54,112.49,739,112.49Zm-2.16-21.36H747.5v10.64H736.86Z"/></g><g id="SVGRepo_iconCarrier-18" data-name="SVGRepo iconCarrier"><path class="cls-2" d="M660.36,33.89V7.55A7.66,7.66,0,0,1,669.88.13l13.53,3.38a11.82,11.82,0,0,1,9,11.47V30.72A17.7,17.7,0,0,1,673.84,48.4C666.41,48.06,660.36,41.32,660.36,33.89Zm14,14.47h-1c-13.25,0-24-8.47-24-18.92,0-6.57,4.24-12.35,10.67-15.74m16.33-.34v6"/></g><g id="SVGRepo_iconCarrier-19" data-name="SVGRepo iconCarrier"><path class="cls-2" d="M187,120.49v-5a13.5,13.5,0,1,0-27-.33v5.34Zm0,0h21v-2.67a13.16,13.16,0,0,0-22.93-9M181.31,86a8,8,0,1,1-8-8A8,8,0,0,1,181.31,86ZM200,91.35A5.34,5.34,0,1,1,194.65,86,5.34,5.34,0,0,1,200,91.35Z"/></g><g id="SVGRepo_iconCarrier-20" data-name="SVGRepo iconCarrier"><path class="cls-2" d="M81.63,92c0-3,0-4.45.58-5.58a5.41,5.41,0,0,1,2.33-2.31c1.15-.57,2.64-.57,5.63-.57H121.1c3,0,4.48,0,5.62.57a5.36,5.36,0,0,1,2.33,2.31c.58,1.13.58,2.61.58,5.58V112c0,3,0,4.44-.58,5.57a5.26,5.26,0,0,1-2.33,2.31c-1.14.58-2.63.58-5.62.58H90.17c-3,0-4.48,0-5.63-.58a5.31,5.31,0,0,1-2.33-2.31c-.58-1.13-.58-2.61-.58-5.57Z"/><path class="cls-2" d="M100.3,93.69l-8,8,8,8m10.67-16,8,8-8,8"/></g><g id="SVGRepo_iconCarrier-21" data-name="SVGRepo iconCarrier"><path class="cls-3" d="M29.33,109.49v11m-11,0h22m-26.46-11H44.8c3,0,4.48,0,5.62-.58a5.21,5.21,0,0,0,2.33-2.31c.58-1.13.58-2.61.58-5.57V81c0-3,0-4.45-.58-5.58a5.31,5.31,0,0,0-2.33-2.31c-1.14-.57-2.63-.57-5.62-.57H13.87c-3,0-4.48,0-5.62.57a5.31,5.31,0,0,0-2.33,2.31C5.33,76.5,5.33,78,5.33,81V101c0,3,0,4.44.59,5.57a5.21,5.21,0,0,0,2.33,2.31C9.39,109.49,10.88,109.49,13.87,109.49Z"/></g><g id="SVGRepo_iconCarrier-22" data-name="SVGRepo iconCarrier"><path class="cls-2" d="M21.33,177V150.7a7.66,7.66,0,0,1,9.52-7.43l13.53,3.39a11.81,11.81,0,0,1,8.95,11.46v15.74a17.7,17.7,0,0,1-18.52,17.68C27.38,191.2,21.33,184.47,21.33,177Zm14,14.47h-1c-13.25,0-24-8.48-24-18.93,0-6.56,4.24-12.34,10.67-15.74m16.33-.33v6"/></g><g id="SVGRepo_iconCarrier-23" data-name="SVGRepo iconCarrier"><path class="cls-2" d="M113.63,183.6h0m-7.47,8H121.1c3,0,4.48,0,5.62-.58a5.33,5.33,0,0,0,2.33-2.32c.58-1.13.58-2.62.58-5.59V152.31c0-3,0-4.46-.58-5.59a5.33,5.33,0,0,0-2.33-2.32c-1.14-.58-2.64-.58-5.62-.58H106.16c-3,0-4.48,0-5.62.58a5.33,5.33,0,0,0-2.33,2.32c-.58,1.13-.58,2.62-.58,5.59v30.76c0,3,0,4.46.58,5.59a5.33,5.33,0,0,0,2.33,2.32C101.68,191.56,103.18,191.56,106.16,191.56Z"/></g><g id="SVGRepo_iconCarrier-24" data-name="SVGRepo iconCarrier"><path class="cls-2" d="M208,156.84h-8.48M208,167.56h-8m8,10.64h-8.48m-31-21.36H160m13.36-4.8v-8.48m0,48V183M184,151.56v-8m0,48v-8M194.59,152v-8.48m0,48V183M168,167.56h-8m8.48,10.64H160m20.8,5.36h6.4c4.48,0,6.72,0,8.43-.87a8,8,0,0,0,3.5-3.5c.87-1.71.87-3.95.87-8.43v-6.4c0-4.48,0-6.72-.87-8.43a8,8,0,0,0-3.5-3.5c-1.71-.87-4-.87-8.43-.87h-6.4c-4.48,0-6.72,0-8.43.87a8,8,0,0,0-3.5,3.5c-.87,1.71-.87,3.95-.87,8.43v6.4c0,4.48,0,6.72.87,8.43a8,8,0,0,0,3.5,3.5C174,183.56,176.27,183.56,180.75,183.56Zm-2.16-21.36h10.64v10.64H178.59Z"/></g><g id="SVGRepo_iconCarrier-25" data-name="SVGRepo iconCarrier"><path class="cls-2" d="M235.35,163c0-3,0-4.44.58-5.57a5.21,5.21,0,0,1,2.33-2.31c1.14-.58,2.63-.58,5.62-.58h30.93c3,0,4.48,0,5.62.58a5.21,5.21,0,0,1,2.33,2.31c.59,1.13.59,2.61.59,5.57V183.1c0,3,0,4.44-.59,5.57a5.21,5.21,0,0,1-2.33,2.31c-1.14.58-2.63.58-5.62.58H243.88c-3,0-4.48,0-5.62-.58a5.21,5.21,0,0,1-2.33-2.31c-.58-1.13-.58-2.61-.58-5.57Z"/><path class="cls-2" d="M254,164.76l-8,8,8,8m10.67-16,8,8-8,8"/></g><g id="SVGRepo_iconCarrier-26" data-name="SVGRepo iconCarrier"><path class="cls-2" d="M317.53,191.09l34.65-34.66,13.34,11.12m-48,24h24a24,24,0,0,0,24-23.55m-48,23.08s4.15-10,2.49-13.33a24,24,0,1,1,45.5-10.67v.46m-26.67,2.21-9.34-8-11.28,11.13"/></g><g id="SVGRepo_iconCarrier-27" data-name="SVGRepo iconCarrier"><path class="cls-2" d="M426.2,191.56v-5a13.5,13.5,0,1,0-27-.32v5.33Zm0,0h21v-2.67a13.16,13.16,0,0,0-22.93-9m-3.73-22.82a8,8,0,1,1-8-8A8,8,0,0,1,420.54,157.09Zm18.66,5.34a5.33,5.33,0,1,1-5.33-5.34A5.33,5.33,0,0,1,439.2,162.43Z"/></g><g id="SVGRepo_iconCarrier-28" data-name="SVGRepo iconCarrier"><path class="cls-2" d="M563.08,173.76a6.28,6.28,0,0,1,.3-2.77,2.65,2.65,0,0,1,1.2-1.14,7.06,7.06,0,0,1,2.9-.29h2.2a7.06,7.06,0,0,1,2.9.29,2.65,2.65,0,0,1,1.2,1.14,6.28,6.28,0,0,1,.3,2.77v12.6a6.25,6.25,0,0,1-.3,2.77,2.65,2.65,0,0,1-1.2,1.14,7.06,7.06,0,0,1-2.9.29h-2.2a7.06,7.06,0,0,1-2.9-.29,2.65,2.65,0,0,1-1.2-1.14,6.25,6.25,0,0,1-.3-2.77Z"/><path class="cls-2" d="M582.08,147.83a6.41,6.41,0,0,1,.3-2.81,2.66,2.66,0,0,1,1.2-1.17,7.06,7.06,0,0,1,2.9-.29h2.2a7.06,7.06,0,0,1,2.9.29,2.66,2.66,0,0,1,1.2,1.17,6.41,6.41,0,0,1,.3,2.81v39.46a6.41,6.41,0,0,1-.3,2.81,2.66,2.66,0,0,1-1.2,1.17,7.06,7.06,0,0,1-2.9.29h-2.2a7.06,7.06,0,0,1-2.9-.29,2.66,2.66,0,0,1-1.2-1.17,6.41,6.41,0,0,1-.3-2.81Z"/><path class="cls-2" d="M600.08,163.83a6.41,6.41,0,0,1,.3-2.81,2.66,2.66,0,0,1,1.2-1.17,7.06,7.06,0,0,1,2.9-.29h2.2a7.06,7.06,0,0,1,2.9.29,2.66,2.66,0,0,1,1.2,1.17,6.41,6.41,0,0,1,.3,2.81v23.46a6.41,6.41,0,0,1-.3,2.81,2.66,2.66,0,0,1-1.2,1.17,7.06,7.06,0,0,1-2.9.29h-2.2a7.06,7.06,0,0,1-2.9-.29,2.66,2.66,0,0,1-1.2-1.17,6.41,6.41,0,0,1-.3-2.81Z"/></g><g id="SVGRepo_iconCarrier-29" data-name="SVGRepo iconCarrier"><path class="cls-2" d="M655.05,159.56l-10.67,9.85,10.67,11.48m26.66-21.33,10.67,9.85-10.67,11.48m-8-32-10.66,42.67"/></g><g id="SVGRepo_iconCarrier-30" data-name="SVGRepo iconCarrier"><path class="cls-2" d="M741.56,173.56v8m0-16h0m2-22H731c-3,0-4.44,0-5.57.58a5.36,5.36,0,0,0-2.31,2.33c-.57,1.14-.57,2.64-.57,5.62V183c0,3,0,4.48.57,5.62a5.36,5.36,0,0,0,2.31,2.33c1.13.58,2.61.58,5.57.58H751.1c3,0,4.44,0,5.57-.58a5.36,5.36,0,0,0,2.31-2.33c.58-1.14.58-2.64.58-5.62V159.56m-15.67-16.47,16,16m-16.33-15.53v11.73a6.62,6.62,0,0,0,.29,2.81,2.63,2.63,0,0,0,1.16,1.17,6.64,6.64,0,0,0,2.81.29h11.74"/></g><g id="SVGRepo_iconCarrier-31" data-name="SVGRepo iconCarrier"><path class="cls-2" d="M510,159h5.46a13.5,13.5,0,1,1,.16,27H510m-10-27h-5.46a13.5,13.5,0,1,0-.16,27H500m-6-13h22"/></g><g id="SVGRepo_iconCarrier-32" data-name="SVGRepo iconCarrier"><path class="cls-2" d="M663.36,304.54l4.92,4.74,11.08-10.67m-8.47,28.88H647.37s4.16-10,2.49-13.33a24,24,0,1,1,45.3-7.48C693.68,318.17,682.47,327.49,670.89,327.49Z"/></g><g id="SVGRepo_iconCarrier-33" data-name="SVGRepo iconCarrier"><path class="cls-2" d="M590.06,296.24a5.88,5.88,0,0,0-8.39-.88,6.24,6.24,0,0,0-.95,8.72,71.52,71.52,0,0,0,6.58,6.48,5.93,5.93,0,0,0,2,1.45,2.88,2.88,0,0,0,1.54,0,6,6,0,0,0,2-1.45,71.52,71.52,0,0,0,6.58-6.48,6.19,6.19,0,0,0-.95-8.72A5.88,5.88,0,0,0,590.06,296.24Z"/><path class="cls-2" d="M614.07,303.49a24,24,0,0,1-24,24h-24s4.15-10,2.49-13.33a24,24,0,1,1,45.5-10.67Z"/></g><g id="SVGRepo_iconCarrier-34" data-name="SVGRepo iconCarrier"><path class="cls-2" d="M16.33,210.42h0M8.47,226.08a8,8,0,0,1,15.09,0m-7.23,13.34h0m-7.86,16a8,8,0,0,1,15.09,0m13-33H52.07a6.44,6.44,0,0,0,2.81-.3A2.72,2.72,0,0,0,56,220.91a7,7,0,0,0,.29-2.89v-2.2a7.06,7.06,0,0,0-.29-2.9,2.64,2.64,0,0,0-1.16-1.2,6.44,6.44,0,0,0-2.81-.3H36.6a6.44,6.44,0,0,0-2.81.3,2.72,2.72,0,0,0-1.17,1.2,7.06,7.06,0,0,0-.29,2.9V218a7,7,0,0,0,.29,2.89,2.79,2.79,0,0,0,1.17,1.21A6.44,6.44,0,0,0,36.6,222.42Zm0,29H52.07a6.44,6.44,0,0,0,2.81-.3A2.72,2.72,0,0,0,56,249.91a7,7,0,0,0,.29-2.89v-2.2a7.06,7.06,0,0,0-.29-2.9,2.64,2.64,0,0,0-1.16-1.2,6.44,6.44,0,0,0-2.81-.3H36.6a6.44,6.44,0,0,0-2.81.3,2.72,2.72,0,0,0-1.17,1.2,7.06,7.06,0,0,0-.29,2.9V247a7,7,0,0,0,.29,2.89,2.79,2.79,0,0,0,1.17,1.21A6.44,6.44,0,0,0,36.6,251.42ZM18.68,210.08A2.67,2.67,0,1,1,16,207.42,2.66,2.66,0,0,1,18.68,210.08Zm0,29.34A2.67,2.67,0,1,1,16,236.75,2.66,2.66,0,0,1,18.68,239.42Z"/></g><g id="SVGRepo_iconCarrier-35" data-name="SVGRepo iconCarrier"><path class="cls-2" d="M524.12,311.49v16m-8-8h16m-11.74-18h7.47a6.64,6.64,0,0,0,2.81-.29,2.75,2.75,0,0,0,1.17-1.17,6.64,6.64,0,0,0,.29-2.81v-7.47a6.64,6.64,0,0,0-.29-2.81,2.68,2.68,0,0,0-1.17-1.16,6.64,6.64,0,0,0-2.81-.29h-7.47a6.64,6.64,0,0,0-2.81.29,2.6,2.6,0,0,0-1.16,1.16,6.64,6.64,0,0,0-.29,2.81v7.47a6.64,6.64,0,0,0,.29,2.81,2.68,2.68,0,0,0,1.16,1.17A6.64,6.64,0,0,0,520.38,301.49Zm-27,0h7.47a6.64,6.64,0,0,0,2.81-.29,2.75,2.75,0,0,0,1.17-1.17,6.64,6.64,0,0,0,.29-2.81v-7.47a6.64,6.64,0,0,0-.29-2.81,2.68,2.68,0,0,0-1.17-1.16,6.64,6.64,0,0,0-2.81-.29h-7.47a6.64,6.64,0,0,0-2.81.29,2.6,2.6,0,0,0-1.16,1.16,6.64,6.64,0,0,0-.29,2.81v7.47a6.64,6.64,0,0,0,.29,2.81,2.68,2.68,0,0,0,1.16,1.17A6.64,6.64,0,0,0,493.38,301.49Zm0,26h7.47a6.64,6.64,0,0,0,2.81-.29,2.75,2.75,0,0,0,1.17-1.17,6.64,6.64,0,0,0,.29-2.81v-7.47a6.64,6.64,0,0,0-.29-2.81,2.68,2.68,0,0,0-1.17-1.16,6.64,6.64,0,0,0-2.81-.29h-7.47a6.64,6.64,0,0,0-2.81.29,2.6,2.6,0,0,0-1.16,1.16,6.64,6.64,0,0,0-.29,2.81v7.47a6.64,6.64,0,0,0,.29,2.81,2.68,2.68,0,0,0,1.16,1.17A6.64,6.64,0,0,0,493.38,327.49Z"/></g><g id="SVGRepo_iconCarrier-36" data-name="SVGRepo iconCarrier"><path class="cls-2" d="M38,240.76H36.42a.64.64,0,0,1-.28,0,.2.2,0,0,1-.11-.11.64.64,0,0,1,0-.28v-1.58m1,1.31-.14-.16-.08-.06h0l-.08.06-.26.29,0,0s0,0,0,0,0,0-.39,0v.24c.39.05.39.08.4.09l0,0s0,0,.09.1h.85c0-.09.07-.09.09-.1a.08.08,0,0,0,0,0s0,0-.51-.09v-.24c.52,0,.52,0,.52,0s0,0,0,0l0,0-.12-.13,0,0a.09.09,0,0,0-.1,0l0,0,0,0a.09.09,0,0,1-.1,0Z"/></g><g id="SVGRepo_iconCarrier-37" data-name="SVGRepo iconCarrier"><path class="cls-2" d="M407.48,327.49a18.67,18.67,0,0,1,18.67-18.67,19.48,19.48,0,0,1,2.66.19m8-18.86a10.67,10.67,0,1,1-10.66-10.66A10.66,10.66,0,0,1,436.81,290.15Zm-6.42,37.34,5.4-1.08a5.67,5.67,0,0,0,.92-.23,2.62,2.62,0,0,0,.55-.29,5.64,5.64,0,0,0,.71-.65l11.08-11.09a3.77,3.77,0,0,0-5.33-5.33l-11.09,11.09a5.37,5.37,0,0,0-.64.7,2.94,2.94,0,0,0-.3.55,6.14,6.14,0,0,0-.22.93Z"/></g><g id="SVGRepo_iconCarrier-38" data-name="SVGRepo iconCarrier"><path class="cls-2" d="M349.4,292.49h5.46a13.5,13.5,0,1,1,.16,27H349.4m-10-27H334a13.5,13.5,0,1,0-.16,27h5.61m-6-13h22"/></g><g id="SVGRepo_iconCarrier-39" data-name="SVGRepo iconCarrier"><path class="cls-2" d="M162.85,237.62a6.25,6.25,0,0,1,.3-2.77,2.67,2.67,0,0,1,1.2-1.15,7.3,7.3,0,0,1,2.9-.28h2.2a7.3,7.3,0,0,1,2.9.28,2.78,2.78,0,0,1,1.2,1.15,6.25,6.25,0,0,1,.3,2.77v12.6a6.2,6.2,0,0,1-.3,2.76,2.72,2.72,0,0,1-1.2,1.15,7.06,7.06,0,0,1-2.9.29h-2.2a7.06,7.06,0,0,1-2.9-.29,2.62,2.62,0,0,1-1.2-1.15,6.2,6.2,0,0,1-.3-2.76Z"/><path class="cls-2" d="M181.85,211.68a6.44,6.44,0,0,1,.3-2.81,2.64,2.64,0,0,1,1.2-1.16,7.06,7.06,0,0,1,2.9-.29h2.2a7.06,7.06,0,0,1,2.9.29,2.74,2.74,0,0,1,1.2,1.16,6.44,6.44,0,0,1,.3,2.81v39.47a6.44,6.44,0,0,1-.3,2.81,2.82,2.82,0,0,1-1.2,1.17,7.06,7.06,0,0,1-2.9.29h-2.2a7.06,7.06,0,0,1-2.9-.29,2.72,2.72,0,0,1-1.2-1.17,6.44,6.44,0,0,1-.3-2.81Z"/><path class="cls-2" d="M199.85,227.68a6.44,6.44,0,0,1,.3-2.81,2.64,2.64,0,0,1,1.2-1.16,7.06,7.06,0,0,1,2.9-.29h2.2a7.06,7.06,0,0,1,2.9.29,2.74,2.74,0,0,1,1.2,1.16,6.44,6.44,0,0,1,.3,2.81v23.47a6.44,6.44,0,0,1-.3,2.81,2.82,2.82,0,0,1-1.2,1.17,7.06,7.06,0,0,1-2.9.29h-2.2a7.06,7.06,0,0,1-2.9-.29,2.72,2.72,0,0,1-1.2-1.17,6.44,6.44,0,0,1-.3-2.81Z"/></g><g id="SVGRepo_iconCarrier-40" data-name="SVGRepo iconCarrier"><path class="cls-2" d="M268,309.49v8m0-16h0m2-22H257.43c-3,0-4.44,0-5.57.58a5.26,5.26,0,0,0-2.31,2.33C249,283.54,249,285,249,288V319c0,3,0,4.49.58,5.63a5.26,5.26,0,0,0,2.31,2.33c1.13.58,2.61.58,5.57.58h20.08c3,0,4.44,0,5.57-.58a5.26,5.26,0,0,0,2.31-2.33c.58-1.14.58-2.64.58-5.63V295.49M270.3,279l16,16M270,279.49v11.73a6.64,6.64,0,0,0,.29,2.81,2.7,2.7,0,0,0,1.17,1.17,6.62,6.62,0,0,0,2.81.29H286"/></g><g id="SVGRepo_iconCarrier-41" data-name="SVGRepo iconCarrier"><path class="cls-2" d="M270,247.42h0m-7.47,8h14.93c3,0,4.48,0,5.63-.59a5.35,5.35,0,0,0,2.33-2.33c.58-1.14.58-2.63.58-5.62V216c0-3,0-4.48-.58-5.62a5.35,5.35,0,0,0-2.33-2.33c-1.15-.58-2.64-.58-5.63-.58H262.55c-3,0-4.48,0-5.62.58a5.3,5.3,0,0,0-2.33,2.33C254,211.47,254,213,254,216v30.93c0,3,0,4.48.58,5.62a5.3,5.3,0,0,0,2.33,2.33C258.07,255.42,259.56,255.42,262.55,255.42Z"/></g><g id="SVGRepo_iconCarrier-42" data-name="SVGRepo iconCarrier"><path class="cls-2" d="M445.82,247.42a14.67,14.67,0,1,0-12.75,8h17a19.88,19.88,0,0,1-4.23-7.93m-1.51-16.07a20,20,0,1,0-39.6-4,19.87,19.87,0,0,0,1.14,6.66c2.86,8-3.8,13.34-3.8,13.34h17"/></g><g id="SVGRepo_iconCarrier-43" data-name="SVGRepo iconCarrier"><path class="cls-2" d="M84.63,255l34.65-34.67,13.34,11.12m-48,24h24a24,24,0,0,0,24-23.55M84.63,255s4.16-10,2.49-13.33A24,24,0,1,1,132.63,231c0,.15,0,.3,0,.45M106,233.62l-9.33-8L85.33,236.75"/></g><g id="SVGRepo_iconCarrier-44" data-name="SVGRepo iconCarrier"><path class="cls-2" d="M566.07,220.87c0-3,0-4.44.58-5.57A5.36,5.36,0,0,1,569,213c1.14-.57,2.64-.57,5.62-.57h30.94c3,0,4.48,0,5.62.57a5.36,5.36,0,0,1,2.33,2.31c.58,1.13.58,2.61.58,5.57V241c0,3,0,4.44-.58,5.57a5.36,5.36,0,0,1-2.33,2.31c-1.14.58-2.64.58-5.62.58H574.6c-3,0-4.48,0-5.62-.58a5.36,5.36,0,0,1-2.33-2.31c-.58-1.13-.58-2.61-.58-5.57Z"/><path class="cls-2" d="M584.74,222.62l-8,8,8,8m10.66-16,8,8-8,8"/></g><g id="SVGRepo_iconCarrier-45" data-name="SVGRepo iconCarrier"><path class="cls-2" d="M331.18,223.42l-10.67,9.84,10.67,11.49m26.66-21.33,10.67,9.84-10.67,11.49m-8-32-10.66,42.67"/></g><g id="SVGRepo_iconCarrier-46" data-name="SVGRepo iconCarrier"><path class="cls-2" d="M746.22,255.42v-5a13.5,13.5,0,1,0-27-.33v5.34Zm0,0h21v-2.67a13,13,0,0,0-13.33-13.33,12.89,12.89,0,0,0-9.6,4.35M740.56,221a8,8,0,1,1-8-8A8,8,0,0,1,740.56,221Zm18.66,5.33a5.33,5.33,0,1,1-5.33-5.33A5.34,5.34,0,0,1,759.22,226.28Z"/></g><g id="SVGRepo_iconCarrier-47" data-name="SVGRepo iconCarrier"><path class="cls-3" d="M508,244.42v11m-11,0h22m-26.47-11h30.94c3,0,4.48,0,5.62-.58a5.36,5.36,0,0,0,2.33-2.31c.58-1.13.58-2.61.58-5.57V215.87c0-3,0-4.44-.58-5.57A5.36,5.36,0,0,0,529.1,208c-1.14-.57-2.64-.57-5.62-.57H492.54c-3,0-4.48,0-5.62.57a5.36,5.36,0,0,0-2.33,2.31c-.58,1.13-.58,2.61-.58,5.57V236c0,3,0,4.44.58,5.57a5.36,5.36,0,0,0,2.33,2.31C488.06,244.42,489.56,244.42,492.54,244.42Z"/></g><g id="SVGRepo_iconCarrier-48" data-name="SVGRepo iconCarrier"><path class="cls-2" d="M769.22,292.77h-8.48m8.48,10.72h-8m8,10.64h-8.48m-31-21.36h-8.48m13.36-4.8v-8.48m0,48v-8.56m10.64-31.44v-8m0,48v-8M755.86,288v-8.48m0,48v-8.56m-26.64-15.44h-8m8.48,10.64h-8.48m20.8,5.36h6.4c4.48,0,6.72,0,8.43-.87a8,8,0,0,0,3.5-3.5c.87-1.71.87-3.95.87-8.43v-6.4c0-4.48,0-6.72-.87-8.43a8,8,0,0,0-3.5-3.5c-1.71-.87-4-.87-8.43-.87H742c-4.48,0-6.72,0-8.43.87a8,8,0,0,0-3.5,3.5c-.87,1.71-.87,3.95-.87,8.43v6.4c0,4.48,0,6.72.87,8.43a8,8,0,0,0,3.5,3.5C735.3,319.49,737.54,319.49,742,319.49Zm-2.16-21.36H750.5v10.64H739.86Z"/></g><g id="SVGRepo_iconCarrier-49" data-name="SVGRepo iconCarrier"><path class="cls-2" d="M663.36,240.89V214.55a7.66,7.66,0,0,1,9.52-7.42l13.53,3.38a11.82,11.82,0,0,1,9,11.47v15.74a17.7,17.7,0,0,1-18.52,17.68C669.41,255.06,663.36,248.32,663.36,240.89Zm14,14.47h-1c-13.25,0-24-8.47-24-18.92,0-6.57,4.24-12.35,10.67-15.74m16.33-.34v6"/></g><g id="SVGRepo_iconCarrier-50" data-name="SVGRepo iconCarrier"><path class="cls-2" d="M190,327.49v-5a13.5,13.5,0,1,0-27-.33v5.34Zm0,0h21v-2.67a13.16,13.16,0,0,0-22.93-9M184.31,293a8,8,0,1,1-8-8A8,8,0,0,1,184.31,293ZM203,298.35a5.34,5.34,0,1,1-5.33-5.33A5.34,5.34,0,0,1,203,298.35Z"/></g><g id="SVGRepo_iconCarrier-51" data-name="SVGRepo iconCarrier"><path class="cls-2" d="M84.63,299c0-3,0-4.45.58-5.58a5.41,5.41,0,0,1,2.33-2.31c1.15-.57,2.64-.57,5.63-.57H124.1c3,0,4.48,0,5.62.57a5.36,5.36,0,0,1,2.33,2.31c.58,1.13.58,2.61.58,5.58V319c0,3,0,4.44-.58,5.57a5.26,5.26,0,0,1-2.33,2.31c-1.14.58-2.63.58-5.62.58H93.17c-3,0-4.48,0-5.63-.58a5.31,5.31,0,0,1-2.33-2.31c-.58-1.13-.58-2.61-.58-5.57Z"/><path class="cls-2" d="M103.3,300.69l-8,8,8,8m10.67-16,8,8-8,8"/></g><g id="SVGRepo_iconCarrier-52" data-name="SVGRepo iconCarrier"><path class="cls-3" d="M32.33,316.49v11m-11,0h22m-26.46-11H47.8c3,0,4.48,0,5.62-.58a5.21,5.21,0,0,0,2.33-2.31c.58-1.13.58-2.61.58-5.57V288c0-3,0-4.45-.58-5.58a5.31,5.31,0,0,0-2.33-2.31c-1.14-.57-2.63-.57-5.62-.57H16.87c-3,0-4.48,0-5.62.57a5.31,5.31,0,0,0-2.33,2.31c-.59,1.13-.59,2.61-.59,5.58V308c0,3,0,4.44.59,5.57a5.21,5.21,0,0,0,2.33,2.31C12.39,316.49,13.88,316.49,16.87,316.49Z"/></g><g id="SVGRepo_iconCarrier-53" data-name="SVGRepo iconCarrier"><path class="cls-2" d="M24.33,384V357.7a7.66,7.66,0,0,1,9.52-7.43l13.53,3.39a11.81,11.81,0,0,1,8.95,11.46v15.74a17.7,17.7,0,0,1-18.52,17.68C30.38,398.2,24.33,391.47,24.33,384Zm14,14.47h-1c-13.25,0-24-8.48-24-18.93,0-6.56,4.24-12.34,10.67-15.74m16.33-.33v6"/></g><g id="SVGRepo_iconCarrier-54" data-name="SVGRepo iconCarrier"><path class="cls-2" d="M116.63,390.6h0m-7.47,8H124.1c3,0,4.48,0,5.62-.58a5.33,5.33,0,0,0,2.33-2.32c.58-1.13.58-2.62.58-5.59V359.31c0-3,0-4.46-.58-5.59a5.33,5.33,0,0,0-2.33-2.32c-1.14-.58-2.64-.58-5.62-.58H109.16c-3,0-4.48,0-5.62.58a5.33,5.33,0,0,0-2.33,2.32c-.58,1.13-.58,2.62-.58,5.59v30.76c0,3,0,4.46.58,5.59a5.33,5.33,0,0,0,2.33,2.32C104.68,398.56,106.18,398.56,109.16,398.56Z"/></g><g id="SVGRepo_iconCarrier-55" data-name="SVGRepo iconCarrier"><path class="cls-2" d="M211,363.84h-8.48M211,374.56h-8m8,10.64h-8.48m-31-21.36H163m13.36-4.8v-8.48m0,48V390M187,358.56v-8m0,48v-8M197.59,359v-8.48m0,48V390M171,374.56h-8m8.48,10.64H163m20.8,5.36h6.4c4.48,0,6.72,0,8.43-.87a8,8,0,0,0,3.5-3.5c.87-1.71.87-3.95.87-8.43v-6.4c0-4.48,0-6.72-.87-8.43a8,8,0,0,0-3.5-3.5c-1.71-.87-4-.87-8.43-.87h-6.4c-4.48,0-6.72,0-8.43.87a8,8,0,0,0-3.5,3.5c-.87,1.71-.87,3.95-.87,8.43v6.4c0,4.48,0,6.72.87,8.43a8,8,0,0,0,3.5,3.5C177,390.56,179.27,390.56,183.75,390.56Zm-2.16-21.36h10.64v10.64H181.59Z"/></g><g id="SVGRepo_iconCarrier-56" data-name="SVGRepo iconCarrier"><path class="cls-2" d="M238.35,370c0-3,0-4.44.58-5.57a5.21,5.21,0,0,1,2.33-2.31c1.14-.58,2.63-.58,5.62-.58h30.93c3,0,4.48,0,5.62.58a5.21,5.21,0,0,1,2.33,2.31c.59,1.13.59,2.61.59,5.57V390.1c0,3,0,4.44-.59,5.57a5.21,5.21,0,0,1-2.33,2.31c-1.14.58-2.63.58-5.62.58H246.88c-3,0-4.48,0-5.62-.58a5.21,5.21,0,0,1-2.33-2.31c-.58-1.13-.58-2.61-.58-5.57Z"/><path class="cls-2" d="M257,371.76l-8,8,8,8m10.67-16,8,8-8,8"/></g><g id="SVGRepo_iconCarrier-57" data-name="SVGRepo iconCarrier"><path class="cls-2" d="M320.53,398.09l34.65-34.66,13.34,11.12m-48,24h24a24,24,0,0,0,24-23.55m-48,23.08s4.15-10,2.49-13.33a24,24,0,1,1,45.5-10.67v.46m-26.67,2.21-9.34-8-11.28,11.13"/></g><g id="SVGRepo_iconCarrier-58" data-name="SVGRepo iconCarrier"><path class="cls-2" d="M429.2,398.56v-5a13.5,13.5,0,1,0-27-.32v5.33Zm0,0h21v-2.67a13.16,13.16,0,0,0-22.93-9m-3.73-22.82a8,8,0,1,1-8-8A8,8,0,0,1,423.54,364.09Zm18.66,5.34a5.33,5.33,0,1,1-5.33-5.34A5.33,5.33,0,0,1,442.2,369.43Z"/></g><g id="SVGRepo_iconCarrier-59" data-name="SVGRepo iconCarrier"><path class="cls-2" d="M566.08,380.76a6.28,6.28,0,0,1,.3-2.77,2.65,2.65,0,0,1,1.2-1.14,7.06,7.06,0,0,1,2.9-.29h2.2a7.06,7.06,0,0,1,2.9.29,2.65,2.65,0,0,1,1.2,1.14,6.28,6.28,0,0,1,.3,2.77v12.6a6.25,6.25,0,0,1-.3,2.77,2.65,2.65,0,0,1-1.2,1.14,7.06,7.06,0,0,1-2.9.29h-2.2a7.06,7.06,0,0,1-2.9-.29,2.65,2.65,0,0,1-1.2-1.14,6.25,6.25,0,0,1-.3-2.77Z"/><path class="cls-2" d="M585.08,354.83a6.41,6.41,0,0,1,.3-2.81,2.66,2.66,0,0,1,1.2-1.17,7.06,7.06,0,0,1,2.9-.29h2.2a7.06,7.06,0,0,1,2.9.29,2.66,2.66,0,0,1,1.2,1.17,6.41,6.41,0,0,1,.3,2.81v39.46a6.41,6.41,0,0,1-.3,2.81,2.66,2.66,0,0,1-1.2,1.17,7.06,7.06,0,0,1-2.9.29h-2.2a7.06,7.06,0,0,1-2.9-.29,2.66,2.66,0,0,1-1.2-1.17,6.41,6.41,0,0,1-.3-2.81Z"/><path class="cls-2" d="M603.08,370.83a6.41,6.41,0,0,1,.3-2.81,2.66,2.66,0,0,1,1.2-1.17,7.06,7.06,0,0,1,2.9-.29h2.2a7.06,7.06,0,0,1,2.9.29,2.66,2.66,0,0,1,1.2,1.17,6.41,6.41,0,0,1,.3,2.81v23.46a6.41,6.41,0,0,1-.3,2.81,2.66,2.66,0,0,1-1.2,1.17,7.06,7.06,0,0,1-2.9.29h-2.2a7.06,7.06,0,0,1-2.9-.29,2.66,2.66,0,0,1-1.2-1.17,6.41,6.41,0,0,1-.3-2.81Z"/></g><g id="SVGRepo_iconCarrier-60" data-name="SVGRepo iconCarrier"><path class="cls-2" d="M658.05,366.56l-10.67,9.85,10.67,11.48m26.66-21.33,10.67,9.85-10.67,11.48m-8-32-10.66,42.67"/></g><g id="SVGRepo_iconCarrier-61" data-name="SVGRepo iconCarrier"><path class="cls-2" d="M744.56,380.56v8m0-16h0m2-22H734c-3,0-4.44,0-5.57.58a5.36,5.36,0,0,0-2.31,2.33c-.57,1.14-.57,2.64-.57,5.62V390c0,3,0,4.48.57,5.62a5.36,5.36,0,0,0,2.31,2.33c1.13.58,2.61.58,5.57.58H754.1c3,0,4.44,0,5.57-.58a5.36,5.36,0,0,0,2.31-2.33c.58-1.14.58-2.64.58-5.62V366.56m-15.67-16.47,16,16m-16.33-15.53v11.73a6.62,6.62,0,0,0,.29,2.81,2.63,2.63,0,0,0,1.16,1.17,6.64,6.64,0,0,0,2.81.29h11.74"/></g><g id="SVGRepo_iconCarrier-62" data-name="SVGRepo iconCarrier"><path class="cls-2" d="M513,366h5.46a13.5,13.5,0,1,1,.16,27H513m-10-27h-5.46a13.5,13.5,0,1,0-.16,27H503m-6-13h22"/></g><g id="SVGRepo_iconCarrier-63" data-name="SVGRepo iconCarrier"><path class="cls-2" d="M664.36,513.54l4.92,4.74,11.08-10.67m-8.47,28.88H648.37s4.16-10,2.49-13.33a24,24,0,1,1,45.3-7.48C694.68,527.17,683.47,536.49,671.89,536.49Z"/></g><g id="SVGRepo_iconCarrier-64" data-name="SVGRepo iconCarrier"><path class="cls-2" d="M591.06,505.24a5.88,5.88,0,0,0-8.39-.88,6.24,6.24,0,0,0-.95,8.72,71.52,71.52,0,0,0,6.58,6.48,5.93,5.93,0,0,0,2,1.45,2.88,2.88,0,0,0,1.54,0,6,6,0,0,0,2-1.45,71.52,71.52,0,0,0,6.58-6.48,6.19,6.19,0,0,0-.95-8.72A5.88,5.88,0,0,0,591.06,505.24Z"/><path class="cls-2" d="M615.07,512.49a24,24,0,0,1-24,24h-24s4.15-10,2.49-13.33a24,24,0,1,1,45.5-10.67Z"/></g><g id="SVGRepo_iconCarrier-65" data-name="SVGRepo iconCarrier"><path class="cls-2" d="M17.33,419.42h0M9.47,435.08a8,8,0,0,1,15.09,0m-7.23,13.34h0m-7.86,16a8,8,0,0,1,15.09,0m13-33H53.07a6.44,6.44,0,0,0,2.81-.3A2.72,2.72,0,0,0,57,429.91a7,7,0,0,0,.29-2.89v-2.2a7.06,7.06,0,0,0-.29-2.9,2.64,2.64,0,0,0-1.16-1.2,6.44,6.44,0,0,0-2.81-.3H37.6a6.44,6.44,0,0,0-2.81.3,2.72,2.72,0,0,0-1.17,1.2,7.06,7.06,0,0,0-.29,2.9V427a7,7,0,0,0,.29,2.89,2.79,2.79,0,0,0,1.17,1.21A6.44,6.44,0,0,0,37.6,431.42Zm0,29H53.07a6.44,6.44,0,0,0,2.81-.3A2.72,2.72,0,0,0,57,458.91a7,7,0,0,0,.29-2.89v-2.2a7.06,7.06,0,0,0-.29-2.9,2.64,2.64,0,0,0-1.16-1.2,6.44,6.44,0,0,0-2.81-.3H37.6a6.44,6.44,0,0,0-2.81.3,2.72,2.72,0,0,0-1.17,1.2,7.06,7.06,0,0,0-.29,2.9V456a7,7,0,0,0,.29,2.89,2.79,2.79,0,0,0,1.17,1.21A6.44,6.44,0,0,0,37.6,460.42ZM19.68,419.08A2.67,2.67,0,1,1,17,416.42,2.66,2.66,0,0,1,19.68,419.08Zm0,29.34A2.67,2.67,0,1,1,17,445.75,2.66,2.66,0,0,1,19.68,448.42Z"/></g><g id="SVGRepo_iconCarrier-66" data-name="SVGRepo iconCarrier"><path class="cls-2" d="M525.12,520.49v16m-8-8h16m-11.74-18h7.47a6.64,6.64,0,0,0,2.81-.29,2.75,2.75,0,0,0,1.17-1.17,6.64,6.64,0,0,0,.29-2.81v-7.47a6.64,6.64,0,0,0-.29-2.81,2.68,2.68,0,0,0-1.17-1.16,6.64,6.64,0,0,0-2.81-.29h-7.47a6.64,6.64,0,0,0-2.81.29,2.6,2.6,0,0,0-1.16,1.16,6.64,6.64,0,0,0-.29,2.81v7.47a6.64,6.64,0,0,0,.29,2.81,2.68,2.68,0,0,0,1.16,1.17A6.64,6.64,0,0,0,521.38,510.49Zm-27,0h7.47a6.64,6.64,0,0,0,2.81-.29,2.75,2.75,0,0,0,1.17-1.17,6.64,6.64,0,0,0,.29-2.81v-7.47a6.64,6.64,0,0,0-.29-2.81,2.68,2.68,0,0,0-1.17-1.16,6.64,6.64,0,0,0-2.81-.29h-7.47a6.64,6.64,0,0,0-2.81.29,2.6,2.6,0,0,0-1.16,1.16,6.64,6.64,0,0,0-.29,2.81v7.47a6.64,6.64,0,0,0,.29,2.81,2.68,2.68,0,0,0,1.16,1.17A6.64,6.64,0,0,0,494.38,510.49Zm0,26h7.47a6.64,6.64,0,0,0,2.81-.29,2.75,2.75,0,0,0,1.17-1.17,6.64,6.64,0,0,0,.29-2.81v-7.47a6.64,6.64,0,0,0-.29-2.81,2.68,2.68,0,0,0-1.17-1.16,6.64,6.64,0,0,0-2.81-.29h-7.47a6.64,6.64,0,0,0-2.81.29,2.6,2.6,0,0,0-1.16,1.16,6.64,6.64,0,0,0-.29,2.81v7.47a6.64,6.64,0,0,0,.29,2.81,2.68,2.68,0,0,0,1.16,1.17A6.64,6.64,0,0,0,494.38,536.49Z"/></g><g id="SVGRepo_iconCarrier-67" data-name="SVGRepo iconCarrier"><path class="cls-2" d="M39,449.76H37.42a.64.64,0,0,1-.28,0,.2.2,0,0,1-.11-.11.64.64,0,0,1,0-.28v-1.58m1,1.31-.14-.16-.08-.06a0,0,0,0,0,0,0l-.08.06-.26.29,0,0v0s0,0-.39,0v.24c.39.05.39.08.4.09l0,0s0,0,.09.1h.85c0-.09.07-.09.09-.1l0,0s0,0-.51-.09v-.24c.52,0,.52,0,.52,0v0l0,0-.12-.13s0,0,0,0a.09.09,0,0,0-.1,0l0,0s0,0,0,0a.09.09,0,0,1-.1,0Z"/></g><g id="SVGRepo_iconCarrier-68" data-name="SVGRepo iconCarrier"><path class="cls-2" d="M408.48,536.49a18.67,18.67,0,0,1,18.67-18.67,19.48,19.48,0,0,1,2.66.19m8-18.86a10.67,10.67,0,1,1-10.66-10.66A10.66,10.66,0,0,1,437.81,499.15Zm-6.42,37.34,5.4-1.08a5.67,5.67,0,0,0,.92-.23,2.62,2.62,0,0,0,.55-.29,5.64,5.64,0,0,0,.71-.65l11.08-11.09a3.77,3.77,0,0,0-5.33-5.33l-11.09,11.09a5.37,5.37,0,0,0-.64.7,2.94,2.94,0,0,0-.3.55,6.14,6.14,0,0,0-.22.93Z"/></g><g id="SVGRepo_iconCarrier-69" data-name="SVGRepo iconCarrier"><path class="cls-2" d="M350.4,501.49h5.46a13.5,13.5,0,1,1,.16,27H350.4m-10-27H335a13.5,13.5,0,1,0-.16,27h5.61m-6-13h22"/></g><g id="SVGRepo_iconCarrier-70" data-name="SVGRepo iconCarrier"><path class="cls-2" d="M163.85,446.62a6.25,6.25,0,0,1,.3-2.77,2.67,2.67,0,0,1,1.2-1.15,7.3,7.3,0,0,1,2.9-.28h2.2a7.3,7.3,0,0,1,2.9.28,2.78,2.78,0,0,1,1.2,1.15,6.25,6.25,0,0,1,.3,2.77v12.6a6.2,6.2,0,0,1-.3,2.76,2.72,2.72,0,0,1-1.2,1.15,7.06,7.06,0,0,1-2.9.29h-2.2a7.06,7.06,0,0,1-2.9-.29,2.62,2.62,0,0,1-1.2-1.15,6.2,6.2,0,0,1-.3-2.76Z"/><path class="cls-2" d="M182.85,420.68a6.44,6.44,0,0,1,.3-2.81,2.64,2.64,0,0,1,1.2-1.16,7.06,7.06,0,0,1,2.9-.29h2.2a7.06,7.06,0,0,1,2.9.29,2.74,2.74,0,0,1,1.2,1.16,6.44,6.44,0,0,1,.3,2.81v39.47a6.44,6.44,0,0,1-.3,2.81,2.82,2.82,0,0,1-1.2,1.17,7.06,7.06,0,0,1-2.9.29h-2.2a7.06,7.06,0,0,1-2.9-.29,2.72,2.72,0,0,1-1.2-1.17,6.44,6.44,0,0,1-.3-2.81Z"/><path class="cls-2" d="M200.85,436.68a6.44,6.44,0,0,1,.3-2.81,2.64,2.64,0,0,1,1.2-1.16,7.06,7.06,0,0,1,2.9-.29h2.2a7.06,7.06,0,0,1,2.9.29,2.74,2.74,0,0,1,1.2,1.16,6.44,6.44,0,0,1,.3,2.81v23.47a6.44,6.44,0,0,1-.3,2.81,2.82,2.82,0,0,1-1.2,1.17,7.06,7.06,0,0,1-2.9.29h-2.2a7.06,7.06,0,0,1-2.9-.29,2.72,2.72,0,0,1-1.2-1.17,6.44,6.44,0,0,1-.3-2.81Z"/></g><g id="SVGRepo_iconCarrier-71" data-name="SVGRepo iconCarrier"><path class="cls-2" d="M269,518.49v8m0-16h0m2-22H258.43c-3,0-4.44,0-5.57.58a5.26,5.26,0,0,0-2.31,2.33C250,492.54,250,494,250,497V528c0,3,0,4.49.58,5.63a5.26,5.26,0,0,0,2.31,2.33c1.13.58,2.61.58,5.57.58h20.08c3,0,4.44,0,5.57-.58a5.26,5.26,0,0,0,2.31-2.33c.58-1.14.58-2.64.58-5.63V504.49M271.3,488l16,16M271,488.49v11.73a6.64,6.64,0,0,0,.29,2.81,2.7,2.7,0,0,0,1.17,1.17,6.62,6.62,0,0,0,2.81.29H287"/></g><g id="SVGRepo_iconCarrier-72" data-name="SVGRepo iconCarrier"><path class="cls-2" d="M271,456.42h0m-7.47,8h14.93c3,0,4.48,0,5.63-.59a5.35,5.35,0,0,0,2.33-2.33c.58-1.14.58-2.63.58-5.62V425c0-3,0-4.48-.58-5.62a5.35,5.35,0,0,0-2.33-2.33c-1.15-.58-2.64-.58-5.63-.58H263.55c-3,0-4.48,0-5.62.58a5.3,5.3,0,0,0-2.33,2.33C255,420.47,255,422,255,425v30.93c0,3,0,4.48.58,5.62a5.3,5.3,0,0,0,2.33,2.33C259.07,464.42,260.56,464.42,263.55,464.42Z"/></g><g id="SVGRepo_iconCarrier-73" data-name="SVGRepo iconCarrier"><path class="cls-2" d="M446.82,456.42a14.67,14.67,0,1,0-12.75,8h17a19.88,19.88,0,0,1-4.23-7.93m-1.51-16.07a20,20,0,1,0-39.6-4,19.87,19.87,0,0,0,1.14,6.66c2.86,8-3.8,13.34-3.8,13.34h17"/></g><g id="SVGRepo_iconCarrier-74" data-name="SVGRepo iconCarrier"><path class="cls-2" d="M85.63,464l34.65-34.67,13.34,11.12m-48,24h24a24,24,0,0,0,24-23.55M85.63,464s4.16-10,2.49-13.33A24,24,0,1,1,133.63,440c0,.15,0,.3,0,.45M107,442.62l-9.33-8L86.33,445.75"/></g><g id="SVGRepo_iconCarrier-75" data-name="SVGRepo iconCarrier"><path class="cls-2" d="M567.07,429.87c0-3,0-4.44.58-5.57A5.36,5.36,0,0,1,570,422c1.14-.57,2.64-.57,5.62-.57h30.94c3,0,4.48,0,5.62.57a5.36,5.36,0,0,1,2.33,2.31c.58,1.13.58,2.61.58,5.57V450c0,3,0,4.44-.58,5.57a5.36,5.36,0,0,1-2.33,2.31c-1.14.58-2.64.58-5.62.58H575.6c-3,0-4.48,0-5.62-.58a5.36,5.36,0,0,1-2.33-2.31c-.58-1.13-.58-2.61-.58-5.57Z"/><path class="cls-2" d="M585.74,431.62l-8,8,8,8m10.66-16,8,8-8,8"/></g><g id="SVGRepo_iconCarrier-76" data-name="SVGRepo iconCarrier"><path class="cls-2" d="M332.18,432.42l-10.67,9.84,10.67,11.49m26.66-21.33,10.67,9.84-10.67,11.49m-8-32-10.66,42.67"/></g><g id="SVGRepo_iconCarrier-77" data-name="SVGRepo iconCarrier"><path class="cls-2" d="M747.22,464.42v-5a13.5,13.5,0,1,0-27-.33v5.34Zm0,0h21v-2.67a13,13,0,0,0-13.33-13.33,12.89,12.89,0,0,0-9.6,4.35M741.56,430a8,8,0,1,1-8-8A8,8,0,0,1,741.56,430Zm18.66,5.33a5.33,5.33,0,1,1-5.33-5.33A5.34,5.34,0,0,1,760.22,435.28Z"/></g><g id="SVGRepo_iconCarrier-78" data-name="SVGRepo iconCarrier"><path class="cls-3" d="M509,453.42v11m-11,0h22m-26.47-11h30.94c3,0,4.48,0,5.62-.58a5.36,5.36,0,0,0,2.33-2.31c.58-1.13.58-2.61.58-5.57V424.87c0-3,0-4.44-.58-5.57A5.36,5.36,0,0,0,530.1,417c-1.14-.57-2.64-.57-5.62-.57H493.54c-3,0-4.48,0-5.62.57a5.36,5.36,0,0,0-2.33,2.31c-.58,1.13-.58,2.61-.58,5.57V445c0,3,0,4.44.58,5.57a5.36,5.36,0,0,0,2.33,2.31C489.06,453.42,490.56,453.42,493.54,453.42Z"/></g><g id="SVGRepo_iconCarrier-79" data-name="SVGRepo iconCarrier"><path class="cls-2" d="M770.22,501.77h-8.48m8.48,10.72h-8m8,10.64h-8.48m-31-21.36h-8.48m13.36-4.8v-8.48m0,48v-8.56m10.64-31.44v-8m0,48v-8M756.86,497v-8.48m0,48v-8.56m-26.64-15.44h-8m8.48,10.64h-8.48m20.8,5.36h6.4c4.48,0,6.72,0,8.43-.87a8,8,0,0,0,3.5-3.5c.87-1.71.87-4,.87-8.43v-6.4c0-4.48,0-6.72-.87-8.43a8,8,0,0,0-3.5-3.5c-1.71-.87-4-.87-8.43-.87H743c-4.48,0-6.72,0-8.43.87a8,8,0,0,0-3.5,3.5c-.87,1.71-.87,3.95-.87,8.43v6.4c0,4.48,0,6.72.87,8.43a8,8,0,0,0,3.5,3.5C736.3,528.49,738.54,528.49,743,528.49Zm-2.16-21.36H751.5v10.64H740.86Z"/></g><g id="SVGRepo_iconCarrier-80" data-name="SVGRepo iconCarrier"><path class="cls-2" d="M664.36,449.89V423.55a7.66,7.66,0,0,1,9.52-7.42l13.53,3.38a11.82,11.82,0,0,1,9,11.47v15.74a17.7,17.7,0,0,1-18.52,17.68C670.41,464.06,664.36,457.32,664.36,449.89Zm14,14.47h-1c-13.25,0-24-8.47-24-18.92,0-6.57,4.24-12.35,10.67-15.74m16.33-.34v6"/></g><g id="SVGRepo_iconCarrier-81" data-name="SVGRepo iconCarrier"><path class="cls-2" d="M191,536.49v-5a13.5,13.5,0,1,0-27-.33v5.34Zm0,0h21v-2.67a13.16,13.16,0,0,0-22.93-9M185.31,502a8,8,0,1,1-8-8A8,8,0,0,1,185.31,502ZM204,507.35a5.34,5.34,0,1,1-5.33-5.33A5.34,5.34,0,0,1,204,507.35Z"/></g><g id="SVGRepo_iconCarrier-82" data-name="SVGRepo iconCarrier"><path class="cls-2" d="M85.63,508c0-3,0-4.45.58-5.58a5.41,5.41,0,0,1,2.33-2.31c1.15-.57,2.64-.57,5.63-.57H125.1c3,0,4.48,0,5.62.57a5.36,5.36,0,0,1,2.33,2.31c.58,1.13.58,2.61.58,5.58V528c0,3,0,4.44-.58,5.57a5.26,5.26,0,0,1-2.33,2.31c-1.14.58-2.63.58-5.62.58H94.17c-3,0-4.48,0-5.63-.58a5.31,5.31,0,0,1-2.33-2.31c-.58-1.13-.58-2.61-.58-5.57Z"/><path class="cls-2" d="M104.3,509.69l-8,8,8,8m10.67-16,8,8-8,8"/></g><g id="SVGRepo_iconCarrier-83" data-name="SVGRepo iconCarrier"><path class="cls-3" d="M33.33,525.49v11m-11,0h22m-26.46-11H48.8c3,0,4.48,0,5.62-.58a5.21,5.21,0,0,0,2.33-2.31c.58-1.13.58-2.61.58-5.57V497c0-3,0-4.45-.58-5.58a5.31,5.31,0,0,0-2.33-2.31c-1.14-.57-2.63-.57-5.62-.57H17.87c-3,0-4.48,0-5.62.57a5.31,5.31,0,0,0-2.33,2.31c-.59,1.13-.59,2.61-.59,5.58V517c0,3,0,4.44.59,5.57a5.21,5.21,0,0,0,2.33,2.31C13.39,525.49,14.88,525.49,17.87,525.49Z"/></g><g id="SVGRepo_iconCarrier-84" data-name="SVGRepo iconCarrier"><path class="cls-2" d="M25.33,593V566.7a7.66,7.66,0,0,1,9.52-7.43l13.53,3.39a11.81,11.81,0,0,1,8.95,11.46v15.74a17.7,17.7,0,0,1-18.52,17.68C31.38,607.2,25.33,600.47,25.33,593Zm14,14.47h-1c-13.25,0-24-8.48-24-18.93,0-6.56,4.24-12.34,10.67-15.74m16.33-.33v6"/></g><g id="SVGRepo_iconCarrier-85" data-name="SVGRepo iconCarrier"><path class="cls-2" d="M117.63,599.6h0m-7.47,8H125.1c3,0,4.48,0,5.62-.58a5.33,5.33,0,0,0,2.33-2.32c.58-1.13.58-2.62.58-5.59V568.31c0-3,0-4.46-.58-5.59a5.33,5.33,0,0,0-2.33-2.32c-1.14-.58-2.64-.58-5.62-.58H110.16c-3,0-4.48,0-5.62.58a5.33,5.33,0,0,0-2.33,2.32c-.58,1.13-.58,2.62-.58,5.59v30.76c0,3,0,4.46.58,5.59a5.33,5.33,0,0,0,2.33,2.32C105.68,607.56,107.18,607.56,110.16,607.56Z"/></g><g id="SVGRepo_iconCarrier-86" data-name="SVGRepo iconCarrier"><path class="cls-2" d="M212,572.84h-8.48M212,583.56h-8m8,10.64h-8.48m-31-21.36H164m13.36-4.8v-8.48m0,48V599M188,567.56v-8m0,48v-8M198.59,568v-8.48m0,48V599M172,583.56h-8m8.48,10.64H164m20.8,5.36h6.4c4.48,0,6.72,0,8.43-.87a8,8,0,0,0,3.5-3.5c.87-1.71.87-4,.87-8.43v-6.4c0-4.48,0-6.72-.87-8.43a8,8,0,0,0-3.5-3.5c-1.71-.87-4-.87-8.43-.87h-6.4c-4.48,0-6.72,0-8.43.87a8,8,0,0,0-3.5,3.5c-.87,1.71-.87,4-.87,8.43v6.4c0,4.48,0,6.72.87,8.43a8,8,0,0,0,3.5,3.5C178,599.56,180.27,599.56,184.75,599.56Zm-2.16-21.36h10.64v10.64H182.59Z"/></g><g id="SVGRepo_iconCarrier-87" data-name="SVGRepo iconCarrier"><path class="cls-2" d="M239.35,579c0-3,0-4.44.58-5.57a5.21,5.21,0,0,1,2.33-2.31c1.14-.58,2.63-.58,5.62-.58h30.93c3,0,4.48,0,5.62.58a5.21,5.21,0,0,1,2.33,2.31c.59,1.13.59,2.61.59,5.57V599.1c0,3,0,4.44-.59,5.57a5.21,5.21,0,0,1-2.33,2.31c-1.14.58-2.63.58-5.62.58H247.88c-3,0-4.48,0-5.62-.58a5.21,5.21,0,0,1-2.33-2.31c-.58-1.13-.58-2.61-.58-5.57Z"/><path class="cls-2" d="M258,580.76l-8,8,8,8m10.67-16,8,8-8,8"/></g><g id="SVGRepo_iconCarrier-88" data-name="SVGRepo iconCarrier"><path class="cls-2" d="M321.53,607.09l34.65-34.66,13.34,11.12m-48,24h24a24,24,0,0,0,24-23.55m-48,23.08s4.15-10,2.49-13.33a24,24,0,1,1,45.5-10.67v.46m-26.67,2.21-9.34-8-11.28,11.13"/></g><g id="SVGRepo_iconCarrier-89" data-name="SVGRepo iconCarrier"><path class="cls-2" d="M430.2,607.56v-5a13.5,13.5,0,1,0-27-.32v5.33Zm0,0h21v-2.67a13.16,13.16,0,0,0-22.93-9m-3.73-22.82a8,8,0,1,1-8-8A8,8,0,0,1,424.54,573.09Zm18.66,5.34a5.33,5.33,0,1,1-5.33-5.34A5.33,5.33,0,0,1,443.2,578.43Z"/></g><g id="SVGRepo_iconCarrier-90" data-name="SVGRepo iconCarrier"><path class="cls-2" d="M567.08,589.76a6.28,6.28,0,0,1,.3-2.77,2.65,2.65,0,0,1,1.2-1.14,7.06,7.06,0,0,1,2.9-.29h2.2a7.06,7.06,0,0,1,2.9.29,2.65,2.65,0,0,1,1.2,1.14,6.28,6.28,0,0,1,.3,2.77v12.6a6.25,6.25,0,0,1-.3,2.77,2.65,2.65,0,0,1-1.2,1.14,7.06,7.06,0,0,1-2.9.29h-2.2a7.06,7.06,0,0,1-2.9-.29,2.65,2.65,0,0,1-1.2-1.14,6.25,6.25,0,0,1-.3-2.77Z"/><path class="cls-2" d="M586.08,563.83a6.41,6.41,0,0,1,.3-2.81,2.66,2.66,0,0,1,1.2-1.17,7.06,7.06,0,0,1,2.9-.29h2.2a7.06,7.06,0,0,1,2.9.29,2.66,2.66,0,0,1,1.2,1.17,6.41,6.41,0,0,1,.3,2.81v39.46a6.41,6.41,0,0,1-.3,2.81,2.66,2.66,0,0,1-1.2,1.17,7.06,7.06,0,0,1-2.9.29h-2.2a7.06,7.06,0,0,1-2.9-.29,2.66,2.66,0,0,1-1.2-1.17,6.41,6.41,0,0,1-.3-2.81Z"/><path class="cls-2" d="M604.08,579.83a6.41,6.41,0,0,1,.3-2.81,2.66,2.66,0,0,1,1.2-1.17,7.06,7.06,0,0,1,2.9-.29h2.2a7.06,7.06,0,0,1,2.9.29,2.66,2.66,0,0,1,1.2,1.17,6.41,6.41,0,0,1,.3,2.81v23.46a6.41,6.41,0,0,1-.3,2.81,2.66,2.66,0,0,1-1.2,1.17,7.06,7.06,0,0,1-2.9.29h-2.2a7.06,7.06,0,0,1-2.9-.29,2.66,2.66,0,0,1-1.2-1.17,6.41,6.41,0,0,1-.3-2.81Z"/></g><g id="SVGRepo_iconCarrier-91" data-name="SVGRepo iconCarrier"><path class="cls-2" d="M659.05,575.56l-10.67,9.85,10.67,11.48m26.66-21.33,10.67,9.85-10.67,11.48m-8-32-10.66,42.67"/></g><g id="SVGRepo_iconCarrier-92" data-name="SVGRepo iconCarrier"><path class="cls-2" d="M745.56,589.56v8m0-16h0m2-22H735c-3,0-4.44,0-5.57.58a5.36,5.36,0,0,0-2.31,2.33c-.57,1.14-.57,2.64-.57,5.62V599c0,3,0,4.48.57,5.62a5.36,5.36,0,0,0,2.31,2.33c1.13.58,2.61.58,5.57.58H755.1c3,0,4.44,0,5.57-.58a5.36,5.36,0,0,0,2.31-2.33c.58-1.14.58-2.64.58-5.62V575.56m-15.67-16.47,16,16m-16.33-15.53v11.73a6.62,6.62,0,0,0,.29,2.81,2.63,2.63,0,0,0,1.16,1.17,6.64,6.64,0,0,0,2.81.29h11.74"/></g><g id="SVGRepo_iconCarrier-93" data-name="SVGRepo iconCarrier"><path class="cls-2" d="M514,575h5.46a13.5,13.5,0,1,1,.16,27H514m-10-27h-5.46a13.5,13.5,0,1,0-.16,27H504m-6-13h22"/></g><g id="SVGRepo_iconCarrier-94" data-name="SVGRepo iconCarrier"><path class="cls-2" d="M662.36,721.54l4.92,4.74,11.08-10.67m-8.47,28.88H646.37s4.16-10,2.49-13.33a24,24,0,1,1,45.3-7.48C692.68,735.17,681.47,744.49,669.89,744.49Z"/></g><g id="SVGRepo_iconCarrier-95" data-name="SVGRepo iconCarrier"><path class="cls-2" d="M589.06,713.24a5.88,5.88,0,0,0-8.39-.88,6.24,6.24,0,0,0-.95,8.72,71.52,71.52,0,0,0,6.58,6.48,5.93,5.93,0,0,0,2,1.45,2.88,2.88,0,0,0,1.54,0,6,6,0,0,0,2-1.45,71.52,71.52,0,0,0,6.58-6.48,6.19,6.19,0,0,0-.95-8.72A5.88,5.88,0,0,0,589.06,713.24Z"/><path class="cls-2" d="M613.07,720.49a24,24,0,0,1-24,24h-24s4.15-10,2.49-13.33a24,24,0,1,1,45.5-10.67Z"/></g><g id="SVGRepo_iconCarrier-96" data-name="SVGRepo iconCarrier"><path class="cls-2" d="M15.33,627.42h0M7.47,643.08a8,8,0,0,1,15.09,0m-7.23,13.34h0m-7.86,16a8,8,0,0,1,15.09,0m13-33H51.07a6.44,6.44,0,0,0,2.81-.3A2.72,2.72,0,0,0,55,637.91a7,7,0,0,0,.29-2.89v-2.2a7.06,7.06,0,0,0-.29-2.9,2.64,2.64,0,0,0-1.16-1.2,6.44,6.44,0,0,0-2.81-.3H35.6a6.44,6.44,0,0,0-2.81.3,2.72,2.72,0,0,0-1.17,1.2,7.06,7.06,0,0,0-.29,2.9V635a7,7,0,0,0,.29,2.89,2.79,2.79,0,0,0,1.17,1.21A6.44,6.44,0,0,0,35.6,639.42Zm0,29H51.07a6.44,6.44,0,0,0,2.81-.3A2.72,2.72,0,0,0,55,666.91a7,7,0,0,0,.29-2.89v-2.2a7.06,7.06,0,0,0-.29-2.9,2.64,2.64,0,0,0-1.16-1.2,6.44,6.44,0,0,0-2.81-.3H35.6a6.44,6.44,0,0,0-2.81.3,2.72,2.72,0,0,0-1.17,1.2,7.06,7.06,0,0,0-.29,2.9V664a7,7,0,0,0,.29,2.89,2.79,2.79,0,0,0,1.17,1.21A6.44,6.44,0,0,0,35.6,668.42ZM17.68,627.08A2.67,2.67,0,1,1,15,624.42,2.66,2.66,0,0,1,17.68,627.08Zm0,29.34A2.67,2.67,0,1,1,15,653.75,2.66,2.66,0,0,1,17.68,656.42Z"/></g><g id="SVGRepo_iconCarrier-97" data-name="SVGRepo iconCarrier"><path class="cls-2" d="M523.12,728.49v16m-8-8h16m-11.74-18h7.47a6.64,6.64,0,0,0,2.81-.29,2.75,2.75,0,0,0,1.17-1.17,6.64,6.64,0,0,0,.29-2.81v-7.47a6.64,6.64,0,0,0-.29-2.81,2.68,2.68,0,0,0-1.17-1.16,6.64,6.64,0,0,0-2.81-.29h-7.47a6.64,6.64,0,0,0-2.81.29,2.6,2.6,0,0,0-1.16,1.16,6.64,6.64,0,0,0-.29,2.81v7.47a6.64,6.64,0,0,0,.29,2.81,2.68,2.68,0,0,0,1.16,1.17A6.64,6.64,0,0,0,519.38,718.49Zm-27,0h7.47a6.64,6.64,0,0,0,2.81-.29,2.75,2.75,0,0,0,1.17-1.17,6.64,6.64,0,0,0,.29-2.81v-7.47a6.64,6.64,0,0,0-.29-2.81,2.68,2.68,0,0,0-1.17-1.16,6.64,6.64,0,0,0-2.81-.29h-7.47a6.64,6.64,0,0,0-2.81.29,2.6,2.6,0,0,0-1.16,1.16,6.64,6.64,0,0,0-.29,2.81v7.47a6.64,6.64,0,0,0,.29,2.81,2.68,2.68,0,0,0,1.16,1.17A6.64,6.64,0,0,0,492.38,718.49Zm0,26h7.47a6.64,6.64,0,0,0,2.81-.29,2.75,2.75,0,0,0,1.17-1.17,6.64,6.64,0,0,0,.29-2.81v-7.47a6.64,6.64,0,0,0-.29-2.81,2.68,2.68,0,0,0-1.17-1.16,6.64,6.64,0,0,0-2.81-.29h-7.47a6.64,6.64,0,0,0-2.81.29,2.6,2.6,0,0,0-1.16,1.16,6.64,6.64,0,0,0-.29,2.81v7.47a6.64,6.64,0,0,0,.29,2.81,2.68,2.68,0,0,0,1.16,1.17A6.64,6.64,0,0,0,492.38,744.49Z"/></g><g id="SVGRepo_iconCarrier-98" data-name="SVGRepo iconCarrier"><path class="cls-2" d="M37,657.76H35.42a.64.64,0,0,1-.28,0,.2.2,0,0,1-.11-.11.64.64,0,0,1,0-.28v-1.58m1,1.31-.14-.16-.08-.06h0l-.08.06-.26.29,0,0v0s0,0-.39,0v.24c.39.05.39.08.4.09l0,0s0,0,.09.1h.85c0-.09.07-.09.09-.1l0,0s0,0-.51-.09v-.24c.52,0,.52,0,.52,0v0l0,0-.12-.13,0,0a.09.09,0,0,0-.1,0l0,0,0,0a.09.09,0,0,1-.1,0Z"/></g><g id="SVGRepo_iconCarrier-99" data-name="SVGRepo iconCarrier"><path class="cls-2" d="M406.48,744.49a18.67,18.67,0,0,1,18.67-18.67,19.48,19.48,0,0,1,2.66.19m8-18.86a10.67,10.67,0,1,1-10.66-10.66A10.66,10.66,0,0,1,435.81,707.15Zm-6.42,37.34,5.4-1.08a5.67,5.67,0,0,0,.92-.23,2.62,2.62,0,0,0,.55-.29,5.64,5.64,0,0,0,.71-.65l11.08-11.09a3.77,3.77,0,0,0-5.33-5.33l-11.09,11.09a5.37,5.37,0,0,0-.64.7,2.94,2.94,0,0,0-.3.55,6.14,6.14,0,0,0-.22.93Z"/></g><g id="SVGRepo_iconCarrier-100" data-name="SVGRepo iconCarrier"><path class="cls-2" d="M348.4,709.49h5.46a13.5,13.5,0,1,1,.16,27H348.4m-10-27H333a13.5,13.5,0,1,0-.16,27h5.61m-6-13h22"/></g><g id="SVGRepo_iconCarrier-101" data-name="SVGRepo iconCarrier"><path class="cls-2" d="M161.85,654.62a6.25,6.25,0,0,1,.3-2.77,2.67,2.67,0,0,1,1.2-1.15,7.3,7.3,0,0,1,2.9-.28h2.2a7.3,7.3,0,0,1,2.9.28,2.78,2.78,0,0,1,1.2,1.15,6.25,6.25,0,0,1,.3,2.77v12.6a6.2,6.2,0,0,1-.3,2.76,2.72,2.72,0,0,1-1.2,1.15,7.06,7.06,0,0,1-2.9.29h-2.2a7.06,7.06,0,0,1-2.9-.29,2.62,2.62,0,0,1-1.2-1.15,6.2,6.2,0,0,1-.3-2.76Z"/><path class="cls-2" d="M180.85,628.68a6.44,6.44,0,0,1,.3-2.81,2.64,2.64,0,0,1,1.2-1.16,7.06,7.06,0,0,1,2.9-.29h2.2a7.06,7.06,0,0,1,2.9.29,2.74,2.74,0,0,1,1.2,1.16,6.44,6.44,0,0,1,.3,2.81v39.47a6.44,6.44,0,0,1-.3,2.81,2.82,2.82,0,0,1-1.2,1.17,7.06,7.06,0,0,1-2.9.29h-2.2a7.06,7.06,0,0,1-2.9-.29,2.72,2.72,0,0,1-1.2-1.17,6.44,6.44,0,0,1-.3-2.81Z"/><path class="cls-2" d="M198.85,644.68a6.44,6.44,0,0,1,.3-2.81,2.64,2.64,0,0,1,1.2-1.16,7.06,7.06,0,0,1,2.9-.29h2.2a7.06,7.06,0,0,1,2.9.29,2.74,2.74,0,0,1,1.2,1.16,6.44,6.44,0,0,1,.3,2.81v23.47a6.44,6.44,0,0,1-.3,2.81,2.82,2.82,0,0,1-1.2,1.17,7.06,7.06,0,0,1-2.9.29h-2.2a7.06,7.06,0,0,1-2.9-.29,2.72,2.72,0,0,1-1.2-1.17,6.44,6.44,0,0,1-.3-2.81Z"/></g><g id="SVGRepo_iconCarrier-102" data-name="SVGRepo iconCarrier"><path class="cls-2" d="M267,726.49v8m0-16h0m2-22H256.43c-3,0-4.44,0-5.57.58a5.26,5.26,0,0,0-2.31,2.33C248,700.54,248,702,248,705V736c0,3,0,4.49.58,5.63a5.26,5.26,0,0,0,2.31,2.33c1.13.58,2.61.58,5.57.58h20.08c3,0,4.44,0,5.57-.58a5.26,5.26,0,0,0,2.31-2.33c.58-1.14.58-2.64.58-5.63V712.49M269.3,696l16,16M269,696.49v11.73a6.64,6.64,0,0,0,.29,2.81,2.7,2.7,0,0,0,1.17,1.17,6.62,6.62,0,0,0,2.81.29H285"/></g><g id="SVGRepo_iconCarrier-103" data-name="SVGRepo iconCarrier"><path class="cls-2" d="M269,664.42h0m-7.47,8h14.93c3,0,4.48,0,5.63-.59a5.35,5.35,0,0,0,2.33-2.33c.58-1.14.58-2.63.58-5.62V633c0-3,0-4.48-.58-5.62a5.35,5.35,0,0,0-2.33-2.33c-1.15-.58-2.64-.58-5.63-.58H261.55c-3,0-4.48,0-5.62.58a5.3,5.3,0,0,0-2.33,2.33C253,628.47,253,630,253,633v30.93c0,3,0,4.48.58,5.62a5.3,5.3,0,0,0,2.33,2.33C257.07,672.42,258.56,672.42,261.55,672.42Z"/></g><g id="SVGRepo_iconCarrier-104" data-name="SVGRepo iconCarrier"><path class="cls-2" d="M444.82,664.42a14.67,14.67,0,1,0-12.75,8h17a19.88,19.88,0,0,1-4.23-7.93m-1.51-16.07a20,20,0,1,0-39.6-4,19.87,19.87,0,0,0,1.14,6.66c2.86,8-3.8,13.34-3.8,13.34h17"/></g><g id="SVGRepo_iconCarrier-105" data-name="SVGRepo iconCarrier"><path class="cls-2" d="M83.63,672l34.65-34.67,13.34,11.12m-48,24h24a24,24,0,0,0,24-23.55M83.63,672s4.16-10,2.49-13.33A24,24,0,1,1,131.63,648c0,.15,0,.3,0,.45M105,650.62l-9.33-8L84.33,653.75"/></g><g id="SVGRepo_iconCarrier-106" data-name="SVGRepo iconCarrier"><path class="cls-2" d="M565.07,637.87c0-3,0-4.44.58-5.57A5.36,5.36,0,0,1,568,630c1.14-.57,2.64-.57,5.62-.57h30.94c3,0,4.48,0,5.62.57a5.36,5.36,0,0,1,2.33,2.31c.58,1.13.58,2.61.58,5.57V658c0,3,0,4.44-.58,5.57a5.36,5.36,0,0,1-2.33,2.31c-1.14.58-2.64.58-5.62.58H573.6c-3,0-4.48,0-5.62-.58a5.36,5.36,0,0,1-2.33-2.31c-.58-1.13-.58-2.61-.58-5.57Z"/><path class="cls-2" d="M583.74,639.62l-8,8,8,8m10.66-16,8,8-8,8"/></g><g id="SVGRepo_iconCarrier-107" data-name="SVGRepo iconCarrier"><path class="cls-2" d="M330.18,640.42l-10.67,9.84,10.67,11.49m26.66-21.33,10.67,9.84-10.67,11.49m-8-32-10.66,42.67"/></g><g id="SVGRepo_iconCarrier-108" data-name="SVGRepo iconCarrier"><path class="cls-2" d="M745.22,672.42v-5a13.5,13.5,0,1,0-27-.33v5.34Zm0,0h21v-2.67a13,13,0,0,0-13.33-13.33,12.89,12.89,0,0,0-9.6,4.35M739.56,638a8,8,0,1,1-8-8A8,8,0,0,1,739.56,638Zm18.66,5.33a5.33,5.33,0,1,1-5.33-5.33A5.34,5.34,0,0,1,758.22,643.28Z"/></g><g id="SVGRepo_iconCarrier-109" data-name="SVGRepo iconCarrier"><path class="cls-3" d="M507,661.42v11m-11,0h22m-26.47-11h30.94c3,0,4.48,0,5.62-.58a5.36,5.36,0,0,0,2.33-2.31c.58-1.13.58-2.61.58-5.57V632.87c0-3,0-4.44-.58-5.57A5.36,5.36,0,0,0,528.1,625c-1.14-.57-2.64-.57-5.62-.57H491.54c-3,0-4.48,0-5.62.57a5.36,5.36,0,0,0-2.33,2.31c-.58,1.13-.58,2.61-.58,5.57V653c0,3,0,4.44.58,5.57a5.36,5.36,0,0,0,2.33,2.31C487.06,661.42,488.56,661.42,491.54,661.42Z"/></g><g id="SVGRepo_iconCarrier-110" data-name="SVGRepo iconCarrier"><path class="cls-2" d="M768.22,709.77h-8.48m8.48,10.72h-8m8,10.64h-8.48m-31-21.36h-8.48m13.36-4.8v-8.48m0,48v-8.56m10.64-31.44v-8m0,48v-8M754.86,705v-8.48m0,48v-8.56m-26.64-15.44h-8m8.48,10.64h-8.48m20.8,5.36h6.4c4.48,0,6.72,0,8.43-.87a8,8,0,0,0,3.5-3.5c.87-1.71.87-4,.87-8.43v-6.4c0-4.48,0-6.72-.87-8.43a8,8,0,0,0-3.5-3.5c-1.71-.87-4-.87-8.43-.87H741c-4.48,0-6.72,0-8.43.87a8,8,0,0,0-3.5,3.5c-.87,1.71-.87,3.95-.87,8.43v6.4c0,4.48,0,6.72.87,8.43a8,8,0,0,0,3.5,3.5C734.3,736.49,736.54,736.49,741,736.49Zm-2.16-21.36H749.5v10.64H738.86Z"/></g><g id="SVGRepo_iconCarrier-111" data-name="SVGRepo iconCarrier"><path class="cls-2" d="M662.36,657.89V631.55a7.66,7.66,0,0,1,9.52-7.42l13.53,3.38a11.82,11.82,0,0,1,9,11.47v15.74a17.7,17.7,0,0,1-18.52,17.68C668.41,672.06,662.36,665.32,662.36,657.89Zm14,14.47h-1c-13.25,0-24-8.47-24-18.92,0-6.57,4.24-12.35,10.67-15.74m16.33-.34v6"/></g><g id="SVGRepo_iconCarrier-112" data-name="SVGRepo iconCarrier"><path class="cls-2" d="M189,744.49v-5a13.5,13.5,0,1,0-27-.33v5.34Zm0,0h21v-2.67a13.16,13.16,0,0,0-22.93-9M183.31,710a8,8,0,1,1-8-8A8,8,0,0,1,183.31,710ZM202,715.35a5.34,5.34,0,1,1-5.33-5.33A5.34,5.34,0,0,1,202,715.35Z"/></g><g id="SVGRepo_iconCarrier-113" data-name="SVGRepo iconCarrier"><path class="cls-2" d="M83.63,716c0-3,0-4.45.58-5.58a5.41,5.41,0,0,1,2.33-2.31c1.15-.57,2.64-.57,5.63-.57H123.1c3,0,4.48,0,5.62.57a5.36,5.36,0,0,1,2.33,2.31c.58,1.13.58,2.61.58,5.58V736c0,3,0,4.44-.58,5.57a5.26,5.26,0,0,1-2.33,2.31c-1.14.58-2.63.58-5.62.58H92.17c-3,0-4.48,0-5.63-.58a5.31,5.31,0,0,1-2.33-2.31c-.58-1.13-.58-2.61-.58-5.57Z"/><path class="cls-2" d="M102.3,717.69l-8,8,8,8m10.67-16,8,8-8,8"/></g><g id="SVGRepo_iconCarrier-114" data-name="SVGRepo iconCarrier"><path class="cls-3" d="M31.33,733.49v11m-11,0h22m-26.46-11H46.8c3,0,4.48,0,5.62-.58a5.21,5.21,0,0,0,2.33-2.31c.58-1.13.58-2.61.58-5.57V705c0-3,0-4.45-.58-5.58a5.31,5.31,0,0,0-2.33-2.31c-1.14-.57-2.63-.57-5.62-.57H15.87c-3,0-4.48,0-5.62.57a5.31,5.31,0,0,0-2.33,2.31c-.59,1.13-.59,2.61-.59,5.58V725c0,3,0,4.44.59,5.57a5.21,5.21,0,0,0,2.33,2.31C11.39,733.49,12.88,733.49,15.87,733.49Z"/></g><g id="SVGRepo_iconCarrier-115" data-name="SVGRepo iconCarrier"><path class="cls-2" d="M23.33,801V774.7a7.66,7.66,0,0,1,9.52-7.43l13.53,3.39a11.81,11.81,0,0,1,8.95,11.46v15.74a17.7,17.7,0,0,1-18.52,17.68C29.38,815.2,23.33,808.47,23.33,801Zm14,14.47h-1c-13.25,0-24-8.48-24-18.93,0-6.56,4.24-12.34,10.67-15.74m16.33-.33v6"/></g><g id="SVGRepo_iconCarrier-116" data-name="SVGRepo iconCarrier"><path class="cls-2" d="M115.63,807.6h0m-7.47,8H123.1c3,0,4.48,0,5.62-.58a5.33,5.33,0,0,0,2.33-2.32c.58-1.13.58-2.62.58-5.59V776.31c0-3,0-4.46-.58-5.59a5.33,5.33,0,0,0-2.33-2.32c-1.14-.58-2.64-.58-5.62-.58H108.16c-3,0-4.48,0-5.62.58a5.33,5.33,0,0,0-2.33,2.32c-.58,1.13-.58,2.62-.58,5.59v30.76c0,3,0,4.46.58,5.59a5.33,5.33,0,0,0,2.33,2.32C103.68,815.56,105.18,815.56,108.16,815.56Z"/></g><g id="SVGRepo_iconCarrier-117" data-name="SVGRepo iconCarrier"><path class="cls-2" d="M210,780.84h-8.48M210,791.56h-8m8,10.64h-8.48m-31-21.36H162m13.36-4.8v-8.48m0,48V807M186,775.56v-8m0,48v-8M196.59,776v-8.48m0,48V807M170,791.56h-8m8.48,10.64H162m20.8,5.36h6.4c4.48,0,6.72,0,8.43-.87a8,8,0,0,0,3.5-3.5c.87-1.71.87-4,.87-8.43v-6.4c0-4.48,0-6.72-.87-8.43a8,8,0,0,0-3.5-3.5c-1.71-.87-4-.87-8.43-.87h-6.4c-4.48,0-6.72,0-8.43.87a8,8,0,0,0-3.5,3.5c-.87,1.71-.87,4-.87,8.43v6.4c0,4.48,0,6.72.87,8.43a8,8,0,0,0,3.5,3.5C176,807.56,178.27,807.56,182.75,807.56Zm-2.16-21.36h10.64v10.64H180.59Z"/></g><g id="SVGRepo_iconCarrier-118" data-name="SVGRepo iconCarrier"><path class="cls-2" d="M237.35,787c0-3,0-4.44.58-5.57a5.21,5.21,0,0,1,2.33-2.31c1.14-.58,2.63-.58,5.62-.58h30.93c3,0,4.48,0,5.62.58a5.21,5.21,0,0,1,2.33,2.31c.59,1.13.59,2.61.59,5.57V807.1c0,3,0,4.44-.59,5.57a5.21,5.21,0,0,1-2.33,2.31c-1.14.58-2.63.58-5.62.58H245.88c-3,0-4.48,0-5.62-.58a5.21,5.21,0,0,1-2.33-2.31c-.58-1.13-.58-2.61-.58-5.57Z"/><path class="cls-2" d="M256,788.76l-8,8,8,8m10.67-16,8,8-8,8"/></g><g id="SVGRepo_iconCarrier-119" data-name="SVGRepo iconCarrier"><path class="cls-2" d="M319.53,815.09l34.65-34.66,13.34,11.12m-48,24h24a24,24,0,0,0,24-23.55m-48,23.08s4.15-10,2.49-13.33a24,24,0,1,1,45.5-10.67v.46m-26.67,2.21-9.34-8-11.28,11.13"/></g><g id="SVGRepo_iconCarrier-120" data-name="SVGRepo iconCarrier"><path class="cls-2" d="M428.2,815.56v-5a13.5,13.5,0,1,0-27-.32v5.33Zm0,0h21v-2.67a13.16,13.16,0,0,0-22.93-9m-3.73-22.82a8,8,0,1,1-8-8A8,8,0,0,1,422.54,781.09Zm18.66,5.34a5.33,5.33,0,1,1-5.33-5.34A5.33,5.33,0,0,1,441.2,786.43Z"/></g><g id="SVGRepo_iconCarrier-121" data-name="SVGRepo iconCarrier"><path class="cls-2" d="M565.08,797.76a6.28,6.28,0,0,1,.3-2.77,2.65,2.65,0,0,1,1.2-1.14,7.06,7.06,0,0,1,2.9-.29h2.2a7.06,7.06,0,0,1,2.9.29,2.65,2.65,0,0,1,1.2,1.14,6.28,6.28,0,0,1,.3,2.77v12.6a6.25,6.25,0,0,1-.3,2.77,2.65,2.65,0,0,1-1.2,1.14,7.06,7.06,0,0,1-2.9.29h-2.2a7.06,7.06,0,0,1-2.9-.29,2.65,2.65,0,0,1-1.2-1.14,6.25,6.25,0,0,1-.3-2.77Z"/><path class="cls-2" d="M584.08,771.83a6.41,6.41,0,0,1,.3-2.81,2.66,2.66,0,0,1,1.2-1.17,7.06,7.06,0,0,1,2.9-.29h2.2a7.06,7.06,0,0,1,2.9.29,2.66,2.66,0,0,1,1.2,1.17,6.41,6.41,0,0,1,.3,2.81v39.46a6.41,6.41,0,0,1-.3,2.81,2.66,2.66,0,0,1-1.2,1.17,7.06,7.06,0,0,1-2.9.29h-2.2a7.06,7.06,0,0,1-2.9-.29,2.66,2.66,0,0,1-1.2-1.17,6.41,6.41,0,0,1-.3-2.81Z"/><path class="cls-2" d="M602.08,787.83a6.41,6.41,0,0,1,.3-2.81,2.66,2.66,0,0,1,1.2-1.17,7.06,7.06,0,0,1,2.9-.29h2.2a7.06,7.06,0,0,1,2.9.29,2.66,2.66,0,0,1,1.2,1.17,6.41,6.41,0,0,1,.3,2.81v23.46a6.41,6.41,0,0,1-.3,2.81,2.66,2.66,0,0,1-1.2,1.17,7.06,7.06,0,0,1-2.9.29h-2.2a7.06,7.06,0,0,1-2.9-.29,2.66,2.66,0,0,1-1.2-1.17,6.41,6.41,0,0,1-.3-2.81Z"/></g><g id="SVGRepo_iconCarrier-122" data-name="SVGRepo iconCarrier"><path class="cls-2" d="M657.05,783.56l-10.67,9.85,10.67,11.48m26.66-21.33,10.67,9.85-10.67,11.48m-8-32-10.66,42.67"/></g><g id="SVGRepo_iconCarrier-123" data-name="SVGRepo iconCarrier"><path class="cls-2" d="M743.56,797.56v8m0-16h0m2-22H733c-3,0-4.44,0-5.57.58a5.36,5.36,0,0,0-2.31,2.33c-.57,1.14-.57,2.64-.57,5.62V807c0,3,0,4.48.57,5.62a5.36,5.36,0,0,0,2.31,2.33c1.13.58,2.61.58,5.57.58H753.1c3,0,4.44,0,5.57-.58a5.36,5.36,0,0,0,2.31-2.33c.58-1.14.58-2.64.58-5.62V783.56m-15.67-16.47,16,16m-16.33-15.53v11.73a6.62,6.62,0,0,0,.29,2.81,2.63,2.63,0,0,0,1.16,1.17,6.64,6.64,0,0,0,2.81.29h11.74"/></g><g id="SVGRepo_iconCarrier-124" data-name="SVGRepo iconCarrier"><path class="cls-2" d="M512,783h5.46a13.5,13.5,0,1,1,.16,27H512m-10-27h-5.46a13.5,13.5,0,1,0-.16,27H502m-6-13h22"/></g><g id="SVGRepo_iconCarrier-125" data-name="SVGRepo iconCarrier"><path class="cls-2" d="M664.36,929.54l4.92,4.74,11.08-10.67m-8.47,28.88H648.37s4.16-10,2.49-13.33a24,24,0,1,1,45.3-7.48C694.68,943.17,683.47,952.49,671.89,952.49Z"/></g><g id="SVGRepo_iconCarrier-126" data-name="SVGRepo iconCarrier"><path class="cls-2" d="M591.06,921.24a5.88,5.88,0,0,0-8.39-.88,6.24,6.24,0,0,0-.95,8.72,71.52,71.52,0,0,0,6.58,6.48,5.93,5.93,0,0,0,2,1.45,2.88,2.88,0,0,0,1.54,0,6,6,0,0,0,2-1.45,71.52,71.52,0,0,0,6.58-6.48,6.19,6.19,0,0,0-.95-8.72A5.88,5.88,0,0,0,591.06,921.24Z"/><path class="cls-2" d="M615.07,928.49a24,24,0,0,1-24,24h-24s4.15-10,2.49-13.33a24,24,0,1,1,45.5-10.67Z"/></g><g id="SVGRepo_iconCarrier-127" data-name="SVGRepo iconCarrier"><path class="cls-2" d="M17.33,835.42h0M9.47,851.08a8,8,0,0,1,15.09,0m-7.23,13.34h0m-7.86,16a8,8,0,0,1,15.09,0m13-33H53.07a6.44,6.44,0,0,0,2.81-.3A2.72,2.72,0,0,0,57,845.91a7,7,0,0,0,.29-2.89v-2.2a7.06,7.06,0,0,0-.29-2.9,2.64,2.64,0,0,0-1.16-1.2,6.44,6.44,0,0,0-2.81-.3H37.6a6.44,6.44,0,0,0-2.81.3,2.72,2.72,0,0,0-1.17,1.2,7.06,7.06,0,0,0-.29,2.9V843a7,7,0,0,0,.29,2.89,2.79,2.79,0,0,0,1.17,1.21A6.44,6.44,0,0,0,37.6,847.42Zm0,29H53.07a6.44,6.44,0,0,0,2.81-.3A2.72,2.72,0,0,0,57,874.91a7,7,0,0,0,.29-2.89v-2.2a7.06,7.06,0,0,0-.29-2.9,2.64,2.64,0,0,0-1.16-1.2,6.44,6.44,0,0,0-2.81-.3H37.6a6.44,6.44,0,0,0-2.81.3,2.72,2.72,0,0,0-1.17,1.2,7.06,7.06,0,0,0-.29,2.9V872a7,7,0,0,0,.29,2.89,2.79,2.79,0,0,0,1.17,1.21A6.44,6.44,0,0,0,37.6,876.42ZM19.68,835.08A2.67,2.67,0,1,1,17,832.42,2.66,2.66,0,0,1,19.68,835.08Zm0,29.34A2.67,2.67,0,1,1,17,861.75,2.66,2.66,0,0,1,19.68,864.42Z"/></g><g id="SVGRepo_iconCarrier-128" data-name="SVGRepo iconCarrier"><path class="cls-2" d="M525.12,936.49v16m-8-8h16m-11.74-18h7.47a6.64,6.64,0,0,0,2.81-.29,2.75,2.75,0,0,0,1.17-1.17,6.64,6.64,0,0,0,.29-2.81v-7.47a6.64,6.64,0,0,0-.29-2.81,2.68,2.68,0,0,0-1.17-1.16,6.64,6.64,0,0,0-2.81-.29h-7.47a6.64,6.64,0,0,0-2.81.29,2.6,2.6,0,0,0-1.16,1.16,6.64,6.64,0,0,0-.29,2.81v7.47a6.64,6.64,0,0,0,.29,2.81,2.68,2.68,0,0,0,1.16,1.17A6.64,6.64,0,0,0,521.38,926.49Zm-27,0h7.47a6.64,6.64,0,0,0,2.81-.29,2.75,2.75,0,0,0,1.17-1.17,6.64,6.64,0,0,0,.29-2.81v-7.47a6.64,6.64,0,0,0-.29-2.81,2.68,2.68,0,0,0-1.17-1.16,6.64,6.64,0,0,0-2.81-.29h-7.47a6.64,6.64,0,0,0-2.81.29,2.6,2.6,0,0,0-1.16,1.16,6.64,6.64,0,0,0-.29,2.81v7.47a6.64,6.64,0,0,0,.29,2.81,2.68,2.68,0,0,0,1.16,1.17A6.64,6.64,0,0,0,494.38,926.49Zm0,26h7.47a6.64,6.64,0,0,0,2.81-.29,2.75,2.75,0,0,0,1.17-1.17,6.64,6.64,0,0,0,.29-2.81v-7.47a6.64,6.64,0,0,0-.29-2.81,2.68,2.68,0,0,0-1.17-1.16,6.64,6.64,0,0,0-2.81-.29h-7.47a6.64,6.64,0,0,0-2.81.29,2.6,2.6,0,0,0-1.16,1.16,6.64,6.64,0,0,0-.29,2.81v7.47a6.64,6.64,0,0,0,.29,2.81,2.68,2.68,0,0,0,1.16,1.17A6.64,6.64,0,0,0,494.38,952.49Z"/></g><g id="SVGRepo_iconCarrier-129" data-name="SVGRepo iconCarrier"><path class="cls-2" d="M39,865.76H37.42a.64.64,0,0,1-.28,0,.2.2,0,0,1-.11-.11.64.64,0,0,1,0-.28v-1.58m1,1.31-.14-.16-.08-.06h0l-.08.06-.26.29,0,0v0s0,0-.39,0v.24c.39.05.39.08.4.09l0,0s0,0,.09.1h.85c0-.09.07-.09.09-.1l0,0s0,0-.51-.09v-.24c.52,0,.52,0,.52,0v0l0,0-.12-.13,0,0a.09.09,0,0,0-.1,0l0,0,0,0a.09.09,0,0,1-.1,0Z"/></g><g id="SVGRepo_iconCarrier-130" data-name="SVGRepo iconCarrier"><path class="cls-2" d="M408.48,952.49a18.67,18.67,0,0,1,18.67-18.67,19.48,19.48,0,0,1,2.66.19m8-18.86a10.67,10.67,0,1,1-10.66-10.66A10.66,10.66,0,0,1,437.81,915.15Zm-6.42,37.34,5.4-1.08a5.67,5.67,0,0,0,.92-.23,2.62,2.62,0,0,0,.55-.29,5.64,5.64,0,0,0,.71-.65l11.08-11.09a3.77,3.77,0,0,0-5.33-5.33l-11.09,11.09a5.37,5.37,0,0,0-.64.7,2.94,2.94,0,0,0-.3.55,6.14,6.14,0,0,0-.22.93Z"/></g><g id="SVGRepo_iconCarrier-131" data-name="SVGRepo iconCarrier"><path class="cls-2" d="M350.4,917.49h5.46a13.5,13.5,0,1,1,.16,27H350.4m-10-27H335a13.5,13.5,0,1,0-.16,27h5.61m-6-13h22"/></g><g id="SVGRepo_iconCarrier-132" data-name="SVGRepo iconCarrier"><path class="cls-2" d="M163.85,862.62a6.25,6.25,0,0,1,.3-2.77,2.67,2.67,0,0,1,1.2-1.15,7.3,7.3,0,0,1,2.9-.28h2.2a7.3,7.3,0,0,1,2.9.28,2.78,2.78,0,0,1,1.2,1.15,6.25,6.25,0,0,1,.3,2.77v12.6a6.2,6.2,0,0,1-.3,2.76,2.72,2.72,0,0,1-1.2,1.15,7.06,7.06,0,0,1-2.9.29h-2.2a7.06,7.06,0,0,1-2.9-.29,2.62,2.62,0,0,1-1.2-1.15,6.2,6.2,0,0,1-.3-2.76Z"/><path class="cls-2" d="M182.85,836.68a6.44,6.44,0,0,1,.3-2.81,2.64,2.64,0,0,1,1.2-1.16,7.06,7.06,0,0,1,2.9-.29h2.2a7.06,7.06,0,0,1,2.9.29,2.74,2.74,0,0,1,1.2,1.16,6.44,6.44,0,0,1,.3,2.81v39.47a6.44,6.44,0,0,1-.3,2.81,2.82,2.82,0,0,1-1.2,1.17,7.06,7.06,0,0,1-2.9.29h-2.2a7.06,7.06,0,0,1-2.9-.29,2.72,2.72,0,0,1-1.2-1.17,6.44,6.44,0,0,1-.3-2.81Z"/><path class="cls-2" d="M200.85,852.68a6.44,6.44,0,0,1,.3-2.81,2.64,2.64,0,0,1,1.2-1.16,7.06,7.06,0,0,1,2.9-.29h2.2a7.06,7.06,0,0,1,2.9.29,2.74,2.74,0,0,1,1.2,1.16,6.44,6.44,0,0,1,.3,2.81v23.47a6.44,6.44,0,0,1-.3,2.81,2.82,2.82,0,0,1-1.2,1.17,7.06,7.06,0,0,1-2.9.29h-2.2a7.06,7.06,0,0,1-2.9-.29,2.72,2.72,0,0,1-1.2-1.17,6.44,6.44,0,0,1-.3-2.81Z"/></g><g id="SVGRepo_iconCarrier-133" data-name="SVGRepo iconCarrier"><path class="cls-2" d="M269,934.49v8m0-16h0m2-22H258.43c-3,0-4.44,0-5.57.58a5.26,5.26,0,0,0-2.31,2.33C250,908.54,250,910,250,913V944c0,3,0,4.49.58,5.63a5.26,5.26,0,0,0,2.31,2.33c1.13.58,2.61.58,5.57.58h20.08c3,0,4.44,0,5.57-.58a5.26,5.26,0,0,0,2.31-2.33c.58-1.14.58-2.64.58-5.63V920.49M271.3,904l16,16M271,904.49v11.73a6.64,6.64,0,0,0,.29,2.81,2.7,2.7,0,0,0,1.17,1.17,6.62,6.62,0,0,0,2.81.29H287"/></g><g id="SVGRepo_iconCarrier-134" data-name="SVGRepo iconCarrier"><path class="cls-2" d="M271,872.42h0m-7.47,8h14.93c3,0,4.48,0,5.63-.59a5.35,5.35,0,0,0,2.33-2.33c.58-1.14.58-2.63.58-5.62V841c0-3,0-4.48-.58-5.62a5.35,5.35,0,0,0-2.33-2.33c-1.15-.58-2.64-.58-5.63-.58H263.55c-3,0-4.48,0-5.62.58a5.3,5.3,0,0,0-2.33,2.33C255,836.47,255,838,255,841v30.93c0,3,0,4.48.58,5.62a5.3,5.3,0,0,0,2.33,2.33C259.07,880.42,260.56,880.42,263.55,880.42Z"/></g><g id="SVGRepo_iconCarrier-135" data-name="SVGRepo iconCarrier"><path class="cls-2" d="M446.82,872.42a14.67,14.67,0,1,0-12.75,8h17a19.88,19.88,0,0,1-4.23-7.93m-1.51-16.07a20,20,0,1,0-39.6-4,19.87,19.87,0,0,0,1.14,6.66c2.86,8-3.8,13.34-3.8,13.34h17"/></g><g id="SVGRepo_iconCarrier-136" data-name="SVGRepo iconCarrier"><path class="cls-2" d="M85.63,880l34.65-34.67,13.34,11.12m-48,24h24a24,24,0,0,0,24-23.55M85.63,880s4.16-10,2.49-13.33A24,24,0,1,1,133.63,856c0,.15,0,.3,0,.45M107,858.62l-9.33-8L86.33,861.75"/></g><g id="SVGRepo_iconCarrier-137" data-name="SVGRepo iconCarrier"><path class="cls-2" d="M567.07,845.87c0-3,0-4.44.58-5.57A5.36,5.36,0,0,1,570,838c1.14-.57,2.64-.57,5.62-.57h30.94c3,0,4.48,0,5.62.57a5.36,5.36,0,0,1,2.33,2.31c.58,1.13.58,2.61.58,5.57V866c0,3,0,4.44-.58,5.57a5.36,5.36,0,0,1-2.33,2.31c-1.14.58-2.64.58-5.62.58H575.6c-3,0-4.48,0-5.62-.58a5.36,5.36,0,0,1-2.33-2.31c-.58-1.13-.58-2.61-.58-5.57Z"/><path class="cls-2" d="M585.74,847.62l-8,8,8,8m10.66-16,8,8-8,8"/></g><g id="SVGRepo_iconCarrier-138" data-name="SVGRepo iconCarrier"><path class="cls-2" d="M332.18,848.42l-10.67,9.84,10.67,11.49m26.66-21.33,10.67,9.84-10.67,11.49m-8-32-10.66,42.67"/></g><g id="SVGRepo_iconCarrier-139" data-name="SVGRepo iconCarrier"><path class="cls-2" d="M747.22,880.42v-5a13.5,13.5,0,1,0-27-.33v5.34Zm0,0h21v-2.67a13,13,0,0,0-13.33-13.33,12.89,12.89,0,0,0-9.6,4.35M741.56,846a8,8,0,1,1-8-8A8,8,0,0,1,741.56,846Zm18.66,5.33a5.33,5.33,0,1,1-5.33-5.33A5.34,5.34,0,0,1,760.22,851.28Z"/></g><g id="SVGRepo_iconCarrier-140" data-name="SVGRepo iconCarrier"><path class="cls-3" d="M509,869.42v11m-11,0h22m-26.47-11h30.94c3,0,4.48,0,5.62-.58a5.36,5.36,0,0,0,2.33-2.31c.58-1.13.58-2.61.58-5.57V840.87c0-3,0-4.44-.58-5.57A5.36,5.36,0,0,0,530.1,833c-1.14-.57-2.64-.57-5.62-.57H493.54c-3,0-4.48,0-5.62.57a5.36,5.36,0,0,0-2.33,2.31c-.58,1.13-.58,2.61-.58,5.57V861c0,3,0,4.44.58,5.57a5.36,5.36,0,0,0,2.33,2.31C489.06,869.42,490.56,869.42,493.54,869.42Z"/></g><g id="SVGRepo_iconCarrier-141" data-name="SVGRepo iconCarrier"><path class="cls-2" d="M770.22,917.77h-8.48m8.48,10.72h-8m8,10.64h-8.48m-31-21.36h-8.48m13.36-4.8v-8.48m0,48v-8.56m10.64-31.44v-8m0,48v-8M756.86,913v-8.48m0,48v-8.56m-26.64-15.44h-8m8.48,10.64h-8.48m20.8,5.36h6.4c4.48,0,6.72,0,8.43-.87a8,8,0,0,0,3.5-3.5c.87-1.71.87-4,.87-8.43v-6.4c0-4.48,0-6.72-.87-8.43a8,8,0,0,0-3.5-3.5c-1.71-.87-4-.87-8.43-.87H743c-4.48,0-6.72,0-8.43.87a8,8,0,0,0-3.5,3.5c-.87,1.71-.87,3.95-.87,8.43v6.4c0,4.48,0,6.72.87,8.43a8,8,0,0,0,3.5,3.5C736.3,944.49,738.54,944.49,743,944.49Zm-2.16-21.36H751.5v10.64H740.86Z"/></g><g id="SVGRepo_iconCarrier-142" data-name="SVGRepo iconCarrier"><path class="cls-2" d="M664.36,865.89V839.55a7.66,7.66,0,0,1,9.52-7.42l13.53,3.38a11.82,11.82,0,0,1,9,11.47v15.74a17.7,17.7,0,0,1-18.52,17.68C670.41,880.06,664.36,873.32,664.36,865.89Zm14,14.47h-1c-13.25,0-24-8.47-24-18.92,0-6.57,4.24-12.35,10.67-15.74m16.33-.34v6"/></g><g id="SVGRepo_iconCarrier-143" data-name="SVGRepo iconCarrier"><path class="cls-2" d="M191,952.49v-5a13.5,13.5,0,1,0-27-.33v5.34Zm0,0h21v-2.67a13.16,13.16,0,0,0-22.93-9M185.31,918a8,8,0,1,1-8-8A8,8,0,0,1,185.31,918ZM204,923.35a5.34,5.34,0,1,1-5.33-5.33A5.34,5.34,0,0,1,204,923.35Z"/></g><g id="SVGRepo_iconCarrier-144" data-name="SVGRepo iconCarrier"><path class="cls-2" d="M85.63,924c0-3,0-4.45.58-5.58a5.41,5.41,0,0,1,2.33-2.31c1.15-.57,2.64-.57,5.63-.57H125.1c3,0,4.48,0,5.62.57a5.36,5.36,0,0,1,2.33,2.31c.58,1.13.58,2.61.58,5.58V944c0,3,0,4.44-.58,5.57a5.26,5.26,0,0,1-2.33,2.31c-1.14.58-2.63.58-5.62.58H94.17c-3,0-4.48,0-5.63-.58a5.31,5.31,0,0,1-2.33-2.31c-.58-1.13-.58-2.61-.58-5.57Z"/><path class="cls-2" d="M104.3,925.69l-8,8,8,8m10.67-16,8,8-8,8"/></g><g id="SVGRepo_iconCarrier-145" data-name="SVGRepo iconCarrier"><path class="cls-3" d="M33.33,941.49v11m-11,0h22m-26.46-11H48.8c3,0,4.48,0,5.62-.58a5.21,5.21,0,0,0,2.33-2.31c.58-1.13.58-2.61.58-5.57V913c0-3,0-4.45-.58-5.58a5.31,5.31,0,0,0-2.33-2.31c-1.14-.57-2.63-.57-5.62-.57H17.87c-3,0-4.48,0-5.62.57a5.31,5.31,0,0,0-2.33,2.31c-.59,1.13-.59,2.61-.59,5.58V933c0,3,0,4.44.59,5.57a5.21,5.21,0,0,0,2.33,2.31C13.39,941.49,14.88,941.49,17.87,941.49Z"/></g><g id="SVGRepo_iconCarrier-146" data-name="SVGRepo iconCarrier"><path class="cls-2" d="M25.33,1009V982.7a7.66,7.66,0,0,1,9.52-7.43l13.53,3.39a11.81,11.81,0,0,1,8.95,11.46v15.74a17.7,17.7,0,0,1-18.52,17.68C31.38,1023.2,25.33,1016.47,25.33,1009Zm14,14.47h-1c-13.25,0-24-8.48-24-18.93,0-6.56,4.24-12.34,10.67-15.74m16.33-.33v6"/></g><g id="SVGRepo_iconCarrier-147" data-name="SVGRepo iconCarrier"><path class="cls-2" d="M117.63,1015.6h0m-7.47,8H125.1c3,0,4.48,0,5.62-.58a5.33,5.33,0,0,0,2.33-2.32c.58-1.13.58-2.62.58-5.59V984.31c0-3,0-4.46-.58-5.59a5.33,5.33,0,0,0-2.33-2.32c-1.14-.58-2.64-.58-5.62-.58H110.16c-3,0-4.48,0-5.62.58a5.33,5.33,0,0,0-2.33,2.32c-.58,1.13-.58,2.62-.58,5.59v30.76c0,3,0,4.46.58,5.59a5.33,5.33,0,0,0,2.33,2.32C105.68,1023.56,107.18,1023.56,110.16,1023.56Z"/></g><g id="SVGRepo_iconCarrier-148" data-name="SVGRepo iconCarrier"><path class="cls-2" d="M212,988.84h-8.48M212,999.56h-8m8,10.64h-8.48m-31-21.36H164m13.36-4.8v-8.48m0,48V1015M188,983.56v-8m0,48v-8M198.59,984v-8.48m0,48V1015M172,999.56h-8m8.48,10.64H164m20.8,5.36h6.4c4.48,0,6.72,0,8.43-.87a8,8,0,0,0,3.5-3.5c.87-1.71.87-4,.87-8.43v-6.4c0-4.48,0-6.72-.87-8.43a8,8,0,0,0-3.5-3.5c-1.71-.87-4-.87-8.43-.87h-6.4c-4.48,0-6.72,0-8.43.87a8,8,0,0,0-3.5,3.5c-.87,1.71-.87,4-.87,8.43v6.4c0,4.48,0,6.72.87,8.43a8,8,0,0,0,3.5,3.5C178,1015.56,180.27,1015.56,184.75,1015.56Zm-2.16-21.36h10.64v10.64H182.59Z"/></g><g id="SVGRepo_iconCarrier-149" data-name="SVGRepo iconCarrier"><path class="cls-2" d="M239.35,995c0-3,0-4.44.58-5.57a5.21,5.21,0,0,1,2.33-2.31c1.14-.58,2.63-.58,5.62-.58h30.93c3,0,4.48,0,5.62.58a5.21,5.21,0,0,1,2.33,2.31c.59,1.13.59,2.61.59,5.57v20.08c0,3,0,4.44-.59,5.57a5.21,5.21,0,0,1-2.33,2.31c-1.14.58-2.63.58-5.62.58H247.88c-3,0-4.48,0-5.62-.58a5.21,5.21,0,0,1-2.33-2.31c-.58-1.13-.58-2.61-.58-5.57Z"/><path class="cls-2" d="M258,996.76l-8,8,8,8m10.67-16,8,8-8,8"/></g><g id="SVGRepo_iconCarrier-150" data-name="SVGRepo iconCarrier"><path class="cls-2" d="M321.53,1023.09l34.65-34.66,13.34,11.12m-48,24h24a24,24,0,0,0,24-23.55m-48,23.08s4.15-10,2.49-13.33a24,24,0,1,1,45.5-10.67v.46m-26.67,2.21-9.34-8-11.28,11.13"/></g><g id="SVGRepo_iconCarrier-151" data-name="SVGRepo iconCarrier"><path class="cls-2" d="M430.2,1023.56v-5a13.5,13.5,0,1,0-27-.32v5.33Zm0,0h21v-2.67a13.16,13.16,0,0,0-22.93-9m-3.73-22.82a8,8,0,1,1-8-8A8,8,0,0,1,424.54,989.09Zm18.66,5.34a5.33,5.33,0,1,1-5.33-5.34A5.33,5.33,0,0,1,443.2,994.43Z"/></g><g id="SVGRepo_iconCarrier-152" data-name="SVGRepo iconCarrier"><path class="cls-2" d="M567.08,1005.76a6.28,6.28,0,0,1,.3-2.77,2.65,2.65,0,0,1,1.2-1.14,7.06,7.06,0,0,1,2.9-.29h2.2a7.06,7.06,0,0,1,2.9.29,2.65,2.65,0,0,1,1.2,1.14,6.28,6.28,0,0,1,.3,2.77v12.6a6.25,6.25,0,0,1-.3,2.77,2.65,2.65,0,0,1-1.2,1.14,7.06,7.06,0,0,1-2.9.29h-2.2a7.06,7.06,0,0,1-2.9-.29,2.65,2.65,0,0,1-1.2-1.14,6.25,6.25,0,0,1-.3-2.77Z"/><path class="cls-2" d="M586.08,979.83a6.41,6.41,0,0,1,.3-2.81,2.66,2.66,0,0,1,1.2-1.17,7.06,7.06,0,0,1,2.9-.29h2.2a7.06,7.06,0,0,1,2.9.29,2.66,2.66,0,0,1,1.2,1.17,6.41,6.41,0,0,1,.3,2.81v39.46a6.41,6.41,0,0,1-.3,2.81,2.66,2.66,0,0,1-1.2,1.17,7.06,7.06,0,0,1-2.9.29h-2.2a7.06,7.06,0,0,1-2.9-.29,2.66,2.66,0,0,1-1.2-1.17,6.41,6.41,0,0,1-.3-2.81Z"/><path class="cls-2" d="M604.08,995.83a6.41,6.41,0,0,1,.3-2.81,2.66,2.66,0,0,1,1.2-1.17,7.06,7.06,0,0,1,2.9-.29h2.2a7.06,7.06,0,0,1,2.9.29,2.66,2.66,0,0,1,1.2,1.17,6.41,6.41,0,0,1,.3,2.81v23.46a6.41,6.41,0,0,1-.3,2.81,2.66,2.66,0,0,1-1.2,1.17,7.06,7.06,0,0,1-2.9.29h-2.2a7.06,7.06,0,0,1-2.9-.29,2.66,2.66,0,0,1-1.2-1.17,6.41,6.41,0,0,1-.3-2.81Z"/></g><g id="SVGRepo_iconCarrier-153" data-name="SVGRepo iconCarrier"><path class="cls-2" d="M659.05,991.56l-10.67,9.85,10.67,11.48m26.66-21.33,10.67,9.85-10.67,11.48m-8-32-10.66,42.67"/></g><g id="SVGRepo_iconCarrier-154" data-name="SVGRepo iconCarrier"><path class="cls-2" d="M745.56,1005.56v8m0-16h0m2-22H735c-3,0-4.44,0-5.57.58a5.36,5.36,0,0,0-2.31,2.33c-.57,1.14-.57,2.64-.57,5.62V1015c0,3,0,4.48.57,5.62a5.36,5.36,0,0,0,2.31,2.33c1.13.58,2.61.58,5.57.58H755.1c3,0,4.44,0,5.57-.58a5.36,5.36,0,0,0,2.31-2.33c.58-1.14.58-2.64.58-5.62V991.56m-15.67-16.47,16,16m-16.33-15.53v11.73a6.62,6.62,0,0,0,.29,2.81,2.63,2.63,0,0,0,1.16,1.17,6.64,6.64,0,0,0,2.81.29h11.74"/></g><g id="SVGRepo_iconCarrier-155" data-name="SVGRepo iconCarrier"><path class="cls-2" d="M514,991h5.46a13.5,13.5,0,1,1,.16,27H514m-10-27h-5.46a13.5,13.5,0,1,0-.16,27H504m-6-13h22"/></g></g></svg>