<?xml version="1.0" encoding="utf-8"?>
<!-- Generator: Adobe Illustrator 22.0.0, SVG Export Plug-In . SVG Version: 6.00 Build 0)  -->
<svg version="1.1" id="Capa_1" xmlns="http://www.w3.org/2000/svg" xmlns:xlink="http://www.w3.org/1999/xlink" x="0px" y="0px"
	 viewBox="0 0 768 1024" style="enable-background:new 0 0 768 1024;" xml:space="preserve">
<style type="text/css">
	.st0{opacity:8.000000e-02;}
	.st1{fill:none;stroke:#000000;stroke-width:2;}
</style>
<g class="st0">
	<g id="SVGRepo_iconCarrier">
		<path class="st1" d="M660.4,97.5l4.9,4.7l11.1-10.7 M667.9,120.5h-23.5c0,0,4.2-10,2.5-13.3c-5.9-11.9-1-26.3,10.9-32.2
			c11.9-5.9,26.3-1,32.2,10.9c2.1,4.3,2.9,9.1,2.3,13.8C690.7,111.2,679.5,120.5,667.9,120.5z"/>
	</g>
	<g id="SVGRepo_iconCarrier-2">
		<path class="st1" d="M587.1,89.2c-2-2.6-5.7-3-8.3-1c0,0-0.1,0.1-0.1,0.1c-2.7,2.2-3.1,6-1,8.7c2.1,2.3,4.2,4.5,6.6,6.5
			c0.6,0.6,1.2,1.1,2,1.4c0.5,0.1,1,0.1,1.5,0c0.8-0.3,1.4-0.8,2-1.4c2.3-2,4.5-4.2,6.6-6.5c2.1-2.7,1.7-6.6-0.9-8.7c0,0,0,0,0,0
			c-2.5-2.1-6.2-1.8-8.3,0.7C587.1,89.1,587.1,89.2,587.1,89.2z"/>
		<path class="st1" d="M611.1,96.5c0,13.3-10.7,24-24,24h-24c0,0,4.2-10,2.5-13.3c-5.9-11.9-1-26.3,10.8-32.2
			c11.9-5.9,26.3-1,32.2,10.8C610.2,89.1,611.1,92.8,611.1,96.5L611.1,96.5z"/>
	</g>
	<g id="SVGRepo_iconCarrier-3">
		<path class="st1" d="M13.3,3.4L13.3,3.4 M5.5,19.1c1.5-4.2,6-6.4,10.2-4.9c2.3,0.8,4.1,2.6,4.9,4.9 M13.3,32.4L13.3,32.4
			 M5.5,48.4c1.5-4.2,6-6.4,10.2-4.9c2.3,0.8,4.1,2.6,4.9,4.9 M33.6,15.4h15.5c0.9,0.1,1.9,0,2.8-0.3c0.5-0.3,0.9-0.7,1.1-1.2
			c0.3-0.9,0.4-1.9,0.3-2.9V8.8c0.1-1,0-2-0.3-2.9c-0.2-0.5-0.7-0.9-1.2-1.2C50.9,4.4,50,4.3,49,4.4H33.6c-0.9-0.1-1.9,0-2.8,0.3
			c-0.5,0.3-0.9,0.7-1.2,1.2c-0.3,0.9-0.4,1.9-0.3,2.9V11c-0.1,1,0,2,0.3,2.9c0.3,0.5,0.7,0.9,1.2,1.2
			C31.7,15.4,32.7,15.5,33.6,15.4L33.6,15.4z M33.6,44.4h15.5c0.9,0.1,1.9,0,2.8-0.3c0.5-0.3,0.9-0.7,1.1-1.2
			c0.3-0.9,0.4-1.9,0.3-2.9v-2.2c0.1-1,0-2-0.3-2.9c-0.2-0.5-0.7-0.9-1.2-1.2c-0.9-0.3-1.9-0.4-2.8-0.3H33.6c-0.9-0.1-1.9,0-2.8,0.3
			c-0.5,0.3-0.9,0.7-1.2,1.2c-0.3,0.9-0.4,1.9-0.3,2.9V40c-0.1,1,0,2,0.3,2.9c0.3,0.5,0.7,0.9,1.2,1.2
			C31.7,44.4,32.7,44.5,33.6,44.4L33.6,44.4z M15.7,3.1c0,1.5-1.2,2.7-2.7,2.7c-1.5,0-2.7-1.2-2.7-2.7c0-1.5,1.2-2.7,2.7-2.7
			C14.5,0.4,15.7,1.6,15.7,3.1C15.7,3.1,15.7,3.1,15.7,3.1z M15.7,32.4c0,1.5-1.2,2.7-2.7,2.7c-1.5,0-2.7-1.2-2.7-2.7
			c0-1.5,1.2-2.7,2.7-2.7C14.5,29.7,15.7,30.9,15.7,32.4C15.7,32.4,15.7,32.4,15.7,32.4z"/>
	</g>
	<g id="SVGRepo_iconCarrier-4">
		<path class="st1" d="M521.1,104.5v16 M513.1,112.5h16 M517.4,94.5h7.5c0.9,0.1,1.9,0,2.8-0.3c0.5-0.3,0.9-0.7,1.2-1.2
			c0.3-0.9,0.4-1.9,0.3-2.8v-7.4c0.1-0.9,0-1.9-0.3-2.8c-0.3-0.5-0.7-0.9-1.2-1.2c-0.9-0.3-1.9-0.4-2.8-0.3h-7.5
			c-0.9-0.1-1.9,0-2.8,0.3c-0.5,0.3-0.9,0.7-1.2,1.2c-0.3,0.9-0.4,1.9-0.3,2.8v7.5c-0.1,0.9,0,1.9,0.3,2.8c0.3,0.5,0.7,0.9,1.2,1.2
			C515.5,94.5,516.4,94.6,517.4,94.5z M490.4,94.5h7.5c0.9,0.1,1.9,0,2.8-0.3c0.5-0.3,0.9-0.7,1.2-1.2c0.3-0.9,0.4-1.9,0.3-2.8v-7.4
			c0.1-0.9,0-1.9-0.3-2.8c-0.3-0.5-0.7-0.9-1.2-1.2c-0.9-0.3-1.9-0.4-2.8-0.3h-7.5c-0.9-0.1-1.9,0-2.8,0.3c-0.5,0.3-0.9,0.7-1.2,1.2
			c-0.3,0.9-0.4,1.9-0.3,2.8v7.5c-0.1,0.9,0,1.9,0.3,2.8c0.3,0.5,0.7,0.9,1.2,1.2C488.5,94.5,489.4,94.6,490.4,94.5z M490.4,120.5
			h7.5c0.9,0.1,1.9,0,2.8-0.3c0.5-0.3,0.9-0.7,1.2-1.2c0.3-0.9,0.4-1.9,0.3-2.8v-7.5c0.1-0.9,0-1.9-0.3-2.8
			c-0.3-0.5-0.7-0.9-1.2-1.2c-0.9-0.3-1.9-0.4-2.8-0.3h-7.5c-0.9-0.1-1.9,0-2.8,0.3c-0.5,0.3-0.9,0.7-1.2,1.2
			c-0.3,0.9-0.4,1.9-0.3,2.8v7.5c-0.1,0.9,0,1.9,0.3,2.8c0.3,0.5,0.7,0.9,1.2,1.2C488.5,120.5,489.4,120.6,490.4,120.5z"/>
	</g>
	<g id="SVGRepo_iconCarrier-5">
		<path class="st1" d="M35,33.8h-1.6c-0.1,0-0.2,0-0.3,0c-0.1,0-0.1-0.1-0.1-0.1c0-0.1,0-0.2,0-0.3v-1.6 M34,33.1l-0.1-0.2l-0.1-0.1
			l0,0l-0.1,0.1l-0.3,0.3l0,0l0,0c0,0,0,0-0.4,0v0.2c0.4,0,0.4,0.1,0.4,0.1l0,0c0,0,0,0,0.1,0.1h0.8c0-0.1,0.1-0.1,0.1-0.1l0,0
			c0,0,0,0-0.5-0.1v-0.2c0.5,0,0.5,0,0.5,0l0,0l0,0l-0.1-0.1l0,0c0,0-0.1,0-0.1,0l0,0l0,0c0,0-0.1,0-0.1,0H34z"/>
	</g>
	<g id="SVGRepo_iconCarrier-6">
		<path class="st1" d="M404.5,120.5c0-10.3,8.4-18.7,18.7-18.7l0,0c0.9,0,1.8,0.1,2.7,0.2 M433.8,83.2c0,5.9-4.8,10.7-10.7,10.7
			s-10.7-4.8-10.7-10.7s4.8-10.7,10.7-10.7c0,0,0,0,0,0C429,72.5,433.8,77.3,433.8,83.2L433.8,83.2z M427.4,120.5l5.4-1.1
			c0.3-0.1,0.6-0.1,0.9-0.2c0.2-0.1,0.4-0.2,0.5-0.3c0.3-0.2,0.5-0.4,0.7-0.7l11.1-11.1c1.4-1.5,1.4-3.9-0.1-5.3
			c-1.5-1.4-3.7-1.4-5.2,0l-11.1,11.1c-0.2,0.2-0.4,0.4-0.6,0.7c-0.1,0.2-0.2,0.4-0.3,0.6c-0.1,0.3-0.2,0.6-0.2,0.9L427.4,120.5z"/>
	</g>
	<g id="SVGRepo_iconCarrier-7">
		<path class="st1" d="M346.4,85.5h5.5c7.5,0,13.5,6,13.6,13.4c0,7.5-6,13.5-13.4,13.6h-5.6 M336.4,85.5H331
			c-7.5,0-13.5,6-13.6,13.4c0,7.5,6,13.5,13.4,13.6h5.6 M330.4,99.5h22"/>
	</g>
	<g id="SVGRepo_iconCarrier-8">
		<path class="st1" d="M159.9,30.6c-0.1-0.9,0-1.9,0.3-2.8c0.3-0.5,0.7-0.9,1.2-1.1c0.9-0.3,1.9-0.4,2.9-0.3h2.2c1-0.1,2,0,2.9,0.3
			c0.5,0.3,0.9,0.7,1.2,1.1c0.3,0.9,0.4,1.8,0.3,2.8v12.6c0.1,0.9,0,1.9-0.3,2.8c-0.3,0.5-0.7,0.9-1.2,1.2c-0.9,0.3-1.9,0.4-2.9,0.3
			h-2.2c-1,0.1-2,0-2.9-0.3c-0.5-0.2-0.9-0.6-1.2-1.2c-0.3-0.9-0.4-1.8-0.3-2.8V30.6z"/>
		<path class="st1" d="M178.9,4.7c-0.1-0.9,0-1.9,0.3-2.8c0.3-0.5,0.7-0.9,1.2-1.2c0.9-0.3,1.9-0.4,2.9-0.3h2.2c1-0.1,2,0,2.9,0.3
			c0.5,0.3,0.9,0.7,1.2,1.2c0.3,0.9,0.4,1.9,0.3,2.8v39.5c0.1,0.9,0,1.9-0.3,2.8c-0.3,0.5-0.7,0.9-1.2,1.2c-0.9,0.3-1.9,0.4-2.9,0.3
			h-2.2c-1,0.1-2,0-2.9-0.3c-0.5-0.3-0.9-0.7-1.2-1.2c-0.3-0.9-0.4-1.9-0.3-2.8V4.7z"/>
		<path class="st1" d="M196.9,20.7c-0.1-0.9,0-1.9,0.3-2.8c0.3-0.5,0.7-0.9,1.2-1.2c0.9-0.3,1.9-0.4,2.9-0.3h2.2c1-0.1,2,0,2.9,0.3
			c0.5,0.3,0.9,0.7,1.2,1.2c0.3,0.9,0.4,1.9,0.3,2.8v23.5c0.1,0.9,0,1.9-0.3,2.8c-0.3,0.5-0.7,0.9-1.2,1.2c-0.9,0.3-1.9,0.4-2.9,0.3
			h-2.2c-1,0.1-2,0-2.9-0.3c-0.5-0.3-0.9-0.7-1.2-1.2c-0.3-0.9-0.4-1.9-0.3-2.8V20.7z"/>
	</g>
	<g id="SVGRepo_iconCarrier-9">
		<path class="st1" d="M265,102.5v8 M265,94.5L265,94.5 M267,72.5h-12.6c-3,0-4.4,0-5.6,0.6c-1,0.5-1.8,1.3-2.3,2.3
			C246,76.5,246,78,246,81v31c0,3,0,4.5,0.6,5.6c0.5,1,1.3,1.8,2.3,2.3c1.1,0.6,2.6,0.6,5.6,0.6h20.1c3,0,4.4,0,5.6-0.6
			c1-0.5,1.8-1.3,2.3-2.3c0.6-1.1,0.6-2.6,0.6-5.6V88.5 M267.3,72l16,16 M267,72.5v11.7c-0.1,0.9,0,1.9,0.3,2.8
			c0.3,0.5,0.7,0.9,1.2,1.2c0.9,0.3,1.9,0.4,2.8,0.3H283"/>
	</g>
	<g id="SVGRepo_iconCarrier-10">
		<path class="st1" d="M267,40.4L267,40.4 M259.5,48.4h14.9c3,0,4.5,0,5.6-0.6c1-0.5,1.8-1.3,2.3-2.3c0.6-1.1,0.6-2.6,0.6-5.6V9
			c0-3,0-4.5-0.6-5.6c-0.5-1-1.3-1.9-2.3-2.4c-1.1-0.6-2.6-0.6-5.6-0.6h-14.9c-3,0-4.5,0-5.6,0.6c-1,0.5-1.8,1.3-2.3,2.3
			C251,4.5,251,6,251,9v30.9c0,3,0,4.5,0.6,5.6c0.5,1,1.3,1.8,2.3,2.3C255.1,48.4,256.6,48.4,259.5,48.4L259.5,48.4z"/>
	</g>
	<g id="SVGRepo_iconCarrier-11">
		<path class="st1" d="M442.8,40.4c3.7-7.2,0.8-16.1-6.4-19.7s-16.1-0.8-19.7,6.4c-3.7,7.2-0.8,16.1,6.4,19.7c2.2,1.1,4.6,1.7,7,1.6
			h17C445.1,46.1,443.6,43.4,442.8,40.4 M441.3,24.4c2.2-10.8-4.8-21.4-15.6-23.6s-21.4,4.8-23.6,15.6c-0.3,1.3-0.4,2.6-0.4,4
			c0,2.3,0.4,4.5,1.1,6.7c2.9,8-3.8,13.3-3.8,13.3h17"/>
	</g>
	<g id="SVGRepo_iconCarrier-12">
		<path class="st1" d="M81.6,48l34.7-34.7l13.3,11.1 M81.6,48.4h24c13.1,0,23.8-10.5,24-23.5 M81.6,48c0,0,4.2-10,2.5-13.3
			C78.2,22.8,83.1,8.4,95,2.5s26.3-1,32.2,10.9c1.6,3.3,2.5,6.9,2.5,10.6c0,0.1,0,0.3,0,0.5 M103,26.6l-9.3-8L82.3,29.8"/>
	</g>
	<g id="SVGRepo_iconCarrier-13">
		<path class="st1" d="M563.1,13.9c0-3,0-4.4,0.6-5.6c0.5-1,1.3-1.8,2.3-2.3c1.1-0.6,2.6-0.6,5.6-0.6h30.9c3,0,4.5,0,5.6,0.6
			c1,0.5,1.8,1.3,2.3,2.3c0.6,1.1,0.6,2.6,0.6,5.6V34c0,3,0,4.4-0.6,5.6c-0.5,1-1.3,1.8-2.3,2.3c-1.1,0.6-2.6,0.6-5.6,0.6h-31
			c-3,0-4.5,0-5.6-0.6c-1-0.5-1.8-1.3-2.3-2.3c-0.6-1.1-0.6-2.6-0.6-5.6L563.1,13.9z"/>
		<path class="st1" d="M581.7,15.6l-8,8l8,8 M592.4,15.6l8,8l-8,8"/>
	</g>
	<g id="SVGRepo_iconCarrier-14">
		<path class="st1" d="M328.2,16.4l-10.7,9.8l10.7,11.5 M354.8,16.4l10.7,9.8l-10.7,11.5 M346.8,5.8l-10.7,42.7"/>
	</g>
	<g id="SVGRepo_iconCarrier-15">
		<path class="st1" d="M743.2,48.4v-5c0.1-7.5-5.9-13.6-13.3-13.7c-7.5-0.1-13.6,5.9-13.7,13.3v5.3L743.2,48.4z M743.2,48.4h21v-2.7
			c0.2-7.2-5.5-13.1-12.7-13.3c-0.2,0-0.4,0-0.7,0c-3.7,0-7.2,1.6-9.6,4.3 M737.6,14c0,4.4-3.6,8-8,8s-8-3.6-8-8s3.6-8,8-8
			S737.6,9.6,737.6,14z M756.2,19.3c0,2.9-2.4,5.3-5.3,5.3s-5.3-2.4-5.3-5.3s2.4-5.3,5.3-5.3c0,0,0,0,0,0
			C753.8,14,756.2,16.4,756.2,19.3L756.2,19.3z"/>
	</g>
	<g id="SVGRepo_iconCarrier-16">
		<path class="st1" d="M505,37.4v11 M494,48.4h22 M489.5,37.4h30.9c3,0,4.5,0,5.6-0.6c1-0.5,1.8-1.3,2.3-2.3
			c0.6-1.1,0.6-2.6,0.6-5.6V8.9c0-3,0-4.4-0.6-5.6c-0.5-1-1.3-1.8-2.3-2.3c-1.1-0.6-2.6-0.6-5.6-0.6h-30.9c-3,0-4.5,0-5.6,0.6
			c-1,0.5-1.8,1.3-2.3,2.3C481,4.4,481,5.9,481,8.9V29c0,3,0,4.4,0.6,5.6c0.5,1,1.3,1.8,2.3,2.3C485.1,37.4,486.6,37.4,489.5,37.4
			L489.5,37.4z"/>
	</g>
	<g id="SVGRepo_iconCarrier-17">
		<path class="st1" d="M766.2,85.8h-8.5 M766.2,96.5h-8 M766.2,107.1h-8.5 M726.7,85.8h-8.5 M731.6,81v-8.5 M731.6,120.5v-8.6
			 M742.2,80.5v-8 M742.2,120.5v-8 M752.9,81v-8.5 M752.9,120.5v-8.6 M726.2,96.5h-8 M726.7,107.1h-8.5 M739,112.5h6.4
			c4.5,0,6.7,0,8.4-0.9c1.5-0.8,2.7-2,3.5-3.5c0.9-1.7,0.9-4,0.9-8.4v-6.4c0-4.5,0-6.7-0.9-8.4c-0.8-1.5-2-2.7-3.5-3.5
			c-1.7-0.9-4-0.9-8.4-0.9H739c-4.5,0-6.7,0-8.4,0.9c-1.5,0.8-2.7,2-3.5,3.5c-0.9,1.7-0.9,4-0.9,8.4v6.4c0,4.5,0,6.7,0.9,8.4
			c0.8,1.5,2,2.7,3.5,3.5C732.3,112.5,734.5,112.5,739,112.5L739,112.5z M736.9,91.1h10.6v10.6h-10.6V91.1z"/>
	</g>
	<g id="SVGRepo_iconCarrier-18">
		<path class="st1" d="M660.4,33.9V7.6c0-4.2,3.4-7.7,7.7-7.6c0.6,0,1.2,0.1,1.8,0.2l13.5,3.4c5.3,1.3,9,6,9,11.5v15.7
			c0,9.8-7.9,17.7-17.7,17.7c-0.3,0-0.6,0-0.9,0C666.4,48.1,660.4,41.3,660.4,33.9z M674.4,48.4h-1c-13.3,0-24-8.5-24-18.9
			c0-6.6,4.2-12.4,10.7-15.7 M676.4,13.4v6"/>
	</g>
	<g id="SVGRepo_iconCarrier-19">
		<path class="st1" d="M187,120.5v-5c0.1-7.5-5.9-13.6-13.3-13.7c-7.5-0.1-13.6,5.9-13.7,13.3v5.3L187,120.5z M187,120.5h21v-2.7
			c0.1-7.3-5.7-13.2-13-13.3c-3.8-0.1-7.4,1.5-10,4.3 M181.3,86c0,4.4-3.6,8-8,8s-8-3.6-8-8s3.6-8,8-8S181.3,81.6,181.3,86z
			 M200,91.3c0,2.9-2.4,5.3-5.4,5.3c-2.9,0-5.3-2.4-5.3-5.3c0-2.9,2.4-5.3,5.3-5.3C197.6,86,200,88.4,200,91.3
			C200,91.3,200,91.3,200,91.3z"/>
	</g>
	<g id="SVGRepo_iconCarrier-20">
		<path class="st1" d="M81.6,92c0-3,0-4.4,0.6-5.6c0.5-1,1.3-1.8,2.3-2.3c1.2-0.6,2.6-0.6,5.6-0.6h30.9c3,0,4.5,0,5.6,0.6
			c1,0.5,1.8,1.3,2.3,2.3c0.6,1.1,0.6,2.6,0.6,5.6v20c0,3,0,4.4-0.6,5.6c-0.5,1-1.3,1.8-2.3,2.3c-1.1,0.6-2.6,0.6-5.6,0.6H90.2
			c-3,0-4.5,0-5.6-0.6c-1-0.5-1.8-1.3-2.3-2.3c-0.6-1.1-0.6-2.6-0.6-5.6V92z"/>
		<path class="st1" d="M100.3,93.7l-8,8l8,8 M111,93.7l8,8l-8,8"/>
	</g>
	<g id="SVGRepo_iconCarrier-21">
		<path class="st1" d="M29.3,109.5v11 M18.3,120.5h22 M13.9,109.5h30.9c3,0,4.5,0,5.6-0.6c1-0.5,1.8-1.3,2.3-2.3
			c0.6-1.1,0.6-2.6,0.6-5.6V81c0-3,0-4.4-0.6-5.6c-0.5-1-1.3-1.8-2.3-2.3c-1.1-0.6-2.6-0.6-5.6-0.6H13.9c-3,0-4.5,0-5.6,0.6
			c-1,0.5-1.8,1.3-2.3,2.3C5.3,76.5,5.3,78,5.3,81v20c0,3,0,4.4,0.6,5.6c0.5,1,1.3,1.8,2.3,2.3C9.4,109.5,10.9,109.5,13.9,109.5z"/>
	</g>
	<g id="SVGRepo_iconCarrier-22">
		<path class="st1" d="M21.3,177v-26.3c0-4.2,3.4-7.7,7.7-7.7c0.6,0,1.3,0.1,1.9,0.2l13.5,3.4c5.3,1.3,9,6,9,11.5v15.7
			c0,9.8-7.9,17.7-17.7,17.7c-0.3,0-0.5,0-0.8,0C27.4,191.2,21.3,184.5,21.3,177z M35.3,191.5h-1c-13.3,0-24-8.5-24-18.9
			c0-6.6,4.2-12.3,10.7-15.7 M37.3,156.5v6"/>
	</g>
	<g id="SVGRepo_iconCarrier-23">
		<path class="st1" d="M113.6,183.6L113.6,183.6 M106.2,191.6h14.9c3,0,4.5,0,5.6-0.6c1-0.5,1.8-1.3,2.3-2.3
			c0.6-1.1,0.6-2.6,0.6-5.6v-30.8c0-3,0-4.5-0.6-5.6c-0.5-1-1.3-1.8-2.3-2.3c-1.1-0.6-2.6-0.6-5.6-0.6h-14.9c-3,0-4.5,0-5.6,0.6
			c-1,0.5-1.8,1.3-2.3,2.3c-0.6,1.1-0.6,2.6-0.6,5.6v30.8c0,3,0,4.5,0.6,5.6c0.5,1,1.3,1.8,2.3,2.3
			C101.7,191.6,103.2,191.6,106.2,191.6L106.2,191.6z"/>
	</g>
	<g id="SVGRepo_iconCarrier-24">
		<path class="st1" d="M208,156.8h-8.5 M208,167.6h-8 M208,178.2h-8.5 M168.5,156.8H160 M173.4,152v-8.5 M173.4,191.6V183
			 M184,151.6v-8 M184,191.6v-8 M194.6,152v-8.5 M194.6,191.5V183 M168,167.6h-8 M168.5,178.2H160 M180.8,183.6h6.4
			c4.5,0,6.7,0,8.4-0.9c1.5-0.8,2.7-2,3.5-3.5c0.9-1.7,0.9-3.9,0.9-8.4v-6.4c0-4.5,0-6.7-0.9-8.4c-0.8-1.5-2-2.7-3.5-3.5
			c-1.7-0.9-4-0.9-8.4-0.9h-6.4c-4.5,0-6.7,0-8.4,0.9c-1.5,0.8-2.7,2-3.5,3.5c-0.9,1.7-0.9,3.9-0.9,8.4v6.4c0,4.5,0,6.7,0.9,8.4
			c0.8,1.5,2,2.7,3.5,3.5C174,183.6,176.3,183.6,180.8,183.6L180.8,183.6z M178.6,162.2h10.6v10.6h-10.7L178.6,162.2z"/>
	</g>
	<g id="SVGRepo_iconCarrier-25">
		<path class="st1" d="M235.4,163c0-3,0-4.4,0.6-5.6c0.5-1,1.3-1.8,2.3-2.3c1.1-0.6,2.6-0.6,5.6-0.6h30.9c3,0,4.5,0,5.6,0.6
			c1,0.5,1.8,1.3,2.3,2.3c0.6,1.1,0.6,2.6,0.6,5.6v20.1c0,3,0,4.4-0.6,5.6c-0.5,1-1.3,1.8-2.3,2.3c-1.1,0.6-2.6,0.6-5.6,0.6h-30.9
			c-3,0-4.5,0-5.6-0.6c-1-0.5-1.8-1.3-2.3-2.3c-0.6-1.1-0.6-2.6-0.6-5.6V163z"/>
		<path class="st1" d="M254,164.8l-8,8l8,8 M264.7,164.8l8,8l-8,8"/>
	</g>
	<g id="SVGRepo_iconCarrier-26">
		<path class="st1" d="M317.5,191.1l34.6-34.7l13.3,11.1 M317.5,191.5h24c13.1,0,23.8-10.5,24-23.6 M317.5,191.1
			c0,0,4.1-10,2.5-13.3c-5.9-11.9-1-26.3,10.8-32.2c11.9-5.9,26.3-1,32.2,10.8c1.6,3.3,2.5,7,2.5,10.7v0.5 M338.8,169.8l-9.3-8
			l-11.3,11.1"/>
	</g>
	<g id="SVGRepo_iconCarrier-27">
		<path class="st1" d="M426.2,191.6v-5c0.1-7.5-5.9-13.6-13.3-13.7s-13.6,5.9-13.7,13.3v5.3L426.2,191.6z M426.2,191.6h21v-2.7
			c0.1-7.3-5.7-13.2-13-13.3c-3.8-0.1-7.4,1.5-10,4.3 M420.5,157.1c0,4.4-3.6,8-8,8s-8-3.6-8-8s3.6-8,8-8
			C417,149.1,420.5,152.7,420.5,157.1C420.5,157.1,420.5,157.1,420.5,157.1L420.5,157.1z M439.2,162.4c0,2.9-2.4,5.3-5.3,5.3
			c-2.9,0-5.3-2.4-5.3-5.3c0-2.9,2.4-5.3,5.3-5.3C436.8,157.1,439.2,159.5,439.2,162.4C439.2,162.4,439.2,162.4,439.2,162.4
			L439.2,162.4z"/>
	</g>
	<g id="SVGRepo_iconCarrier-28">
		<path class="st1" d="M563.1,173.8c-0.1-0.9,0-1.9,0.3-2.8c0.3-0.5,0.7-0.9,1.2-1.1c0.9-0.3,1.9-0.4,2.9-0.3h2.2c1-0.1,2,0,2.9,0.3
			c0.5,0.2,0.9,0.6,1.2,1.1c0.3,0.9,0.4,1.8,0.3,2.8v12.6c0.1,0.9,0,1.9-0.3,2.8c-0.3,0.5-0.7,0.9-1.2,1.1c-0.9,0.3-1.9,0.4-2.9,0.3
			h-2.2c-1,0.1-2,0-2.9-0.3c-0.5-0.2-0.9-0.6-1.2-1.1c-0.3-0.9-0.4-1.8-0.3-2.8V173.8z"/>
		<path class="st1" d="M582.1,147.8c-0.1-0.9,0-1.9,0.3-2.8c0.3-0.5,0.7-0.9,1.2-1.2c0.9-0.3,1.9-0.4,2.9-0.3h2.2c1-0.1,2,0,2.9,0.3
			c0.5,0.3,0.9,0.7,1.2,1.2c0.3,0.9,0.4,1.9,0.3,2.8v39.5c0.1,0.9,0,1.9-0.3,2.8c-0.3,0.5-0.7,0.9-1.2,1.2c-0.9,0.3-1.9,0.4-2.9,0.3
			h-2.2c-1,0.1-2,0-2.9-0.3c-0.5-0.3-0.9-0.7-1.2-1.2c-0.3-0.9-0.4-1.9-0.3-2.8V147.8z"/>
		<path class="st1" d="M600.1,163.8c-0.1-0.9,0-1.9,0.3-2.8c0.3-0.5,0.7-0.9,1.2-1.2c0.9-0.3,1.9-0.4,2.9-0.3h2.2c1-0.1,2,0,2.9,0.3
			c0.5,0.3,0.9,0.7,1.2,1.2c0.3,0.9,0.4,1.9,0.3,2.8v23.5c0.1,0.9,0,1.9-0.3,2.8c-0.3,0.5-0.7,0.9-1.2,1.2c-0.9,0.3-1.9,0.4-2.9,0.3
			h-2.2c-1,0.1-2,0-2.9-0.3c-0.5-0.3-0.9-0.7-1.2-1.2c-0.3-0.9-0.4-1.9-0.3-2.8V163.8z"/>
	</g>
	<g id="SVGRepo_iconCarrier-29">
		<path class="st1" d="M655,159.6l-10.7,9.9l10.7,11.5 M681.7,159.6l10.7,9.9l-10.7,11.5 M673.7,148.9L663,191.6"/>
	</g>
	<g id="SVGRepo_iconCarrier-30">
		<path class="st1" d="M741.6,173.6v8 M741.6,165.6L741.6,165.6 M743.6,143.6H731c-3,0-4.4,0-5.6,0.6c-1,0.5-1.8,1.3-2.3,2.3
			c-0.6,1.1-0.6,2.6-0.6,5.6V183c0,3,0,4.5,0.6,5.6c0.5,1,1.3,1.8,2.3,2.3c1.1,0.6,2.6,0.6,5.6,0.6h20.1c3,0,4.4,0,5.6-0.6
			c1-0.5,1.8-1.3,2.3-2.3c0.6-1.1,0.6-2.6,0.6-5.6v-23.4 M743.9,143.1l16,16 M743.6,143.6v11.7c-0.1,0.9,0,1.9,0.3,2.8
			c0.3,0.5,0.7,0.9,1.2,1.2c0.9,0.3,1.9,0.4,2.8,0.3h11.7"/>
	</g>
	<g id="SVGRepo_iconCarrier-31">
		<path class="st1" d="M510,159h5.5c7.5,0,13.5,6,13.6,13.4c0,7.5-6,13.5-13.4,13.6l0,0H510 M500,159h-5.5c-7.5,0-13.5,6-13.6,13.4
			c0,7.5,6,13.5,13.4,13.6h5.6 M494,173h22"/>
	</g>
	<g id="SVGRepo_iconCarrier-32">
		<path class="st1" d="M663.4,304.5l4.9,4.7l11.1-10.7 M670.9,327.5h-23.5c0,0,4.2-10,2.5-13.3c-5.9-11.9-1-26.3,10.9-32.2
			c11.9-5.9,26.3-1,32.2,10.9c2.1,4.3,2.9,9.1,2.3,13.8C693.7,318.2,682.5,327.5,670.9,327.5z"/>
	</g>
	<g id="SVGRepo_iconCarrier-33">
		<path class="st1" d="M590.1,296.2c-2-2.6-5.7-3-8.3-1c0,0-0.1,0.1-0.1,0.1c-2.7,2.2-3.1,6-1,8.7c2.1,2.3,4.2,4.5,6.6,6.5
			c0.6,0.6,1.2,1.1,2,1.5c0.5,0.1,1,0.1,1.5,0c0.8-0.3,1.4-0.8,2-1.5c2.3-2,4.5-4.2,6.6-6.5c2.1-2.7,1.7-6.6-0.9-8.7c0,0,0,0,0,0
			c-2.5-2.1-6.2-1.8-8.3,0.7C590.1,296.1,590.1,296.2,590.1,296.2z"/>
		<path class="st1" d="M614.1,303.5c0,13.3-10.7,24-24,24h-24c0,0,4.2-10,2.5-13.3c-5.9-11.9-1-26.3,10.8-32.2
			c11.9-5.9,26.3-1,32.2,10.8C613.2,296.1,614.1,299.8,614.1,303.5L614.1,303.5z"/>
	</g>
	<g id="SVGRepo_iconCarrier-34">
		<path class="st1" d="M16.3,210.4L16.3,210.4 M8.5,226.1c1.5-4.2,6-6.4,10.2-4.9c2.3,0.8,4.1,2.6,4.9,4.9 M16.3,239.4L16.3,239.4
			 M8.5,255.4c1.5-4.2,6-6.4,10.2-4.9c2.3,0.8,4.1,2.6,4.9,4.9 M36.6,222.4h15.5c0.9,0.1,1.9,0,2.8-0.3c0.5-0.3,0.9-0.7,1.1-1.2
			c0.3-0.9,0.4-1.9,0.3-2.9v-2.2c0.1-1,0-2-0.3-2.9c-0.2-0.5-0.7-0.9-1.2-1.2c-0.9-0.3-1.9-0.4-2.8-0.3H36.6c-0.9-0.1-1.9,0-2.8,0.3
			c-0.5,0.3-0.9,0.7-1.2,1.2c-0.3,0.9-0.4,1.9-0.3,2.9v2.2c-0.1,1,0,2,0.3,2.9c0.3,0.5,0.7,0.9,1.2,1.2
			C34.7,222.4,35.7,222.5,36.6,222.4L36.6,222.4z M36.6,251.4h15.5c0.9,0.1,1.9,0,2.8-0.3c0.5-0.3,0.9-0.7,1.1-1.2
			c0.3-0.9,0.4-1.9,0.3-2.9v-2.2c0.1-1,0-2-0.3-2.9c-0.2-0.5-0.7-0.9-1.2-1.2c-0.9-0.3-1.9-0.4-2.8-0.3H36.6c-0.9-0.1-1.9,0-2.8,0.3
			c-0.5,0.3-0.9,0.7-1.2,1.2c-0.3,0.9-0.4,1.9-0.3,2.9v2.2c-0.1,1,0,2,0.3,2.9c0.3,0.5,0.7,0.9,1.2,1.2
			C34.7,251.4,35.7,251.5,36.6,251.4L36.6,251.4z M18.7,210.1c0,1.5-1.2,2.7-2.7,2.7s-2.7-1.2-2.7-2.7c0-1.5,1.2-2.7,2.7-2.7
			C17.5,207.4,18.7,208.6,18.7,210.1C18.7,210.1,18.7,210.1,18.7,210.1z M18.7,239.4c0,1.5-1.2,2.7-2.7,2.7s-2.7-1.2-2.7-2.7
			c0-1.5,1.2-2.7,2.7-2.7C17.5,236.7,18.7,237.9,18.7,239.4C18.7,239.4,18.7,239.4,18.7,239.4z"/>
	</g>
	<g id="SVGRepo_iconCarrier-35">
		<path class="st1" d="M524.1,311.5v16 M516.1,319.5h16 M520.4,301.5h7.5c0.9,0.1,1.9,0,2.8-0.3c0.5-0.3,0.9-0.7,1.2-1.2
			c0.3-0.9,0.4-1.9,0.3-2.8v-7.5c0.1-0.9,0-1.9-0.3-2.8c-0.3-0.5-0.7-0.9-1.2-1.2c-0.9-0.3-1.9-0.4-2.8-0.3h-7.5
			c-0.9-0.1-1.9,0-2.8,0.3c-0.5,0.3-0.9,0.7-1.2,1.2c-0.3,0.9-0.4,1.9-0.3,2.8v7.5c-0.1,0.9,0,1.9,0.3,2.8c0.3,0.5,0.7,0.9,1.2,1.2
			C518.5,301.5,519.4,301.6,520.4,301.5z M493.4,301.5h7.5c0.9,0.1,1.9,0,2.8-0.3c0.5-0.3,0.9-0.7,1.2-1.2c0.3-0.9,0.4-1.9,0.3-2.8
			v-7.5c0.1-0.9,0-1.9-0.3-2.8c-0.3-0.5-0.7-0.9-1.2-1.2c-0.9-0.3-1.9-0.4-2.8-0.3h-7.5c-0.9-0.1-1.9,0-2.8,0.3
			c-0.5,0.3-0.9,0.7-1.2,1.2c-0.3,0.9-0.4,1.9-0.3,2.8v7.5c-0.1,0.9,0,1.9,0.3,2.8c0.3,0.5,0.7,0.9,1.2,1.2
			C491.5,301.5,492.4,301.6,493.4,301.5z M493.4,327.5h7.5c0.9,0.1,1.9,0,2.8-0.3c0.5-0.3,0.9-0.7,1.2-1.2c0.3-0.9,0.4-1.9,0.3-2.8
			v-7.5c0.1-0.9,0-1.9-0.3-2.8c-0.3-0.5-0.7-0.9-1.2-1.2c-0.9-0.3-1.9-0.4-2.8-0.3h-7.5c-0.9-0.1-1.9,0-2.8,0.3
			c-0.5,0.3-0.9,0.7-1.2,1.2c-0.3,0.9-0.4,1.9-0.3,2.8v7.5c-0.1,0.9,0,1.9,0.3,2.8c0.3,0.5,0.7,0.9,1.2,1.2
			C491.5,327.5,492.4,327.6,493.4,327.5z"/>
	</g>
	<g id="SVGRepo_iconCarrier-36">
		<path class="st1" d="M38,240.8h-1.6c-0.1,0-0.2,0-0.3,0c-0.1,0-0.1-0.1-0.1-0.1c0-0.1,0-0.2,0-0.3v-1.6 M37,240.1l-0.1-0.2
			l-0.1-0.1l0,0l-0.1,0.1l-0.3,0.3l0,0l0,0c0,0,0,0-0.4,0v0.2c0.4,0.1,0.4,0.1,0.4,0.1l0,0c0,0,0,0,0.1,0.1h0.8
			c0-0.1,0.1-0.1,0.1-0.1l0,0c0,0,0,0-0.5-0.1v-0.2c0.5,0,0.5,0,0.5,0l0,0l0,0l-0.1-0.1l0,0c0,0-0.1,0-0.1,0l0,0l0,0
			c0,0-0.1,0-0.1,0L37,240.1z"/>
	</g>
	<g id="SVGRepo_iconCarrier-37">
		<path class="st1" d="M407.5,327.5c0-10.3,8.4-18.7,18.7-18.7h0c0.9,0,1.8,0.1,2.7,0.2 M436.8,290.1c0,5.9-4.8,10.7-10.7,10.7
			s-10.7-4.8-10.7-10.7s4.8-10.7,10.7-10.7c0,0,0,0,0,0C432,279.5,436.8,284.3,436.8,290.1L436.8,290.1L436.8,290.1z M430.4,327.5
			l5.4-1.1c0.3-0.1,0.6-0.1,0.9-0.2c0.2-0.1,0.4-0.2,0.5-0.3c0.3-0.2,0.5-0.4,0.7-0.6l11.1-11.1c1.4-1.5,1.4-3.9-0.1-5.3
			c-1.5-1.4-3.7-1.4-5.2,0l-11.1,11.1c-0.2,0.2-0.4,0.4-0.6,0.7c-0.1,0.2-0.2,0.4-0.3,0.5c-0.1,0.3-0.2,0.6-0.2,0.9L430.4,327.5z"/>
	</g>
	<g id="SVGRepo_iconCarrier-38">
		<path class="st1" d="M349.4,292.5h5.5c7.5,0,13.5,6,13.6,13.4c0,7.5-6,13.5-13.4,13.6h-5.6 M339.4,292.5H334
			c-7.5,0-13.5,6-13.6,13.4c0,7.5,6,13.5,13.4,13.6h5.6 M333.4,306.5h22"/>
	</g>
	<g id="SVGRepo_iconCarrier-39">
		<path class="st1" d="M162.9,237.6c-0.1-0.9,0-1.9,0.3-2.8c0.3-0.5,0.7-0.9,1.2-1.1c0.9-0.3,1.9-0.4,2.9-0.3h2.2c1-0.1,2,0,2.9,0.3
			c0.5,0.3,0.9,0.7,1.2,1.1c0.3,0.9,0.4,1.8,0.3,2.8v12.6c0.1,0.9,0,1.9-0.3,2.8c-0.3,0.5-0.7,0.9-1.2,1.1c-0.9,0.3-1.9,0.4-2.9,0.3
			h-2.2c-1,0.1-2,0-2.9-0.3c-0.5-0.2-0.9-0.6-1.2-1.1c-0.3-0.9-0.4-1.8-0.3-2.8V237.6z"/>
		<path class="st1" d="M181.9,211.7c-0.1-0.9,0-1.9,0.3-2.8c0.3-0.5,0.7-0.9,1.2-1.2c0.9-0.3,1.9-0.4,2.9-0.3h2.2c1-0.1,2,0,2.9,0.3
			c0.5,0.3,0.9,0.7,1.2,1.2c0.3,0.9,0.4,1.9,0.3,2.8v39.5c0.1,0.9,0,1.9-0.3,2.8c-0.3,0.5-0.7,0.9-1.2,1.2c-0.9,0.3-1.9,0.4-2.9,0.3
			h-2.2c-1,0.1-2,0-2.9-0.3c-0.5-0.3-0.9-0.7-1.2-1.2c-0.3-0.9-0.4-1.9-0.3-2.8V211.7z"/>
		<path class="st1" d="M199.9,227.7c-0.1-0.9,0-1.9,0.3-2.8c0.3-0.5,0.7-0.9,1.2-1.2c0.9-0.3,1.9-0.4,2.9-0.3h2.2c1-0.1,2,0,2.9,0.3
			c0.5,0.3,0.9,0.7,1.2,1.2c0.3,0.9,0.4,1.9,0.3,2.8v23.5c0.1,0.9,0,1.9-0.3,2.8c-0.3,0.5-0.7,0.9-1.2,1.2c-0.9,0.3-1.9,0.4-2.9,0.3
			h-2.2c-1,0.1-2,0-2.9-0.3c-0.5-0.3-0.9-0.7-1.2-1.2c-0.3-0.9-0.4-1.9-0.3-2.8V227.7z"/>
	</g>
	<g id="SVGRepo_iconCarrier-40">
		<path class="st1" d="M268,309.5v8 M268,301.5L268,301.5 M270,279.5h-12.6c-3,0-4.4,0-5.6,0.6c-1,0.5-1.8,1.3-2.3,2.3
			c-0.5,1.1-0.5,2.6-0.5,5.6v31c0,3,0,4.5,0.6,5.6c0.5,1,1.3,1.8,2.3,2.3c1.1,0.6,2.6,0.6,5.6,0.6h20.1c3,0,4.4,0,5.6-0.6
			c1-0.5,1.8-1.3,2.3-2.3c0.6-1.1,0.6-2.6,0.6-5.6v-23.5 M270.3,279l16,16 M270,279.5v11.7c-0.1,0.9,0,1.9,0.3,2.8
			c0.3,0.5,0.7,0.9,1.2,1.2c0.9,0.3,1.9,0.4,2.8,0.3H286"/>
	</g>
	<g id="SVGRepo_iconCarrier-41">
		<path class="st1" d="M270,247.4L270,247.4 M262.5,255.4h14.9c3,0,4.5,0,5.6-0.6c1-0.5,1.8-1.3,2.3-2.3c0.6-1.1,0.6-2.6,0.6-5.6
			V216c0-3,0-4.5-0.6-5.6c-0.5-1-1.3-1.8-2.3-2.3c-1.1-0.6-2.6-0.6-5.6-0.6h-14.9c-3,0-4.5,0-5.6,0.6c-1,0.5-1.8,1.3-2.3,2.3
			c-0.6,1.1-0.6,2.6-0.6,5.6v30.9c0,3,0,4.5,0.6,5.6c0.5,1,1.3,1.8,2.3,2.3C258.1,255.4,259.6,255.4,262.5,255.4L262.5,255.4z"/>
	</g>
	<g id="SVGRepo_iconCarrier-42">
		<path class="st1" d="M445.8,247.4c3.7-7.2,0.8-16.1-6.4-19.7s-16.1-0.8-19.7,6.4c-3.7,7.2-0.8,16.1,6.4,19.7
			c2.2,1.1,4.6,1.7,7,1.6h17C448.1,253.1,446.6,250.4,445.8,247.4 M444.3,231.4c2.2-10.8-4.8-21.4-15.6-23.6
			c-10.8-2.2-21.4,4.8-23.6,15.6c-0.3,1.3-0.4,2.6-0.4,4c0,2.3,0.4,4.5,1.1,6.7c2.9,8-3.8,13.3-3.8,13.3h17"/>
	</g>
	<g id="SVGRepo_iconCarrier-43">
		<path class="st1" d="M84.6,255l34.7-34.7l13.3,11.1 M84.6,255.4h24c13.1,0,23.8-10.5,24-23.6 M84.6,255c0,0,4.2-10,2.5-13.3
			c-5.9-11.9-1-26.3,10.9-32.2c11.9-5.9,26.3-1,32.2,10.9c1.6,3.3,2.5,6.9,2.5,10.6c0,0.1,0,0.3,0,0.4 M106,233.6l-9.3-8l-11.3,11.1
			"/>
	</g>
	<g id="SVGRepo_iconCarrier-44">
		<path class="st1" d="M566.1,220.9c0-3,0-4.4,0.6-5.6c0.5-1,1.3-1.8,2.3-2.3c1.1-0.6,2.6-0.6,5.6-0.6h30.9c3,0,4.5,0,5.6,0.6
			c1,0.5,1.8,1.3,2.3,2.3c0.6,1.1,0.6,2.6,0.6,5.6V241c0,3,0,4.4-0.6,5.6c-0.5,1-1.3,1.8-2.3,2.3c-1.1,0.6-2.6,0.6-5.6,0.6h-31
			c-3,0-4.5,0-5.6-0.6c-1-0.5-1.8-1.3-2.3-2.3c-0.6-1.1-0.6-2.6-0.6-5.6L566.1,220.9z"/>
		<path class="st1" d="M584.7,222.6l-8,8l8,8 M595.4,222.6l8,8l-8,8"/>
	</g>
	<g id="SVGRepo_iconCarrier-45">
		<path class="st1" d="M331.2,223.4l-10.7,9.8l10.7,11.5 M357.8,223.4l10.7,9.8l-10.7,11.5 M349.8,212.8l-10.7,42.7"/>
	</g>
	<g id="SVGRepo_iconCarrier-46">
		<path class="st1" d="M746.2,255.4v-5c0.1-7.5-5.9-13.6-13.3-13.7c-7.5-0.1-13.6,5.9-13.7,13.3v5.3L746.2,255.4z M746.2,255.4h21
			v-2.7c0.2-7.2-5.5-13.1-12.7-13.3c-0.2,0-0.4,0-0.7,0c-3.7,0-7.2,1.6-9.6,4.4 M740.6,221c0,4.4-3.6,8-8,8s-8-3.6-8-8s3.6-8,8-8
			S740.6,216.6,740.6,221z M759.2,226.3c0,2.9-2.4,5.3-5.3,5.3s-5.3-2.4-5.3-5.3s2.4-5.3,5.3-5.3C756.8,221,759.2,223.4,759.2,226.3
			L759.2,226.3z"/>
	</g>
	<g id="SVGRepo_iconCarrier-47">
		<path class="st1" d="M508,244.4v11 M497,255.4h22 M492.5,244.4h30.9c3,0,4.5,0,5.6-0.6c1-0.5,1.8-1.3,2.3-2.3
			c0.6-1.1,0.6-2.6,0.6-5.6v-20.1c0-3,0-4.4-0.6-5.6c-0.5-1-1.3-1.8-2.3-2.3c-1.1-0.6-2.6-0.6-5.6-0.6h-30.9c-3,0-4.5,0-5.6,0.6
			c-1,0.5-1.8,1.3-2.3,2.3c-0.6,1.1-0.6,2.6-0.6,5.6V236c0,3,0,4.4,0.6,5.6c0.5,1,1.3,1.8,2.3,2.3
			C488.1,244.4,489.6,244.4,492.5,244.4L492.5,244.4z"/>
	</g>
	<g id="SVGRepo_iconCarrier-48">
		<path class="st1" d="M769.2,292.8h-8.5 M769.2,303.5h-8 M769.2,314.1h-8.5 M729.7,292.8h-8.5 M734.6,288v-8.5 M734.6,327.5v-8.6
			 M745.3,287.5v-8 M745.3,327.5v-8 M755.9,288v-8.5 M755.9,327.5V319 M729.2,303.5h-8 M729.7,314.2h-8.5 M742,319.5h6.4
			c4.5,0,6.7,0,8.4-0.9c1.5-0.8,2.7-2,3.5-3.5c0.9-1.7,0.9-4,0.9-8.4v-6.4c0-4.5,0-6.7-0.9-8.4c-0.8-1.5-2-2.7-3.5-3.5
			c-1.7-0.9-4-0.9-8.4-0.9H742c-4.5,0-6.7,0-8.4,0.9c-1.5,0.8-2.7,2-3.5,3.5c-0.9,1.7-0.9,4-0.9,8.4v6.4c0,4.5,0,6.7,0.9,8.4
			c0.8,1.5,2,2.7,3.5,3.5C735.3,319.5,737.5,319.5,742,319.5L742,319.5z M739.9,298.2h10.6v10.6h-10.6V298.2z"/>
	</g>
	<g id="SVGRepo_iconCarrier-49">
		<path class="st1" d="M663.4,240.9v-26.3c0-4.2,3.4-7.7,7.7-7.6c0.6,0,1.2,0.1,1.8,0.2l13.5,3.4c5.3,1.3,9,6,9,11.5v15.7
			c0,9.8-7.9,17.7-17.7,17.7c-0.3,0-0.5,0-0.8,0C669.4,255.1,663.4,248.3,663.4,240.9z M677.4,255.4h-1c-13.3,0-24-8.5-24-18.9
			c0-6.6,4.2-12.4,10.7-15.7 M679.4,220.4v6"/>
	</g>
	<g id="SVGRepo_iconCarrier-50">
		<path class="st1" d="M190,327.5v-5c0.1-7.5-5.9-13.6-13.3-13.7c-7.5-0.1-13.6,5.9-13.7,13.3l0,0v5.3L190,327.5z M190,327.5h21
			v-2.7c0.1-7.3-5.7-13.2-13-13.3c-3.8-0.1-7.4,1.5-10,4.3 M184.3,293c0,4.4-3.6,8-8,8s-8-3.6-8-8s3.6-8,8-8S184.3,288.6,184.3,293z
			 M203,298.4c0,2.9-2.4,5.3-5.3,5.4s-5.3-2.4-5.3-5.3c0-2.9,2.4-5.3,5.3-5.4c0,0,0,0,0,0C200.6,293,203,295.4,203,298.4z"/>
	</g>
	<g id="SVGRepo_iconCarrier-51">
		<path class="st1" d="M84.6,299c0-3,0-4.5,0.6-5.6c0.5-1,1.3-1.8,2.3-2.3c1.2-0.6,2.6-0.6,5.6-0.6h30.9c3,0,4.5,0,5.6,0.6
			c1,0.5,1.8,1.3,2.3,2.3c0.6,1.1,0.6,2.6,0.6,5.6v20c0,3,0,4.4-0.6,5.6c-0.5,1-1.3,1.8-2.3,2.3c-1.1,0.6-2.6,0.6-5.6,0.6H93.2
			c-3,0-4.5,0-5.6-0.6c-1-0.5-1.8-1.3-2.3-2.3c-0.6-1.1-0.6-2.6-0.6-5.6V299z"/>
		<path class="st1" d="M103.3,300.7l-8,8l8,8 M114,300.7l8,8l-8,8"/>
	</g>
	<g id="SVGRepo_iconCarrier-52">
		<path class="st1" d="M32.3,316.5v11 M21.3,327.5h22 M16.9,316.5h30.9c3,0,4.5,0,5.6-0.6c1-0.5,1.8-1.3,2.3-2.3
			c0.6-1.1,0.6-2.6,0.6-5.6v-20c0-3,0-4.5-0.6-5.6c-0.5-1-1.3-1.8-2.3-2.3c-1.1-0.6-2.6-0.6-5.6-0.6H16.9c-3,0-4.5,0-5.6,0.6
			c-1,0.5-1.8,1.3-2.3,2.3c-0.6,1.1-0.6,2.6-0.6,5.6v20c0,3,0,4.4,0.6,5.6c0.5,1,1.3,1.8,2.3,2.3C12.4,316.5,13.9,316.5,16.9,316.5z
			"/>
	</g>
	<g id="SVGRepo_iconCarrier-53">
		<path class="st1" d="M24.3,384v-26.3c0-4.2,3.4-7.7,7.7-7.7c0.6,0,1.3,0.1,1.9,0.2l13.5,3.4c5.3,1.3,9,6,9,11.5v15.7
			c0,9.8-7.9,17.7-17.7,17.7c-0.3,0-0.5,0-0.8,0C30.4,398.2,24.3,391.5,24.3,384z M38.3,398.5h-1c-13.3,0-24-8.5-24-18.9
			c0-6.6,4.2-12.3,10.7-15.7 M40.3,363.5v6"/>
	</g>
	<g id="SVGRepo_iconCarrier-54">
		<path class="st1" d="M116.6,390.6L116.6,390.6 M109.2,398.6h14.9c3,0,4.5,0,5.6-0.6c1-0.5,1.8-1.3,2.3-2.3
			c0.6-1.1,0.6-2.6,0.6-5.6v-30.8c0-3,0-4.5-0.6-5.6c-0.5-1-1.3-1.8-2.3-2.3c-1.1-0.6-2.6-0.6-5.6-0.6h-14.9c-3,0-4.5,0-5.6,0.6
			c-1,0.5-1.8,1.3-2.3,2.3c-0.6,1.1-0.6,2.6-0.6,5.6v30.8c0,3,0,4.5,0.6,5.6c0.5,1,1.3,1.8,2.3,2.3
			C104.7,398.6,106.2,398.6,109.2,398.6L109.2,398.6z"/>
	</g>
	<g id="SVGRepo_iconCarrier-55">
		<path class="st1" d="M211,363.8h-8.5 M211,374.6h-8 M211,385.2h-8.5 M171.5,363.8H163 M176.4,359v-8.5 M176.4,398.6V390
			 M187,358.6v-8 M187,398.6v-8 M197.6,359v-8.5 M197.6,398.5V390 M171,374.6h-8 M171.5,385.2H163 M183.8,390.6h6.4
			c4.5,0,6.7,0,8.4-0.9c1.5-0.8,2.7-2,3.5-3.5c0.9-1.7,0.9-4,0.9-8.4v-6.4c0-4.5,0-6.7-0.9-8.4c-0.8-1.5-2-2.7-3.5-3.5
			c-1.7-0.9-4-0.9-8.4-0.9h-6.4c-4.5,0-6.7,0-8.4,0.9c-1.5,0.8-2.7,2-3.5,3.5c-0.9,1.7-0.9,4-0.9,8.4v6.4c0,4.5,0,6.7,0.9,8.4
			c0.8,1.5,2,2.7,3.5,3.5C177,390.6,179.3,390.6,183.8,390.6L183.8,390.6z M181.6,369.2h10.6v10.6h-10.7L181.6,369.2z"/>
	</g>
	<g id="SVGRepo_iconCarrier-56">
		<path class="st1" d="M238.4,370c0-3,0-4.4,0.6-5.6c0.5-1,1.3-1.8,2.3-2.3c1.1-0.6,2.6-0.6,5.6-0.6h30.9c3,0,4.5,0,5.6,0.6
			c1,0.5,1.8,1.3,2.3,2.3c0.6,1.1,0.6,2.6,0.6,5.6v20.1c0,3,0,4.4-0.6,5.6c-0.5,1-1.3,1.8-2.3,2.3c-1.1,0.6-2.6,0.6-5.6,0.6h-30.9
			c-3,0-4.5,0-5.6-0.6c-1-0.5-1.8-1.3-2.3-2.3c-0.6-1.1-0.6-2.6-0.6-5.6V370z"/>
		<path class="st1" d="M257,371.8l-8,8l8,8 M267.7,371.8l8,8l-8,8"/>
	</g>
	<g id="SVGRepo_iconCarrier-57">
		<path class="st1" d="M320.5,398.1l34.6-34.7l13.3,11.1 M320.5,398.5h24c13.1,0,23.8-10.5,24-23.5 M320.5,398.1
			c0,0,4.1-10,2.5-13.3c-5.9-11.9-1-26.3,10.8-32.2c11.9-5.9,26.3-1,32.2,10.8c1.6,3.3,2.5,7,2.5,10.7v0.5 M341.8,376.7l-9.3-8
			l-11.3,11.1"/>
	</g>
	<g id="SVGRepo_iconCarrier-58">
		<path class="st1" d="M429.2,398.6v-5c0.1-7.5-5.9-13.6-13.3-13.7s-13.6,5.9-13.7,13.3v5.3L429.2,398.6z M429.2,398.6h21v-2.7
			c0.1-7.3-5.7-13.2-13-13.3c-3.8-0.1-7.4,1.5-10,4.3 M423.5,364.1c0,4.4-3.6,8-8,8s-8-3.6-8-8s3.6-8,8-8S423.5,359.7,423.5,364.1
			C423.5,364.1,423.5,364.1,423.5,364.1L423.5,364.1z M442.2,369.4c0,2.9-2.4,5.3-5.3,5.3c-2.9,0-5.3-2.4-5.3-5.3
			c0-2.9,2.4-5.3,5.3-5.3C439.8,364.1,442.2,366.5,442.2,369.4C442.2,369.4,442.2,369.4,442.2,369.4L442.2,369.4z"/>
	</g>
	<g id="SVGRepo_iconCarrier-59">
		<path class="st1" d="M566.1,380.8c-0.1-0.9,0-1.9,0.3-2.8c0.3-0.5,0.7-0.9,1.2-1.1c0.9-0.3,1.9-0.4,2.9-0.3h2.2c1-0.1,2,0,2.9,0.3
			c0.5,0.2,0.9,0.6,1.2,1.1c0.3,0.9,0.4,1.8,0.3,2.8v12.6c0.1,0.9,0,1.9-0.3,2.8c-0.3,0.5-0.7,0.9-1.2,1.1c-0.9,0.3-1.9,0.4-2.9,0.3
			h-2.2c-1,0.1-2,0-2.9-0.3c-0.5-0.2-0.9-0.6-1.2-1.1c-0.3-0.9-0.4-1.8-0.3-2.8V380.8z"/>
		<path class="st1" d="M585.1,354.8c-0.1-0.9,0-1.9,0.3-2.8c0.3-0.5,0.7-0.9,1.2-1.2c0.9-0.3,1.9-0.4,2.9-0.3h2.2c1-0.1,2,0,2.9,0.3
			c0.5,0.3,0.9,0.7,1.2,1.2c0.3,0.9,0.4,1.9,0.3,2.8v39.5c0.1,0.9,0,1.9-0.3,2.8c-0.3,0.5-0.7,0.9-1.2,1.2c-0.9,0.3-1.9,0.4-2.9,0.3
			h-2.2c-1,0.1-2,0-2.9-0.3c-0.5-0.3-0.9-0.7-1.2-1.2c-0.3-0.9-0.4-1.9-0.3-2.8V354.8z"/>
		<path class="st1" d="M603.1,370.8c-0.1-0.9,0-1.9,0.3-2.8c0.3-0.5,0.7-0.9,1.2-1.2c0.9-0.3,1.9-0.4,2.9-0.3h2.2c1-0.1,2,0,2.9,0.3
			c0.5,0.3,0.9,0.7,1.2,1.2c0.3,0.9,0.4,1.9,0.3,2.8v23.5c0.1,0.9,0,1.9-0.3,2.8c-0.3,0.5-0.7,0.9-1.2,1.2c-0.9,0.3-1.9,0.4-2.9,0.3
			h-2.2c-1,0.1-2,0-2.9-0.3c-0.5-0.3-0.9-0.7-1.2-1.2c-0.3-0.9-0.4-1.9-0.3-2.8V370.8z"/>
	</g>
	<g id="SVGRepo_iconCarrier-60">
		<path class="st1" d="M658,366.6l-10.7,9.9l10.7,11.5 M684.7,366.6l10.7,9.9l-10.7,11.5 M676.7,355.9L666,398.6"/>
	</g>
	<g id="SVGRepo_iconCarrier-61">
		<path class="st1" d="M744.6,380.6v8 M744.6,372.6L744.6,372.6 M746.6,350.6H734c-3,0-4.4,0-5.6,0.6c-1,0.5-1.8,1.3-2.3,2.3
			c-0.6,1.1-0.6,2.6-0.6,5.6V390c0,3,0,4.5,0.6,5.6c0.5,1,1.3,1.8,2.3,2.3c1.1,0.6,2.6,0.6,5.6,0.6h20.1c3,0,4.4,0,5.6-0.6
			c1-0.5,1.8-1.3,2.3-2.3c0.6-1.1,0.6-2.6,0.6-5.6v-23.4 M746.9,350.1l16,16 M746.6,350.6v11.7c-0.1,0.9,0,1.9,0.3,2.8
			c0.3,0.5,0.7,0.9,1.2,1.2c0.9,0.3,1.9,0.4,2.8,0.3h11.7"/>
	</g>
	<g id="SVGRepo_iconCarrier-62">
		<path class="st1" d="M513,366h5.5c7.5,0,13.5,6,13.6,13.4c0,7.5-6,13.5-13.4,13.6l0,0H513 M503,366h-5.5c-7.5,0-13.5,6-13.6,13.4
			c0,7.5,6,13.5,13.4,13.6h5.6 M497,380h22"/>
	</g>
	<g id="SVGRepo_iconCarrier-63">
		<path class="st1" d="M664.4,513.5l4.9,4.7l11.1-10.7 M671.9,536.5h-23.5c0,0,4.2-10,2.5-13.3c-5.9-11.9-1-26.3,10.9-32.2
			c11.9-5.9,26.3-1,32.2,10.9c2.1,4.3,2.9,9.1,2.3,13.8C694.7,527.2,683.5,536.5,671.9,536.5L671.9,536.5z"/>
	</g>
	<g id="SVGRepo_iconCarrier-64">
		<path class="st1" d="M591.1,505.2c-2-2.6-5.7-3-8.3-1c0,0-0.1,0.1-0.1,0.1c-2.7,2.2-3.1,6-1,8.7c2.1,2.3,4.2,4.5,6.6,6.5
			c0.6,0.6,1.2,1.1,2,1.5c0.5,0.1,1,0.1,1.5,0c0.8-0.3,1.4-0.8,2-1.5c2.3-2,4.5-4.2,6.6-6.5c2.1-2.7,1.7-6.6-0.9-8.7c0,0,0,0,0,0
			c-2.5-2.1-6.2-1.8-8.3,0.7C591.1,505.1,591.1,505.2,591.1,505.2z"/>
		<path class="st1" d="M615.1,512.5c0,13.3-10.7,24-24,24h-24c0,0,4.2-10,2.5-13.3c-5.9-11.9-1-26.3,10.8-32.2
			c11.9-5.9,26.3-1,32.2,10.8C614.2,505.1,615.1,508.8,615.1,512.5L615.1,512.5z"/>
	</g>
	<g id="SVGRepo_iconCarrier-65">
		<path class="st1" d="M17.3,419.4L17.3,419.4 M9.5,435.1c1.5-4.2,6-6.4,10.2-4.9c2.3,0.8,4.1,2.6,4.9,4.9 M17.3,448.4L17.3,448.4
			 M9.5,464.4c1.5-4.2,6-6.4,10.2-4.9c2.3,0.8,4.1,2.6,4.9,4.9 M37.6,431.4h15.5c0.9,0.1,1.9,0,2.8-0.3c0.5-0.3,0.9-0.7,1.1-1.2
			c0.3-0.9,0.4-1.9,0.3-2.9v-2.2c0.1-1,0-2-0.3-2.9c-0.2-0.5-0.7-0.9-1.2-1.2c-0.9-0.3-1.9-0.4-2.8-0.3H37.6c-0.9-0.1-1.9,0-2.8,0.3
			c-0.5,0.3-0.9,0.7-1.2,1.2c-0.3,0.9-0.4,1.9-0.3,2.9v2.2c-0.1,1,0,2,0.3,2.9c0.3,0.5,0.7,0.9,1.2,1.2
			C35.7,431.4,36.7,431.5,37.6,431.4L37.6,431.4z M37.6,460.4h15.5c0.9,0.1,1.9,0,2.8-0.3c0.5-0.3,0.9-0.7,1.1-1.2
			c0.3-0.9,0.4-1.9,0.3-2.9v-2.2c0.1-1,0-2-0.3-2.9c-0.2-0.5-0.7-0.9-1.2-1.2c-0.9-0.3-1.9-0.4-2.8-0.3H37.6c-0.9-0.1-1.9,0-2.8,0.3
			c-0.5,0.3-0.9,0.7-1.2,1.2c-0.3,0.9-0.4,1.9-0.3,2.9v2.2c-0.1,1,0,2,0.3,2.9c0.3,0.5,0.7,0.9,1.2,1.2
			C35.7,460.4,36.7,460.5,37.6,460.4L37.6,460.4z M19.7,419.1c0,1.5-1.2,2.7-2.7,2.7s-2.7-1.2-2.7-2.7s1.2-2.7,2.7-2.7
			C18.5,416.4,19.7,417.6,19.7,419.1C19.7,419.1,19.7,419.1,19.7,419.1z M19.7,448.4c0,1.5-1.2,2.7-2.7,2.7c-1.5,0-2.7-1.2-2.7-2.7
			c0-1.5,1.2-2.7,2.7-2.7C18.5,445.7,19.7,446.9,19.7,448.4C19.7,448.4,19.7,448.4,19.7,448.4L19.7,448.4z"/>
	</g>
	<g id="SVGRepo_iconCarrier-66">
		<path class="st1" d="M525.1,520.5v16 M517.1,528.5h16 M521.4,510.5h7.5c0.9,0.1,1.9,0,2.8-0.3c0.5-0.3,0.9-0.7,1.2-1.2
			c0.3-0.9,0.4-1.9,0.3-2.8v-7.5c0.1-0.9,0-1.9-0.3-2.8c-0.3-0.5-0.7-0.9-1.2-1.2c-0.9-0.3-1.9-0.4-2.8-0.3h-7.5
			c-0.9-0.1-1.9,0-2.8,0.3c-0.5,0.3-0.9,0.7-1.2,1.2c-0.3,0.9-0.4,1.9-0.3,2.8v7.5c-0.1,0.9,0,1.9,0.3,2.8c0.3,0.5,0.7,0.9,1.2,1.2
			C519.5,510.5,520.4,510.6,521.4,510.5z M494.4,510.5h7.5c0.9,0.1,1.9,0,2.8-0.3c0.5-0.3,0.9-0.7,1.2-1.2c0.3-0.9,0.4-1.9,0.3-2.8
			v-7.5c0.1-0.9,0-1.9-0.3-2.8c-0.3-0.5-0.7-0.9-1.2-1.2c-0.9-0.3-1.9-0.4-2.8-0.3h-7.5c-0.9-0.1-1.9,0-2.8,0.3
			c-0.5,0.3-0.9,0.7-1.2,1.2c-0.3,0.9-0.4,1.9-0.3,2.8v7.5c-0.1,0.9,0,1.9,0.3,2.8c0.3,0.5,0.7,0.9,1.2,1.2
			C492.5,510.5,493.4,510.6,494.4,510.5z M494.4,536.5h7.5c0.9,0.1,1.9,0,2.8-0.3c0.5-0.3,0.9-0.7,1.2-1.2c0.3-0.9,0.4-1.9,0.3-2.8
			v-7.5c0.1-0.9,0-1.9-0.3-2.8c-0.3-0.5-0.7-0.9-1.2-1.2c-0.9-0.3-1.9-0.4-2.8-0.3h-7.5c-0.9-0.1-1.9,0-2.8,0.3
			c-0.5,0.3-0.9,0.7-1.2,1.2c-0.3,0.9-0.4,1.9-0.3,2.8v7.5c-0.1,0.9,0,1.9,0.3,2.8c0.3,0.5,0.7,0.9,1.2,1.2
			C492.5,536.5,493.4,536.6,494.4,536.5z"/>
	</g>
	<g id="SVGRepo_iconCarrier-67">
		<path class="st1" d="M39,449.8h-1.6c-0.1,0-0.2,0-0.3,0c-0.1,0-0.1-0.1-0.1-0.1c0-0.1,0-0.2,0-0.3v-1.6 M38,449.1l-0.1-0.2
			l-0.1-0.1l0,0l-0.1,0.1l-0.3,0.3l0,0l0,0c0,0,0,0-0.4,0v0.2c0.4,0,0.4,0.1,0.4,0.1l0,0c0,0,0,0,0.1,0.1h0.8c0-0.1,0.1-0.1,0.1-0.1
			l0,0c0,0,0,0-0.5-0.1v-0.2c0.5,0,0.5,0,0.5,0l0,0l0,0l-0.1-0.1l0,0c0,0-0.1,0-0.1,0l0,0l0,0c0,0-0.1,0-0.1,0H38z"/>
	</g>
	<g id="SVGRepo_iconCarrier-68">
		<path class="st1" d="M408.5,536.5c0-10.3,8.4-18.7,18.7-18.7c0.9,0,1.8,0.1,2.7,0.2 M437.8,499.2c0,5.9-4.8,10.7-10.7,10.7
			s-10.7-4.8-10.7-10.7s4.8-10.7,10.7-10.7c0,0,0,0,0,0C433,488.5,437.8,493.3,437.8,499.2L437.8,499.2z M431.4,536.5l5.4-1.1
			c0.3-0.1,0.6-0.1,0.9-0.2c0.2-0.1,0.4-0.2,0.5-0.3c0.3-0.2,0.5-0.4,0.7-0.7l11.1-11.1c1.4-1.5,1.4-3.9-0.1-5.3
			c-1.5-1.4-3.7-1.4-5.2,0l-11.1,11.1c-0.2,0.2-0.4,0.4-0.6,0.7c-0.1,0.2-0.2,0.4-0.3,0.5c-0.1,0.3-0.2,0.6-0.2,0.9L431.4,536.5z"/>
	</g>
	<g id="SVGRepo_iconCarrier-69">
		<path class="st1" d="M350.4,501.5h5.5c7.5,0,13.5,6,13.6,13.4c0,7.5-6,13.5-13.4,13.6h-5.6 M340.4,501.5H335
			c-7.5,0-13.5,6-13.6,13.4c0,7.5,6,13.5,13.4,13.6h5.6 M334.4,515.5h22"/>
	</g>
	<g id="SVGRepo_iconCarrier-70">
		<path class="st1" d="M163.9,446.6c-0.1-0.9,0-1.9,0.3-2.8c0.3-0.5,0.7-0.9,1.2-1.1c0.9-0.3,1.9-0.4,2.9-0.3h2.2c1-0.1,2,0,2.9,0.3
			c0.5,0.3,0.9,0.7,1.2,1.1c0.3,0.9,0.4,1.8,0.3,2.8v12.6c0.1,0.9,0,1.9-0.3,2.8c-0.3,0.5-0.7,0.9-1.2,1.1c-0.9,0.3-1.9,0.4-2.9,0.3
			h-2.2c-1,0.1-2,0-2.9-0.3c-0.5-0.2-0.9-0.6-1.2-1.1c-0.3-0.9-0.4-1.8-0.3-2.8V446.6z"/>
		<path class="st1" d="M182.9,420.7c-0.1-0.9,0-1.9,0.3-2.8c0.3-0.5,0.7-0.9,1.2-1.2c0.9-0.3,1.9-0.4,2.9-0.3h2.2c1-0.1,2,0,2.9,0.3
			c0.5,0.3,0.9,0.7,1.2,1.2c0.3,0.9,0.4,1.9,0.3,2.8v39.5c0.1,0.9,0,1.9-0.3,2.8c-0.3,0.5-0.7,0.9-1.2,1.2c-0.9,0.3-1.9,0.4-2.9,0.3
			h-2.2c-1,0.1-2,0-2.9-0.3c-0.5-0.3-0.9-0.7-1.2-1.2c-0.3-0.9-0.4-1.9-0.3-2.8V420.7z"/>
		<path class="st1" d="M200.9,436.7c-0.1-0.9,0-1.9,0.3-2.8c0.3-0.5,0.7-0.9,1.2-1.2c0.9-0.3,1.9-0.4,2.9-0.3h2.2c1-0.1,2,0,2.9,0.3
			c0.5,0.3,0.9,0.7,1.2,1.2c0.3,0.9,0.4,1.9,0.3,2.8v23.5c0.1,0.9,0,1.9-0.3,2.8c-0.3,0.5-0.7,0.9-1.2,1.2c-0.9,0.3-1.9,0.4-2.9,0.3
			h-2.2c-1,0.1-2,0-2.9-0.3c-0.5-0.3-0.9-0.7-1.2-1.2c-0.3-0.9-0.4-1.9-0.3-2.8V436.7z"/>
	</g>
	<g id="SVGRepo_iconCarrier-71">
		<path class="st1" d="M269,518.5v8 M269,510.5L269,510.5 M271,488.5h-12.6c-3,0-4.4,0-5.6,0.6c-1,0.5-1.8,1.3-2.3,2.3
			c-0.5,1.1-0.5,2.6-0.5,5.6v31c0,3,0,4.5,0.6,5.6c0.5,1,1.3,1.8,2.3,2.3c1.1,0.6,2.6,0.6,5.6,0.6h20.1c3,0,4.4,0,5.6-0.6
			c1-0.5,1.8-1.3,2.3-2.3c0.6-1.1,0.6-2.6,0.6-5.6v-23.5 M271.3,488l16,16 M271,488.5v11.7c-0.1,0.9,0,1.9,0.3,2.8
			c0.3,0.5,0.7,0.9,1.2,1.2c0.9,0.3,1.9,0.4,2.8,0.3H287"/>
	</g>
	<g id="SVGRepo_iconCarrier-72">
		<path class="st1" d="M271,456.4L271,456.4 M263.5,464.4h14.9c3,0,4.5,0,5.6-0.6c1-0.5,1.8-1.3,2.3-2.3c0.6-1.1,0.6-2.6,0.6-5.6
			V425c0-3,0-4.5-0.6-5.6c-0.5-1-1.3-1.8-2.3-2.3c-1.1-0.6-2.6-0.6-5.6-0.6h-14.9c-3,0-4.5,0-5.6,0.6c-1,0.5-1.8,1.3-2.3,2.3
			c-0.6,1.1-0.6,2.6-0.6,5.6v30.9c0,3,0,4.5,0.6,5.6c0.5,1,1.3,1.8,2.3,2.3C259.1,464.4,260.6,464.4,263.5,464.4L263.5,464.4z"/>
	</g>
	<g id="SVGRepo_iconCarrier-73">
		<path class="st1" d="M446.8,456.4c3.7-7.2,0.8-16.1-6.4-19.7c-7.2-3.7-16.1-0.8-19.7,6.4c-3.7,7.2-0.8,16.1,6.4,19.7
			c2.2,1.1,4.6,1.7,7,1.6h17C449.1,462.1,447.6,459.4,446.8,456.4 M445.3,440.4c2.2-10.8-4.8-21.4-15.6-23.6
			c-10.8-2.2-21.4,4.8-23.6,15.6c-0.3,1.3-0.4,2.6-0.4,4c0,2.3,0.4,4.5,1.1,6.7c2.9,8-3.8,13.3-3.8,13.3h17"/>
	</g>
	<g id="SVGRepo_iconCarrier-74">
		<path class="st1" d="M85.6,464l34.7-34.7l13.3,11.1 M85.6,464.5h24c13.1,0,23.8-10.5,24-23.5 M85.6,464c0,0,4.2-10,2.5-13.3
			c-5.9-11.9-1-26.3,10.9-32.2s26.3-1,32.2,10.9c1.6,3.3,2.5,6.9,2.5,10.6c0,0.1,0,0.3,0,0.5 M107,442.6l-9.3-8l-11.3,11.1"/>
	</g>
	<g id="SVGRepo_iconCarrier-75">
		<path class="st1" d="M567.1,429.9c0-3,0-4.4,0.6-5.6c0.5-1,1.3-1.8,2.3-2.3c1.1-0.6,2.6-0.6,5.6-0.6h30.9c3,0,4.5,0,5.6,0.6
			c1,0.5,1.8,1.3,2.3,2.3c0.6,1.1,0.6,2.6,0.6,5.6V450c0,3,0,4.4-0.6,5.6c-0.5,1-1.3,1.8-2.3,2.3c-1.1,0.6-2.6,0.6-5.6,0.6h-31
			c-3,0-4.5,0-5.6-0.6c-1-0.5-1.8-1.3-2.3-2.3c-0.6-1.1-0.6-2.6-0.6-5.6L567.1,429.9z"/>
		<path class="st1" d="M585.7,431.6l-8,8l8,8 M596.4,431.6l8,8l-8,8"/>
	</g>
	<g id="SVGRepo_iconCarrier-76">
		<path class="st1" d="M332.2,432.4l-10.7,9.8l10.7,11.5 M358.8,432.4l10.7,9.8l-10.7,11.5 M350.8,421.8l-10.7,42.7"/>
	</g>
	<g id="SVGRepo_iconCarrier-77">
		<path class="st1" d="M747.2,464.4v-5c0.1-7.5-5.9-13.6-13.3-13.7c-7.5-0.1-13.6,5.9-13.7,13.3v5.3L747.2,464.4z M747.2,464.4h21
			v-2.7c0.2-7.2-5.5-13.1-12.7-13.3c-0.2,0-0.4,0-0.7,0c-3.7,0-7.2,1.6-9.6,4.4 M741.6,430c0,4.4-3.6,8-8,8s-8-3.6-8-8s3.6-8,8-8
			S741.6,425.6,741.6,430z M760.2,435.3c0,2.9-2.4,5.3-5.3,5.3c-2.9,0-5.3-2.4-5.3-5.3c0-2.9,2.4-5.3,5.3-5.3
			C757.8,430,760.2,432.4,760.2,435.3L760.2,435.3z"/>
	</g>
	<g id="SVGRepo_iconCarrier-78">
		<path class="st1" d="M509,453.4v11 M498,464.4h22 M493.5,453.4h30.9c3,0,4.5,0,5.6-0.6c1-0.5,1.8-1.3,2.3-2.3
			c0.6-1.1,0.6-2.6,0.6-5.6v-20.1c0-3,0-4.4-0.6-5.6c-0.5-1-1.3-1.8-2.3-2.3c-1.1-0.6-2.6-0.6-5.6-0.6h-30.9c-3,0-4.5,0-5.6,0.6
			c-1,0.5-1.8,1.3-2.3,2.3c-0.6,1.1-0.6,2.6-0.6,5.6V445c0,3,0,4.4,0.6,5.6c0.5,1,1.3,1.8,2.3,2.3
			C489.1,453.4,490.6,453.4,493.5,453.4L493.5,453.4z"/>
	</g>
	<g id="SVGRepo_iconCarrier-79">
		<path class="st1" d="M770.2,501.8h-8.5 M770.2,512.5h-8 M770.2,523.1h-8.5 M730.7,501.8h-8.5 M735.6,497v-8.5 M735.6,536.5v-8.6
			 M746.3,496.5v-8 M746.3,536.5v-8 M756.9,497v-8.5 M756.9,536.5V528 M730.2,512.5h-8 M730.7,523.2h-8.5 M743,528.5h6.4
			c4.5,0,6.7,0,8.4-0.9c1.5-0.8,2.7-2,3.5-3.5c0.9-1.7,0.9-4,0.9-8.4v-6.4c0-4.5,0-6.7-0.9-8.4c-0.8-1.5-2-2.7-3.5-3.5
			c-1.7-0.9-4-0.9-8.4-0.9H743c-4.5,0-6.7,0-8.4,0.9c-1.5,0.8-2.7,2-3.5,3.5c-0.9,1.7-0.9,4-0.9,8.4v6.4c0,4.5,0,6.7,0.9,8.4
			c0.8,1.5,2,2.7,3.5,3.5C736.3,528.5,738.5,528.5,743,528.5L743,528.5z M740.9,507.2h10.6v10.6h-10.6V507.2z"/>
	</g>
	<g id="SVGRepo_iconCarrier-80">
		<path class="st1" d="M664.4,449.9v-26.3c0-4.2,3.4-7.7,7.7-7.6c0.6,0,1.2,0.1,1.8,0.2l13.5,3.4c5.3,1.3,9,6,9,11.5v15.7
			c0,9.8-7.9,17.7-17.7,17.7c-0.3,0-0.5,0-0.8,0C670.4,464.1,664.4,457.3,664.4,449.9z M678.4,464.4h-1c-13.3,0-24-8.5-24-18.9
			c0-6.6,4.2-12.4,10.7-15.7 M680.4,429.4v6"/>
	</g>
	<g id="SVGRepo_iconCarrier-81">
		<path class="st1" d="M191,536.5v-5c0.1-7.5-5.9-13.6-13.3-13.7c-7.5-0.1-13.6,5.9-13.7,13.3v5.3L191,536.5z M191,536.5h21v-2.7
			c0.1-7.3-5.7-13.2-13-13.3c-3.8-0.1-7.4,1.5-10,4.3 M185.3,502c0,4.4-3.6,8-8,8s-8-3.6-8-8s3.6-8,8-8S185.3,497.6,185.3,502z
			 M204,507.4c0,2.9-2.4,5.3-5.3,5.4c-2.9,0-5.3-2.4-5.3-5.3c0-2.9,2.4-5.3,5.3-5.4c0,0,0,0,0,0C201.6,502,204,504.4,204,507.4z"/>
	</g>
	<g id="SVGRepo_iconCarrier-82">
		<path class="st1" d="M85.6,508c0-3,0-4.5,0.6-5.6c0.5-1,1.3-1.8,2.3-2.3c1.2-0.6,2.6-0.6,5.6-0.6h30.9c3,0,4.5,0,5.6,0.6
			c1,0.5,1.8,1.3,2.3,2.3c0.6,1.1,0.6,2.6,0.6,5.6v20c0,3,0,4.4-0.6,5.6c-0.5,1-1.3,1.8-2.3,2.3c-1.1,0.6-2.6,0.6-5.6,0.6H94.2
			c-3,0-4.5,0-5.6-0.6c-1-0.5-1.8-1.3-2.3-2.3c-0.6-1.1-0.6-2.6-0.6-5.6V508z"/>
		<path class="st1" d="M104.3,509.7l-8,8l8,8 M115,509.7l8,8l-8,8"/>
	</g>
	<g id="SVGRepo_iconCarrier-83">
		<path class="st1" d="M33.3,525.5v11 M22.3,536.5h22 M17.9,525.5h30.9c3,0,4.5,0,5.6-0.6c1-0.5,1.8-1.3,2.3-2.3
			c0.6-1.1,0.6-2.6,0.6-5.6v-20c0-3,0-4.5-0.6-5.6c-0.5-1-1.3-1.8-2.3-2.3c-1.1-0.6-2.6-0.6-5.6-0.6H17.9c-3,0-4.5,0-5.6,0.6
			c-1,0.5-1.8,1.3-2.3,2.3c-0.6,1.1-0.6,2.6-0.6,5.6v20c0,3,0,4.4,0.6,5.6c0.5,1,1.3,1.8,2.3,2.3C13.4,525.5,14.9,525.5,17.9,525.5z
			"/>
	</g>
	<g id="SVGRepo_iconCarrier-84">
		<path class="st1" d="M25.3,593v-26.3c0-4.2,3.4-7.7,7.7-7.7c0.6,0,1.3,0.1,1.9,0.2l13.5,3.4c5.3,1.3,9,6,9,11.5v15.7
			c0,9.8-7.9,17.7-17.7,17.7c-0.3,0-0.5,0-0.8,0C31.4,607.2,25.3,600.5,25.3,593z M39.3,607.5h-1c-13.3,0-24-8.5-24-18.9
			c0-6.6,4.2-12.3,10.7-15.7 M41.3,572.5v6"/>
	</g>
	<g id="SVGRepo_iconCarrier-85">
		<path class="st1" d="M117.6,599.6L117.6,599.6 M110.2,607.6h14.9c3,0,4.5,0,5.6-0.6c1-0.5,1.8-1.3,2.3-2.3
			c0.6-1.1,0.6-2.6,0.6-5.6v-30.8c0-3,0-4.5-0.6-5.6c-0.5-1-1.3-1.8-2.3-2.3c-1.1-0.6-2.6-0.6-5.6-0.6h-14.9c-3,0-4.5,0-5.6,0.6
			c-1,0.5-1.8,1.3-2.3,2.3c-0.6,1.1-0.6,2.6-0.6,5.6v30.8c0,3,0,4.5,0.6,5.6c0.5,1,1.3,1.8,2.3,2.3
			C105.7,607.6,107.2,607.6,110.2,607.6L110.2,607.6z"/>
	</g>
	<g id="SVGRepo_iconCarrier-86">
		<path class="st1" d="M212,572.8h-8.5 M212,583.6h-8 M212,594.2h-8.5 M172.5,572.8H164 M177.4,568v-8.5 M177.4,607.6V599
			 M188,567.6v-8 M188,607.6v-8 M198.6,568v-8.5 M198.6,607.5V599 M172,583.6h-8 M172.5,594.2H164 M184.8,599.6h6.4
			c4.5,0,6.7,0,8.4-0.9c1.5-0.8,2.7-2,3.5-3.5c0.9-1.7,0.9-4,0.9-8.4v-6.4c0-4.5,0-6.7-0.9-8.4c-0.8-1.5-2-2.7-3.5-3.5
			c-1.7-0.9-4-0.9-8.4-0.9h-6.4c-4.5,0-6.7,0-8.4,0.9c-1.5,0.8-2.7,2-3.5,3.5c-0.9,1.7-0.9,4-0.9,8.4v6.4c0,4.5,0,6.7,0.9,8.4
			c0.8,1.5,2,2.7,3.5,3.5C178,599.6,180.3,599.6,184.8,599.6L184.8,599.6z M182.6,578.2h10.6v10.6h-10.7L182.6,578.2z"/>
	</g>
	<g id="SVGRepo_iconCarrier-87">
		<path class="st1" d="M239.4,579c0-3,0-4.4,0.6-5.6c0.5-1,1.3-1.8,2.3-2.3c1.1-0.6,2.6-0.6,5.6-0.6h30.9c3,0,4.5,0,5.6,0.6
			c1,0.5,1.8,1.3,2.3,2.3c0.6,1.1,0.6,2.6,0.6,5.6v20.1c0,3,0,4.4-0.6,5.6c-0.5,1-1.3,1.8-2.3,2.3c-1.1,0.6-2.6,0.6-5.6,0.6h-30.9
			c-3,0-4.5,0-5.6-0.6c-1-0.5-1.8-1.3-2.3-2.3c-0.6-1.1-0.6-2.6-0.6-5.6V579z"/>
		<path class="st1" d="M258,580.8l-8,8l8,8 M268.7,580.8l8,8l-8,8"/>
	</g>
	<g id="SVGRepo_iconCarrier-88">
		<path class="st1" d="M321.5,607.1l34.6-34.7l13.3,11.1 M321.5,607.6h24c13.1,0,23.8-10.5,24-23.5 M321.5,607.1
			c0,0,4.1-10,2.5-13.3c-5.9-11.9-1-26.3,10.8-32.2c11.9-5.9,26.3-1,32.2,10.8c1.6,3.3,2.5,7,2.5,10.7v0.5 M342.8,585.8l-9.3-8
			l-11.3,11.1"/>
	</g>
	<g id="SVGRepo_iconCarrier-89">
		<path class="st1" d="M430.2,607.6v-5c0.1-7.5-5.9-13.6-13.3-13.7c-7.5-0.1-13.6,5.9-13.7,13.3l0,0v5.3L430.2,607.6z M430.2,607.6
			h21v-2.7c0.1-7.3-5.7-13.2-13-13.3c-3.8-0.1-7.4,1.5-10,4.3 M424.5,573.1c0,4.4-3.6,8-8,8s-8-3.6-8-8s3.6-8,8-8
			S424.5,568.7,424.5,573.1C424.5,573.1,424.5,573.1,424.5,573.1L424.5,573.1z M443.2,578.4c0,2.9-2.4,5.3-5.3,5.3
			c-2.9,0-5.3-2.4-5.3-5.3c0-2.9,2.4-5.3,5.3-5.3C440.8,573.1,443.2,575.5,443.2,578.4C443.2,578.4,443.2,578.4,443.2,578.4
			L443.2,578.4z"/>
	</g>
	<g id="SVGRepo_iconCarrier-90">
		<path class="st1" d="M567.1,589.8c-0.1-0.9,0-1.9,0.3-2.8c0.3-0.5,0.7-0.9,1.2-1.1c0.9-0.3,1.9-0.4,2.9-0.3h2.2c1-0.1,2,0,2.9,0.3
			c0.5,0.2,0.9,0.6,1.2,1.1c0.3,0.9,0.4,1.8,0.3,2.8v12.6c0.1,0.9,0,1.9-0.3,2.8c-0.3,0.5-0.7,0.9-1.2,1.1c-0.9,0.3-1.9,0.4-2.9,0.3
			h-2.2c-1,0.1-2,0-2.9-0.3c-0.5-0.2-0.9-0.6-1.2-1.1c-0.3-0.9-0.4-1.8-0.3-2.8V589.8z"/>
		<path class="st1" d="M586.1,563.8c-0.1-0.9,0-1.9,0.3-2.8c0.3-0.5,0.7-0.9,1.2-1.2c0.9-0.3,1.9-0.4,2.9-0.3h2.2c1-0.1,2,0,2.9,0.3
			c0.5,0.3,0.9,0.7,1.2,1.2c0.3,0.9,0.4,1.9,0.3,2.8v39.5c0.1,0.9,0,1.9-0.3,2.8c-0.3,0.5-0.7,0.9-1.2,1.2c-0.9,0.3-1.9,0.4-2.9,0.3
			h-2.2c-1,0.1-2,0-2.9-0.3c-0.5-0.3-0.9-0.7-1.2-1.2c-0.3-0.9-0.4-1.9-0.3-2.8V563.8z"/>
		<path class="st1" d="M604.1,579.8c-0.1-0.9,0-1.9,0.3-2.8c0.3-0.5,0.7-0.9,1.2-1.2c0.9-0.3,1.9-0.4,2.9-0.3h2.2c1-0.1,2,0,2.9,0.3
			c0.5,0.3,0.9,0.7,1.2,1.2c0.3,0.9,0.4,1.9,0.3,2.8v23.5c0.1,0.9,0,1.9-0.3,2.8c-0.3,0.5-0.7,0.9-1.2,1.2c-0.9,0.3-1.9,0.4-2.9,0.3
			h-2.2c-1,0.1-2,0-2.9-0.3c-0.5-0.3-0.9-0.7-1.2-1.2c-0.3-0.9-0.4-1.9-0.3-2.8V579.8z"/>
	</g>
	<g id="SVGRepo_iconCarrier-91">
		<path class="st1" d="M659,575.6l-10.7,9.8l10.7,11.5 M685.7,575.6l10.7,9.8l-10.7,11.5 M677.7,564.9L667,607.6"/>
	</g>
	<g id="SVGRepo_iconCarrier-92">
		<path class="st1" d="M745.6,589.6v8 M745.6,581.6L745.6,581.6 M747.6,559.6H735c-3,0-4.4,0-5.6,0.6c-1,0.5-1.8,1.3-2.3,2.3
			c-0.6,1.1-0.6,2.6-0.6,5.6V599c0,3,0,4.5,0.6,5.6c0.5,1,1.3,1.8,2.3,2.3c1.1,0.6,2.6,0.6,5.6,0.6h20.1c3,0,4.4,0,5.6-0.6
			c1-0.5,1.8-1.3,2.3-2.3c0.6-1.1,0.6-2.6,0.6-5.6v-23.4 M747.9,559.1l16,16 M747.6,559.6v11.7c-0.1,0.9,0,1.9,0.3,2.8
			c0.3,0.5,0.7,0.9,1.2,1.2c0.9,0.3,1.9,0.4,2.8,0.3h11.7"/>
	</g>
	<g id="SVGRepo_iconCarrier-93">
		<path class="st1" d="M514,575h5.5c7.5,0,13.5,6,13.6,13.4c0,7.5-6,13.5-13.4,13.6H514 M504,575h-5.5c-7.5,0-13.5,6-13.6,13.4
			c0,7.5,6,13.5,13.4,13.6h5.6 M498,589h22"/>
	</g>
	<g id="SVGRepo_iconCarrier-94">
		<path class="st1" d="M662.4,721.5l4.9,4.7l11.1-10.7 M669.9,744.5h-23.5c0,0,4.2-10,2.5-13.3c-5.9-11.9-1-26.3,10.9-32.2
			c11.9-5.9,26.3-1,32.2,10.9c2.1,4.3,2.9,9.1,2.3,13.8C692.7,735.2,681.5,744.5,669.9,744.5z"/>
	</g>
	<g id="SVGRepo_iconCarrier-95">
		<path class="st1" d="M589.1,713.2c-2-2.6-5.7-3-8.3-1c0,0-0.1,0.1-0.1,0.1c-2.7,2.2-3.1,6-1,8.7c2.1,2.3,4.2,4.5,6.6,6.5
			c0.6,0.6,1.2,1.1,2,1.5c0.5,0.1,1,0.1,1.5,0c0.8-0.3,1.4-0.8,2-1.5c2.3-2,4.5-4.2,6.6-6.5c2.1-2.7,1.7-6.6-0.9-8.7c0,0,0,0,0,0
			c-2.5-2.1-6.2-1.8-8.3,0.7C589.1,713.1,589.1,713.2,589.1,713.2z"/>
		<path class="st1" d="M613.1,720.5c0,13.3-10.7,24-24,24h-24c0,0,4.2-10,2.5-13.3c-5.9-11.9-1-26.3,10.8-32.2
			c11.9-5.9,26.3-1,32.2,10.8C612.2,713.1,613.1,716.8,613.1,720.5L613.1,720.5z"/>
	</g>
	<g id="SVGRepo_iconCarrier-96">
		<path class="st1" d="M15.3,627.4L15.3,627.4 M7.5,643.1c1.5-4.2,6-6.4,10.2-4.9c2.3,0.8,4.1,2.6,4.9,4.9 M15.3,656.4L15.3,656.4
			 M7.5,672.4c1.5-4.2,6-6.4,10.2-4.9c2.3,0.8,4.1,2.6,4.9,4.9 M35.6,639.4h15.5c0.9,0.1,1.9,0,2.8-0.3c0.5-0.3,0.9-0.7,1.1-1.2
			c0.3-0.9,0.4-1.9,0.3-2.9v-2.2c0.1-1,0-2-0.3-2.9c-0.2-0.5-0.7-0.9-1.2-1.2c-0.9-0.3-1.9-0.4-2.8-0.3H35.6c-0.9-0.1-1.9,0-2.8,0.3
			c-0.5,0.3-0.9,0.7-1.2,1.2c-0.3,0.9-0.4,1.9-0.3,2.9v2.2c-0.1,1,0,2,0.3,2.9c0.3,0.5,0.7,0.9,1.2,1.2
			C33.7,639.4,34.7,639.5,35.6,639.4L35.6,639.4z M35.6,668.4h15.5c0.9,0.1,1.9,0,2.8-0.3c0.5-0.3,0.9-0.7,1.1-1.2
			c0.3-0.9,0.4-1.9,0.3-2.9v-2.2c0.1-1,0-2-0.3-2.9c-0.2-0.5-0.7-0.9-1.2-1.2c-0.9-0.3-1.9-0.4-2.8-0.3H35.6c-0.9-0.1-1.9,0-2.8,0.3
			c-0.5,0.3-0.9,0.7-1.2,1.2c-0.3,0.9-0.4,1.9-0.3,2.9v2.2c-0.1,1,0,2,0.3,2.9c0.3,0.5,0.7,0.9,1.2,1.2
			C33.7,668.4,34.7,668.5,35.6,668.4L35.6,668.4z M17.7,627.1c0,1.5-1.2,2.7-2.7,2.7s-2.7-1.2-2.7-2.7c0-1.5,1.2-2.7,2.7-2.7
			C16.5,624.4,17.7,625.6,17.7,627.1C17.7,627.1,17.7,627.1,17.7,627.1z M17.7,656.4c0,1.5-1.2,2.7-2.7,2.7c-1.5,0-2.7-1.2-2.7-2.7
			c0-1.5,1.2-2.7,2.7-2.7C16.5,653.7,17.7,654.9,17.7,656.4C17.7,656.4,17.7,656.4,17.7,656.4L17.7,656.4z"/>
	</g>
	<g id="SVGRepo_iconCarrier-97">
		<path class="st1" d="M523.1,728.5v16 M515.1,736.5h16 M519.4,718.5h7.5c0.9,0.1,1.9,0,2.8-0.3c0.5-0.3,0.9-0.7,1.2-1.2
			c0.3-0.9,0.4-1.9,0.3-2.8v-7.5c0.1-0.9,0-1.9-0.3-2.8c-0.3-0.5-0.7-0.9-1.2-1.2c-0.9-0.3-1.9-0.4-2.8-0.3h-7.5
			c-0.9-0.1-1.9,0-2.8,0.3c-0.5,0.3-0.9,0.7-1.2,1.2c-0.3,0.9-0.4,1.9-0.3,2.8v7.5c-0.1,0.9,0,1.9,0.3,2.8c0.3,0.5,0.7,0.9,1.2,1.2
			C517.5,718.5,518.4,718.6,519.4,718.5z M492.4,718.5h7.5c0.9,0.1,1.9,0,2.8-0.3c0.5-0.3,0.9-0.7,1.2-1.2c0.3-0.9,0.4-1.9,0.3-2.8
			v-7.5c0.1-0.9,0-1.9-0.3-2.8c-0.3-0.5-0.7-0.9-1.2-1.2c-0.9-0.3-1.9-0.4-2.8-0.3h-7.5c-0.9-0.1-1.9,0-2.8,0.3
			c-0.5,0.3-0.9,0.7-1.2,1.2c-0.3,0.9-0.4,1.9-0.3,2.8v7.5c-0.1,0.9,0,1.9,0.3,2.8c0.3,0.5,0.7,0.9,1.2,1.2
			C490.5,718.5,491.4,718.6,492.4,718.5z M492.4,744.5h7.5c0.9,0.1,1.9,0,2.8-0.3c0.5-0.3,0.9-0.7,1.2-1.2c0.3-0.9,0.4-1.9,0.3-2.8
			v-7.5c0.1-0.9,0-1.9-0.3-2.8c-0.3-0.5-0.7-0.9-1.2-1.2c-0.9-0.3-1.9-0.4-2.8-0.3h-7.5c-0.9-0.1-1.9,0-2.8,0.3
			c-0.5,0.3-0.9,0.7-1.2,1.2c-0.3,0.9-0.4,1.9-0.3,2.8v7.5c-0.1,0.9,0,1.9,0.3,2.8c0.3,0.5,0.7,0.9,1.2,1.2
			C490.5,744.5,491.4,744.6,492.4,744.5z"/>
	</g>
	<g id="SVGRepo_iconCarrier-98">
		<path class="st1" d="M37,657.8h-1.6c-0.1,0-0.2,0-0.3,0c-0.1,0-0.1-0.1-0.1-0.1c0-0.1,0-0.2,0-0.3v-1.6 M36,657.1l-0.1-0.2
			l-0.1-0.1l0,0l-0.1,0.1l-0.3,0.3l0,0l0,0c0,0,0,0-0.4,0v0.2c0.4,0,0.4,0.1,0.4,0.1l0,0c0,0,0,0,0.1,0.1h0.8c0-0.1,0.1-0.1,0.1-0.1
			l0,0c0,0,0,0-0.5-0.1v-0.2c0.5,0,0.5,0,0.5,0l0,0l0,0l-0.1-0.1l0,0c0,0-0.1,0-0.1,0l0,0l0,0c0,0-0.1,0-0.1,0H36z"/>
	</g>
	<g id="SVGRepo_iconCarrier-99">
		<path class="st1" d="M406.5,744.5c0-10.3,8.4-18.7,18.7-18.7c0.9,0,1.8,0.1,2.7,0.2 M435.8,707.2c0,5.9-4.8,10.7-10.7,10.7
			c-5.9,0-10.7-4.8-10.7-10.7c0-5.9,4.8-10.7,10.7-10.7c0,0,0,0,0,0C431,696.5,435.8,701.3,435.8,707.2L435.8,707.2z M429.4,744.5
			l5.4-1.1c0.3-0.1,0.6-0.1,0.9-0.2c0.2-0.1,0.4-0.2,0.5-0.3c0.3-0.2,0.5-0.4,0.7-0.7l11.1-11.1c1.4-1.5,1.4-3.9-0.1-5.3
			c-1.5-1.4-3.7-1.4-5.2,0l-11.1,11.1c-0.2,0.2-0.4,0.4-0.6,0.7c-0.1,0.2-0.2,0.4-0.3,0.5c-0.1,0.3-0.2,0.6-0.2,0.9L429.4,744.5z"/>
	</g>
	<g id="SVGRepo_iconCarrier-100">
		<path class="st1" d="M348.4,709.5h5.5c7.5,0,13.5,6,13.6,13.4c0,7.5-6,13.5-13.4,13.6l0,0h-5.6 M338.4,709.5H333
			c-7.5,0-13.5,6-13.6,13.4c0,7.5,6,13.5,13.4,13.6l0,0h5.6 M332.4,723.5h22"/>
	</g>
	<g id="SVGRepo_iconCarrier-101">
		<path class="st1" d="M161.9,654.6c-0.1-0.9,0-1.9,0.3-2.8c0.3-0.5,0.7-0.9,1.2-1.2c0.9-0.3,1.9-0.4,2.9-0.3h2.2c1-0.1,2,0,2.9,0.3
			c0.5,0.3,0.9,0.7,1.2,1.2c0.3,0.9,0.4,1.8,0.3,2.8v12.6c0.1,0.9,0,1.9-0.3,2.8c-0.3,0.5-0.7,0.9-1.2,1.2c-0.9,0.3-1.9,0.4-2.9,0.3
			h-2.2c-1,0.1-2,0-2.9-0.3c-0.5-0.2-0.9-0.6-1.2-1.2c-0.3-0.9-0.4-1.8-0.3-2.8V654.6z"/>
		<path class="st1" d="M180.9,628.7c-0.1-0.9,0-1.9,0.3-2.8c0.3-0.5,0.7-0.9,1.2-1.2c0.9-0.3,1.9-0.4,2.9-0.3h2.2c1-0.1,2,0,2.9,0.3
			c0.5,0.3,0.9,0.7,1.2,1.2c0.3,0.9,0.4,1.9,0.3,2.8v39.5c0.1,0.9,0,1.9-0.3,2.8c-0.3,0.5-0.7,0.9-1.2,1.2c-0.9,0.3-1.9,0.4-2.9,0.3
			h-2.2c-1,0.1-2,0-2.9-0.3c-0.5-0.3-0.9-0.7-1.2-1.2c-0.3-0.9-0.4-1.9-0.3-2.8V628.7z"/>
		<path class="st1" d="M198.9,644.7c-0.1-0.9,0-1.9,0.3-2.8c0.3-0.5,0.7-0.9,1.2-1.2c0.9-0.3,1.9-0.4,2.9-0.3h2.2c1-0.1,2,0,2.9,0.3
			c0.5,0.3,0.9,0.7,1.2,1.2c0.3,0.9,0.4,1.9,0.3,2.8v23.5c0.1,0.9,0,1.9-0.3,2.8c-0.3,0.5-0.7,0.9-1.2,1.2c-0.9,0.3-1.9,0.4-2.9,0.3
			h-2.2c-1,0.1-2,0-2.9-0.3c-0.5-0.3-0.9-0.7-1.2-1.2c-0.3-0.9-0.4-1.9-0.3-2.8V644.7z"/>
	</g>
	<g id="SVGRepo_iconCarrier-102">
		<path class="st1" d="M267,726.5v8 M267,718.5L267,718.5 M269,696.5h-12.6c-3,0-4.4,0-5.6,0.6c-1,0.5-1.8,1.3-2.3,2.3
			c-0.5,1.1-0.5,2.6-0.5,5.6v31c0,3,0,4.5,0.6,5.6c0.5,1,1.3,1.8,2.3,2.3c1.1,0.6,2.6,0.6,5.6,0.6h20.1c3,0,4.4,0,5.6-0.6
			c1-0.5,1.8-1.3,2.3-2.3c0.6-1.1,0.6-2.6,0.6-5.6v-23.5 M269.3,696l16,16 M269,696.5v11.7c-0.1,0.9,0,1.9,0.3,2.8
			c0.3,0.5,0.7,0.9,1.2,1.2c0.9,0.3,1.9,0.4,2.8,0.3H285"/>
	</g>
	<g id="SVGRepo_iconCarrier-103">
		<path class="st1" d="M269,664.4L269,664.4 M261.5,672.4h14.9c3,0,4.5,0,5.6-0.6c1-0.5,1.8-1.3,2.3-2.3c0.6-1.1,0.6-2.6,0.6-5.6
			V633c0-3,0-4.5-0.6-5.6c-0.5-1-1.3-1.8-2.3-2.3c-1.1-0.6-2.6-0.6-5.6-0.6h-14.9c-3,0-4.5,0-5.6,0.6c-1,0.5-1.8,1.3-2.3,2.3
			c-0.6,1.1-0.6,2.6-0.6,5.6v30.9c0,3,0,4.5,0.6,5.6c0.5,1,1.3,1.8,2.3,2.3C257.1,672.4,258.6,672.4,261.5,672.4L261.5,672.4z"/>
	</g>
	<g id="SVGRepo_iconCarrier-104">
		<path class="st1" d="M444.8,664.4c3.7-7.2,0.8-16.1-6.4-19.7s-16.1-0.8-19.7,6.4c-3.7,7.2-0.8,16.1,6.4,19.7
			c2.2,1.1,4.6,1.7,7,1.6h17C447.1,670.1,445.6,667.4,444.8,664.4 M443.3,648.4c2.2-10.8-4.8-21.4-15.6-23.6
			c-10.8-2.2-21.4,4.8-23.6,15.6c-0.3,1.3-0.4,2.6-0.4,4c0,2.3,0.4,4.5,1.1,6.7c2.9,8-3.8,13.3-3.8,13.3h17"/>
	</g>
	<g id="SVGRepo_iconCarrier-105">
		<path class="st1" d="M83.6,672l34.7-34.7l13.3,11.1 M83.6,672.5h24c13.1,0,23.8-10.5,24-23.5 M83.6,672c0,0,4.2-10,2.5-13.3
			c-5.9-11.9-1-26.3,10.9-32.2s26.3-1,32.2,10.9c1.6,3.3,2.5,6.9,2.5,10.6c0,0.2,0,0.3,0,0.5 M105,650.6l-9.3-8l-11.3,11.1"/>
	</g>
	<g id="SVGRepo_iconCarrier-106">
		<path class="st1" d="M565.1,637.9c0-3,0-4.4,0.6-5.6c0.5-1,1.3-1.8,2.3-2.3c1.1-0.6,2.6-0.6,5.6-0.6h30.9c3,0,4.5,0,5.6,0.6
			c1,0.5,1.8,1.3,2.3,2.3c0.6,1.1,0.6,2.6,0.6,5.6V658c0,3,0,4.4-0.6,5.6c-0.5,1-1.3,1.8-2.3,2.3c-1.1,0.6-2.6,0.6-5.6,0.6h-31
			c-3,0-4.5,0-5.6-0.6c-1-0.5-1.8-1.3-2.3-2.3c-0.6-1.1-0.6-2.6-0.6-5.6L565.1,637.9z"/>
		<path class="st1" d="M583.7,639.6l-8,8l8,8 M594.4,639.6l8,8l-8,8"/>
	</g>
	<g id="SVGRepo_iconCarrier-107">
		<path class="st1" d="M330.2,640.4l-10.7,9.8l10.7,11.5 M356.8,640.4l10.7,9.8l-10.7,11.5 M348.8,629.8l-10.7,42.7"/>
	</g>
	<g id="SVGRepo_iconCarrier-108">
		<path class="st1" d="M745.2,672.4v-5c0.1-7.5-5.9-13.6-13.3-13.7c-7.5-0.1-13.6,5.9-13.7,13.3v5.3L745.2,672.4z M745.2,672.4h21
			v-2.7c0.2-7.2-5.5-13.1-12.7-13.3c-0.2,0-0.4,0-0.7,0c-3.7,0-7.2,1.6-9.6,4.3 M739.6,638c0,4.4-3.6,8-8,8s-8-3.6-8-8s3.6-8,8-8
			S739.6,633.6,739.6,638z M758.2,643.3c0,2.9-2.4,5.3-5.3,5.3c-2.9,0-5.3-2.4-5.3-5.3c0-2.9,2.4-5.3,5.3-5.3
			C755.8,638,758.2,640.4,758.2,643.3L758.2,643.3z"/>
	</g>
	<g id="SVGRepo_iconCarrier-109">
		<path class="st1" d="M507,661.4v11 M496,672.4h22 M491.5,661.4h30.9c3,0,4.5,0,5.6-0.6c1-0.5,1.8-1.3,2.3-2.3
			c0.6-1.1,0.6-2.6,0.6-5.6v-20.1c0-3,0-4.4-0.6-5.6c-0.5-1-1.3-1.8-2.3-2.3c-1.1-0.6-2.6-0.6-5.6-0.6h-30.9c-3,0-4.5,0-5.6,0.6
			c-1,0.5-1.8,1.3-2.3,2.3c-0.6,1.1-0.6,2.6-0.6,5.6V653c0,3,0,4.4,0.6,5.6c0.5,1,1.3,1.8,2.3,2.3
			C487.1,661.4,488.6,661.4,491.5,661.4L491.5,661.4z"/>
	</g>
	<g id="SVGRepo_iconCarrier-110">
		<path class="st1" d="M768.2,709.8h-8.5 M768.2,720.5h-8 M768.2,731.1h-8.5 M728.7,709.8h-8.5 M733.6,705v-8.5 M733.6,744.5v-8.6
			 M744.3,704.5v-8 M744.3,744.5v-8 M754.9,705v-8.5 M754.9,744.5V736 M728.2,720.5h-8 M728.7,731.2h-8.5 M741,736.5h6.4
			c4.5,0,6.7,0,8.4-0.9c1.5-0.8,2.7-2,3.5-3.5c0.9-1.7,0.9-4,0.9-8.4v-6.4c0-4.5,0-6.7-0.9-8.4c-0.8-1.5-2-2.7-3.5-3.5
			c-1.7-0.9-4-0.9-8.4-0.9H741c-4.5,0-6.7,0-8.4,0.9c-1.5,0.8-2.7,2-3.5,3.5c-0.9,1.7-0.9,4-0.9,8.4v6.4c0,4.5,0,6.7,0.9,8.4
			c0.8,1.5,2,2.7,3.5,3.5C734.3,736.5,736.5,736.5,741,736.5L741,736.5z M738.9,715.2h10.6v10.6h-10.6V715.2z"/>
	</g>
	<g id="SVGRepo_iconCarrier-111">
		<path class="st1" d="M662.4,657.9v-26.3c0-4.2,3.4-7.7,7.7-7.6c0.6,0,1.2,0.1,1.8,0.2l13.5,3.4c5.3,1.3,9,6,9,11.5v15.7
			c0,9.8-7.9,17.7-17.7,17.7c-0.3,0-0.5,0-0.8,0C668.4,672.1,662.4,665.3,662.4,657.9z M676.4,672.4h-1c-13.3,0-24-8.5-24-18.9
			c0-6.6,4.2-12.3,10.7-15.7 M678.4,637.4v6"/>
	</g>
	<g id="SVGRepo_iconCarrier-112">
		<path class="st1" d="M189,744.5v-5c0.1-7.5-5.9-13.6-13.3-13.7c-7.5-0.1-13.6,5.9-13.7,13.3l0,0v5.3L189,744.5z M189,744.5h21
			v-2.7c0.1-7.3-5.7-13.2-13-13.3c-3.8-0.1-7.4,1.5-10,4.3 M183.3,710c0,4.4-3.6,8-8,8s-8-3.6-8-8s3.6-8,8-8S183.3,705.6,183.3,710z
			 M202,715.3c0,2.9-2.4,5.3-5.3,5.3s-5.3-2.4-5.3-5.3c0-2.9,2.4-5.3,5.3-5.3c0,0,0,0,0,0C199.6,710,202,712.4,202,715.3z"/>
	</g>
	<g id="SVGRepo_iconCarrier-113">
		<path class="st1" d="M83.6,716c0-3,0-4.5,0.6-5.6c0.5-1,1.3-1.8,2.3-2.3c1.2-0.6,2.6-0.6,5.6-0.6h30.9c3,0,4.5,0,5.6,0.6
			c1,0.5,1.8,1.3,2.3,2.3c0.6,1.1,0.6,2.6,0.6,5.6v20c0,3,0,4.4-0.6,5.6c-0.5,1-1.3,1.8-2.3,2.3c-1.1,0.6-2.6,0.6-5.6,0.6H92.2
			c-3,0-4.5,0-5.6-0.6c-1-0.5-1.8-1.3-2.3-2.3c-0.6-1.1-0.6-2.6-0.6-5.6V716z"/>
		<path class="st1" d="M102.3,717.7l-8,8l8,8 M113,717.7l8,8l-8,8"/>
	</g>
	<g id="SVGRepo_iconCarrier-114">
		<path class="st1" d="M31.3,733.5v11 M20.3,744.5h22 M15.9,733.5h30.9c3,0,4.5,0,5.6-0.6c1-0.5,1.8-1.3,2.3-2.3
			c0.6-1.1,0.6-2.6,0.6-5.6v-20c0-3,0-4.5-0.6-5.6c-0.5-1-1.3-1.8-2.3-2.3c-1.1-0.6-2.6-0.6-5.6-0.6H15.9c-3,0-4.5,0-5.6,0.6
			c-1,0.5-1.8,1.3-2.3,2.3c-0.6,1.1-0.6,2.6-0.6,5.6v20c0,3,0,4.4,0.6,5.6c0.5,1,1.3,1.8,2.3,2.3C11.4,733.5,12.9,733.5,15.9,733.5z
			"/>
	</g>
	<g id="SVGRepo_iconCarrier-115">
		<path class="st1" d="M23.3,801v-26.3c0-4.2,3.4-7.7,7.7-7.7c0.6,0,1.3,0.1,1.9,0.2l13.5,3.4c5.3,1.3,9,6,9,11.5v15.7
			c0,9.8-7.9,17.7-17.7,17.7c-0.3,0-0.5,0-0.8,0C29.4,815.2,23.3,808.5,23.3,801z M37.3,815.5h-1c-13.3,0-24-8.5-24-18.9
			c0-6.6,4.2-12.3,10.7-15.7 M39.3,780.5v6"/>
	</g>
	<g id="SVGRepo_iconCarrier-116">
		<path class="st1" d="M115.6,807.6L115.6,807.6 M108.2,815.6h14.9c3,0,4.5,0,5.6-0.6c1-0.5,1.8-1.3,2.3-2.3
			c0.6-1.1,0.6-2.6,0.6-5.6v-30.8c0-3,0-4.5-0.6-5.6c-0.5-1-1.3-1.8-2.3-2.3c-1.1-0.6-2.6-0.6-5.6-0.6h-14.9c-3,0-4.5,0-5.6,0.6
			c-1,0.5-1.8,1.3-2.3,2.3c-0.6,1.1-0.6,2.6-0.6,5.6v30.8c0,3,0,4.5,0.6,5.6c0.5,1,1.3,1.8,2.3,2.3
			C103.7,815.6,105.2,815.6,108.2,815.6L108.2,815.6z"/>
	</g>
	<g id="SVGRepo_iconCarrier-117">
		<path class="st1" d="M210,780.8h-8.5 M210,791.6h-8 M210,802.2h-8.5 M170.5,780.8H162 M175.4,776v-8.5 M175.4,815.6V807
			 M186,775.6v-8 M186,815.6v-8 M196.6,776v-8.5 M196.6,815.5V807 M170,791.6h-8 M170.5,802.2H162 M182.8,807.6h6.4
			c4.5,0,6.7,0,8.4-0.9c1.5-0.8,2.7-2,3.5-3.5c0.9-1.7,0.9-4,0.9-8.4v-6.4c0-4.5,0-6.7-0.9-8.4c-0.8-1.5-2-2.7-3.5-3.5
			c-1.7-0.9-4-0.9-8.4-0.9h-6.4c-4.5,0-6.7,0-8.4,0.9c-1.5,0.8-2.7,2-3.5,3.5c-0.9,1.7-0.9,4-0.9,8.4v6.4c0,4.5,0,6.7,0.9,8.4
			c0.8,1.5,2,2.7,3.5,3.5C176,807.6,178.3,807.6,182.8,807.6L182.8,807.6z M180.6,786.2h10.6v10.6h-10.7L180.6,786.2z"/>
	</g>
	<g id="SVGRepo_iconCarrier-118">
		<path class="st1" d="M237.4,787c0-3,0-4.4,0.6-5.6c0.5-1,1.3-1.8,2.3-2.3c1.1-0.6,2.6-0.6,5.6-0.6h30.9c3,0,4.5,0,5.6,0.6
			c1,0.5,1.8,1.3,2.3,2.3c0.6,1.1,0.6,2.6,0.6,5.6v20.1c0,3,0,4.4-0.6,5.6c-0.5,1-1.3,1.8-2.3,2.3c-1.1,0.6-2.6,0.6-5.6,0.6h-30.9
			c-3,0-4.5,0-5.6-0.6c-1-0.5-1.8-1.3-2.3-2.3c-0.6-1.1-0.6-2.6-0.6-5.6V787z"/>
		<path class="st1" d="M256,788.8l-8,8l8,8 M266.7,788.8l8,8l-8,8"/>
	</g>
	<g id="SVGRepo_iconCarrier-119">
		<path class="st1" d="M319.5,815.1l34.6-34.7l13.3,11.1 M319.5,815.6h24c13.1,0,23.8-10.5,24-23.5 M319.5,815.1
			c0,0,4.1-10,2.5-13.3c-5.9-11.9-1-26.3,10.8-32.2c11.9-5.9,26.3-1,32.2,10.8c1.6,3.3,2.5,7,2.5,10.7v0.5 M340.8,793.8l-9.3-8
			l-11.3,11.1"/>
	</g>
	<g id="SVGRepo_iconCarrier-120">
		<path class="st1" d="M428.2,815.6v-5c0.1-7.5-5.9-13.6-13.3-13.7c-7.5-0.1-13.6,5.9-13.7,13.3v5.3L428.2,815.6z M428.2,815.6h21
			v-2.7c0.1-7.3-5.7-13.2-13-13.3c-3.8-0.1-7.4,1.5-10,4.3 M422.5,781.1c0,4.4-3.6,8-8,8s-8-3.6-8-8s3.6-8,8-8
			S422.5,776.7,422.5,781.1C422.5,781.1,422.5,781.1,422.5,781.1L422.5,781.1z M441.2,786.4c0,2.9-2.4,5.3-5.3,5.3
			c-2.9,0-5.3-2.4-5.3-5.3c0-2.9,2.4-5.3,5.3-5.3C438.8,781.1,441.2,783.5,441.2,786.4C441.2,786.4,441.2,786.4,441.2,786.4
			L441.2,786.4z"/>
	</g>
	<g id="SVGRepo_iconCarrier-121">
		<path class="st1" d="M565.1,797.8c-0.1-0.9,0-1.9,0.3-2.8c0.3-0.5,0.7-0.9,1.2-1.1c0.9-0.3,1.9-0.4,2.9-0.3h2.2c1-0.1,2,0,2.9,0.3
			c0.5,0.2,0.9,0.6,1.2,1.1c0.3,0.9,0.4,1.8,0.3,2.8v12.6c0.1,0.9,0,1.9-0.3,2.8c-0.3,0.5-0.7,0.9-1.2,1.1c-0.9,0.3-1.9,0.4-2.9,0.3
			h-2.2c-1,0.1-2,0-2.9-0.3c-0.5-0.2-0.9-0.6-1.2-1.1c-0.3-0.9-0.4-1.8-0.3-2.8V797.8z"/>
		<path class="st1" d="M584.1,771.8c-0.1-0.9,0-1.9,0.3-2.8c0.3-0.5,0.7-0.9,1.2-1.2c0.9-0.3,1.9-0.4,2.9-0.3h2.2c1-0.1,2,0,2.9,0.3
			c0.5,0.3,0.9,0.7,1.2,1.2c0.3,0.9,0.4,1.9,0.3,2.8v39.5c0.1,0.9,0,1.9-0.3,2.8c-0.3,0.5-0.7,0.9-1.2,1.2c-0.9,0.3-1.9,0.4-2.9,0.3
			h-2.2c-1,0.1-2,0-2.9-0.3c-0.5-0.3-0.9-0.7-1.2-1.2c-0.3-0.9-0.4-1.9-0.3-2.8V771.8z"/>
		<path class="st1" d="M602.1,787.8c-0.1-0.9,0-1.9,0.3-2.8c0.3-0.5,0.7-0.9,1.2-1.2c0.9-0.3,1.9-0.4,2.9-0.3h2.2c1-0.1,2,0,2.9,0.3
			c0.5,0.3,0.9,0.7,1.2,1.2c0.3,0.9,0.4,1.9,0.3,2.8v23.5c0.1,0.9,0,1.9-0.3,2.8c-0.3,0.5-0.7,0.9-1.2,1.2c-0.9,0.3-1.9,0.4-2.9,0.3
			h-2.2c-1,0.1-2,0-2.9-0.3c-0.5-0.3-0.9-0.7-1.2-1.2c-0.3-0.9-0.4-1.9-0.3-2.8V787.8z"/>
	</g>
	<g id="SVGRepo_iconCarrier-122">
		<path class="st1" d="M657,783.6l-10.7,9.8l10.7,11.5 M683.7,783.6l10.7,9.8l-10.7,11.5 M675.7,772.9L665,815.6"/>
	</g>
	<g id="SVGRepo_iconCarrier-123">
		<path class="st1" d="M743.6,797.6v8 M743.6,789.6L743.6,789.6 M745.6,767.6H733c-3,0-4.4,0-5.6,0.6c-1,0.5-1.8,1.3-2.3,2.3
			c-0.6,1.1-0.6,2.6-0.6,5.6V807c0,3,0,4.5,0.6,5.6c0.5,1,1.3,1.8,2.3,2.3c1.1,0.6,2.6,0.6,5.6,0.6h20.1c3,0,4.4,0,5.6-0.6
			c1-0.5,1.8-1.3,2.3-2.3c0.6-1.1,0.6-2.6,0.6-5.6v-23.4 M745.9,767.1l16,16 M745.6,767.6v11.7c-0.1,0.9,0,1.9,0.3,2.8
			c0.3,0.5,0.7,0.9,1.2,1.2c0.9,0.3,1.9,0.4,2.8,0.3h11.7"/>
	</g>
	<g id="SVGRepo_iconCarrier-124">
		<path class="st1" d="M512,783h5.5c7.5,0,13.5,6,13.6,13.4c0,7.5-6,13.5-13.4,13.6H512 M502,783h-5.5c-7.5,0-13.5,6-13.6,13.4
			c0,7.5,6,13.5,13.4,13.6h5.6 M496,797h22"/>
	</g>
	<g id="SVGRepo_iconCarrier-125">
		<path class="st1" d="M664.4,929.5l4.9,4.7l11.1-10.7 M671.9,952.5h-23.5c0,0,4.2-10,2.5-13.3c-5.9-11.9-1-26.3,10.9-32.2
			c11.9-5.9,26.3-1,32.2,10.9c2.1,4.3,2.9,9.1,2.3,13.8C694.7,943.2,683.5,952.5,671.9,952.5z"/>
	</g>
	<g id="SVGRepo_iconCarrier-126">
		<path class="st1" d="M591.1,921.2c-2-2.6-5.7-3-8.3-1c0,0-0.1,0.1-0.1,0.1c-2.7,2.2-3.1,6-1,8.7c2.1,2.3,4.2,4.5,6.6,6.5
			c0.6,0.6,1.2,1.1,2,1.5c0.5,0.1,1,0.1,1.5,0c0.8-0.3,1.4-0.8,2-1.5c2.3-2,4.5-4.2,6.6-6.5c2.1-2.7,1.7-6.6-0.9-8.7c0,0,0,0,0,0
			c-2.5-2.1-6.2-1.8-8.3,0.7C591.1,921.1,591.1,921.2,591.1,921.2z"/>
		<path class="st1" d="M615.1,928.5c0,13.3-10.7,24-24,24h-24c0,0,4.2-10,2.5-13.3c-5.9-11.9-1-26.3,10.8-32.2
			c11.9-5.9,26.3-1,32.2,10.8C614.2,921.1,615.1,924.8,615.1,928.5L615.1,928.5z"/>
	</g>
	<g id="SVGRepo_iconCarrier-127">
		<path class="st1" d="M17.3,835.4L17.3,835.4 M9.5,851.1c1.5-4.2,6-6.4,10.2-4.9c2.3,0.8,4.1,2.6,4.9,4.9 M17.3,864.4L17.3,864.4
			 M9.5,880.4c1.5-4.2,6-6.4,10.2-4.9c2.3,0.8,4.1,2.6,4.9,4.9 M37.6,847.4h15.5c0.9,0.1,1.9,0,2.8-0.3c0.5-0.3,0.9-0.7,1.1-1.2
			c0.3-0.9,0.4-1.9,0.3-2.9v-2.2c0.1-1,0-2-0.3-2.9c-0.2-0.5-0.7-0.9-1.2-1.2c-0.9-0.3-1.9-0.4-2.8-0.3H37.6c-0.9-0.1-1.9,0-2.8,0.3
			c-0.5,0.3-0.9,0.7-1.2,1.2c-0.3,0.9-0.4,1.9-0.3,2.9v2.2c-0.1,1,0,2,0.3,2.9c0.3,0.5,0.7,0.9,1.2,1.2
			C35.7,847.4,36.7,847.5,37.6,847.4L37.6,847.4z M37.6,876.4h15.5c0.9,0.1,1.9,0,2.8-0.3c0.5-0.3,0.9-0.7,1.1-1.2
			c0.3-0.9,0.4-1.9,0.3-2.9v-2.2c0.1-1,0-2-0.3-2.9c-0.2-0.5-0.7-0.9-1.2-1.2c-0.9-0.3-1.9-0.4-2.8-0.3H37.6c-0.9-0.1-1.9,0-2.8,0.3
			c-0.5,0.3-0.9,0.7-1.2,1.2c-0.3,0.9-0.4,1.9-0.3,2.9v2.2c-0.1,1,0,2,0.3,2.9c0.3,0.5,0.7,0.9,1.2,1.2
			C35.7,876.4,36.7,876.5,37.6,876.4L37.6,876.4z M19.7,835.1c0,1.5-1.2,2.7-2.7,2.7s-2.7-1.2-2.7-2.7c0-1.5,1.2-2.7,2.7-2.7
			C18.5,832.4,19.7,833.6,19.7,835.1C19.7,835.1,19.7,835.1,19.7,835.1z M19.7,864.4c0,1.5-1.2,2.7-2.7,2.7c-1.5,0-2.7-1.2-2.7-2.7
			c0-1.5,1.2-2.7,2.7-2.7C18.5,861.7,19.7,862.9,19.7,864.4C19.7,864.4,19.7,864.4,19.7,864.4L19.7,864.4z"/>
	</g>
	<g id="SVGRepo_iconCarrier-128">
		<path class="st1" d="M525.1,936.5v16 M517.1,944.5h16 M521.4,926.5h7.5c0.9,0.1,1.9,0,2.8-0.3c0.5-0.3,0.9-0.7,1.2-1.2
			c0.3-0.9,0.4-1.9,0.3-2.8v-7.5c0.1-0.9,0-1.9-0.3-2.8c-0.3-0.5-0.7-0.9-1.2-1.2c-0.9-0.3-1.9-0.4-2.8-0.3h-7.5
			c-0.9-0.1-1.9,0-2.8,0.3c-0.5,0.3-0.9,0.7-1.2,1.2c-0.3,0.9-0.4,1.9-0.3,2.8v7.5c-0.1,0.9,0,1.9,0.3,2.8c0.3,0.5,0.7,0.9,1.2,1.2
			C519.5,926.5,520.4,926.6,521.4,926.5z M494.4,926.5h7.5c0.9,0.1,1.9,0,2.8-0.3c0.5-0.3,0.9-0.7,1.2-1.2c0.3-0.9,0.4-1.9,0.3-2.8
			v-7.5c0.1-0.9,0-1.9-0.3-2.8c-0.3-0.5-0.7-0.9-1.2-1.2c-0.9-0.3-1.9-0.4-2.8-0.3h-7.5c-0.9-0.1-1.9,0-2.8,0.3
			c-0.5,0.3-0.9,0.7-1.2,1.2c-0.3,0.9-0.4,1.9-0.3,2.8v7.5c-0.1,0.9,0,1.9,0.3,2.8c0.3,0.5,0.7,0.9,1.2,1.2
			C492.5,926.5,493.4,926.6,494.4,926.5z M494.4,952.5h7.5c0.9,0.1,1.9,0,2.8-0.3c0.5-0.3,0.9-0.7,1.2-1.2c0.3-0.9,0.4-1.9,0.3-2.8
			v-7.5c0.1-0.9,0-1.9-0.3-2.8c-0.3-0.5-0.7-0.9-1.2-1.2c-0.9-0.3-1.9-0.4-2.8-0.3h-7.5c-0.9-0.1-1.9,0-2.8,0.3
			c-0.5,0.3-0.9,0.7-1.2,1.2c-0.3,0.9-0.4,1.9-0.3,2.8v7.5c-0.1,0.9,0,1.9,0.3,2.8c0.3,0.5,0.7,0.9,1.2,1.2
			C492.5,952.5,493.4,952.6,494.4,952.5z"/>
	</g>
	<g id="SVGRepo_iconCarrier-129">
		<path class="st1" d="M39,865.8h-1.6c-0.1,0-0.2,0-0.3,0c-0.1,0-0.1-0.1-0.1-0.1c0-0.1,0-0.2,0-0.3v-1.6 M38,865.1l-0.1-0.2
			l-0.1-0.1l0,0l-0.1,0.1l-0.3,0.3l0,0l0,0c0,0,0,0-0.4,0v0.2c0.4,0,0.4,0.1,0.4,0.1l0,0c0,0,0,0,0.1,0.1h0.8c0-0.1,0.1-0.1,0.1-0.1
			l0,0c0,0,0,0-0.5-0.1v-0.2c0.5,0,0.5,0,0.5,0l0,0l0,0l-0.1-0.1l0,0c0,0-0.1,0-0.1,0l0,0l0,0c0,0-0.1,0-0.1,0H38z"/>
	</g>
	<g id="SVGRepo_iconCarrier-130">
		<path class="st1" d="M408.5,952.5c0-10.3,8.4-18.7,18.7-18.7c0.9,0,1.8,0.1,2.7,0.2 M437.8,915.2c0,5.9-4.8,10.7-10.7,10.7
			c-5.9,0-10.7-4.8-10.7-10.7c0-5.9,4.8-10.7,10.7-10.7c0,0,0,0,0,0C433,904.5,437.8,909.3,437.8,915.2L437.8,915.2z M431.4,952.5
			l5.4-1.1c0.3-0.1,0.6-0.1,0.9-0.2c0.2-0.1,0.4-0.2,0.5-0.3c0.3-0.2,0.5-0.4,0.7-0.7l11.1-11.1c1.4-1.5,1.4-3.9-0.1-5.3
			c-1.5-1.4-3.7-1.4-5.2,0l-11.1,11.1c-0.2,0.2-0.4,0.4-0.6,0.7c-0.1,0.2-0.2,0.4-0.3,0.5c-0.1,0.3-0.2,0.6-0.2,0.9L431.4,952.5z"/>
	</g>
	<g id="SVGRepo_iconCarrier-131">
		<path class="st1" d="M350.4,917.5h5.5c7.5,0,13.5,6,13.6,13.4c0,7.5-6,13.5-13.4,13.6h-5.6 M340.4,917.5H335
			c-7.5,0-13.5,6-13.6,13.4c0,7.5,6,13.5,13.4,13.6h5.6 M334.4,931.5h22"/>
	</g>
	<g id="SVGRepo_iconCarrier-132">
		<path class="st1" d="M163.9,862.6c-0.1-0.9,0-1.9,0.3-2.8c0.3-0.5,0.7-0.9,1.2-1.2c0.9-0.3,1.9-0.4,2.9-0.3h2.2c1-0.1,2,0,2.9,0.3
			c0.5,0.3,0.9,0.7,1.2,1.2c0.3,0.9,0.4,1.8,0.3,2.8v12.6c0.1,0.9,0,1.9-0.3,2.8c-0.3,0.5-0.7,0.9-1.2,1.2c-0.9,0.3-1.9,0.4-2.9,0.3
			h-2.2c-1,0.1-2,0-2.9-0.3c-0.5-0.2-0.9-0.6-1.2-1.2c-0.3-0.9-0.4-1.8-0.3-2.8V862.6z"/>
		<path class="st1" d="M182.9,836.7c-0.1-0.9,0-1.9,0.3-2.8c0.3-0.5,0.7-0.9,1.2-1.2c0.9-0.3,1.9-0.4,2.9-0.3h2.2c1-0.1,2,0,2.9,0.3
			c0.5,0.3,0.9,0.7,1.2,1.2c0.3,0.9,0.4,1.9,0.3,2.8v39.5c0.1,0.9,0,1.9-0.3,2.8c-0.3,0.5-0.7,0.9-1.2,1.2c-0.9,0.3-1.9,0.4-2.9,0.3
			h-2.2c-1,0.1-2,0-2.9-0.3c-0.5-0.3-0.9-0.7-1.2-1.2c-0.3-0.9-0.4-1.9-0.3-2.8V836.7z"/>
		<path class="st1" d="M200.9,852.7c-0.1-0.9,0-1.9,0.3-2.8c0.3-0.5,0.7-0.9,1.2-1.2c0.9-0.3,1.9-0.4,2.9-0.3h2.2c1-0.1,2,0,2.9,0.3
			c0.5,0.3,0.9,0.7,1.2,1.2c0.3,0.9,0.4,1.9,0.3,2.8v23.5c0.1,0.9,0,1.9-0.3,2.8c-0.3,0.5-0.7,0.9-1.2,1.2c-0.9,0.3-1.9,0.4-2.9,0.3
			h-2.2c-1,0.1-2,0-2.9-0.3c-0.5-0.3-0.9-0.7-1.2-1.2c-0.3-0.9-0.4-1.9-0.3-2.8V852.7z"/>
	</g>
	<g id="SVGRepo_iconCarrier-133">
		<path class="st1" d="M269,934.5v8 M269,926.5L269,926.5 M271,904.5h-12.6c-3,0-4.4,0-5.6,0.6c-1,0.5-1.8,1.3-2.3,2.3
			c-0.5,1.1-0.5,2.6-0.5,5.6v31c0,3,0,4.5,0.6,5.6c0.5,1,1.3,1.8,2.3,2.3c1.1,0.6,2.6,0.6,5.6,0.6h20.1c3,0,4.4,0,5.6-0.6
			c1-0.5,1.8-1.3,2.3-2.3c0.6-1.1,0.6-2.6,0.6-5.6v-23.5 M271.3,904l16,16 M271,904.5v11.7c-0.1,0.9,0,1.9,0.3,2.8
			c0.3,0.5,0.7,0.9,1.2,1.2c0.9,0.3,1.9,0.4,2.8,0.3H287"/>
	</g>
	<g id="SVGRepo_iconCarrier-134">
		<path class="st1" d="M271,872.4L271,872.4 M263.5,880.4h14.9c3,0,4.5,0,5.6-0.6c1-0.5,1.8-1.3,2.3-2.3c0.6-1.1,0.6-2.6,0.6-5.6
			V841c0-3,0-4.5-0.6-5.6c-0.5-1-1.3-1.8-2.3-2.3c-1.1-0.6-2.6-0.6-5.6-0.6h-14.9c-3,0-4.5,0-5.6,0.6c-1,0.5-1.8,1.3-2.3,2.3
			c-0.6,1.1-0.6,2.6-0.6,5.6v30.9c0,3,0,4.5,0.6,5.6c0.5,1,1.3,1.8,2.3,2.3C259.1,880.4,260.6,880.4,263.5,880.4L263.5,880.4z"/>
	</g>
	<g id="SVGRepo_iconCarrier-135">
		<path class="st1" d="M446.8,872.4c3.7-7.2,0.8-16.1-6.4-19.7s-16.1-0.8-19.7,6.4c-3.7,7.2-0.8,16.1,6.4,19.7
			c2.2,1.1,4.6,1.7,7,1.6h17C449.1,878.1,447.6,875.4,446.8,872.4 M445.3,856.4c2.2-10.8-4.8-21.4-15.6-23.6
			c-10.8-2.2-21.4,4.8-23.6,15.6c-0.3,1.3-0.4,2.6-0.4,4c0,2.3,0.4,4.5,1.1,6.7c2.9,8-3.8,13.3-3.8,13.3h17"/>
	</g>
	<g id="SVGRepo_iconCarrier-136">
		<path class="st1" d="M85.6,880l34.7-34.7l13.3,11.1 M85.6,880.5h24c13.1,0,23.8-10.5,24-23.5 M85.6,880c0,0,4.2-10,2.5-13.3
			c-5.9-11.9-1-26.3,10.9-32.2s26.3-1,32.2,10.9c1.6,3.3,2.5,6.9,2.5,10.6c0,0.2,0,0.3,0,0.5 M107,858.6l-9.3-8l-11.3,11.1"/>
	</g>
	<g id="SVGRepo_iconCarrier-137">
		<path class="st1" d="M567.1,845.9c0-3,0-4.4,0.6-5.6c0.5-1,1.3-1.8,2.3-2.3c1.1-0.6,2.6-0.6,5.6-0.6h30.9c3,0,4.5,0,5.6,0.6
			c1,0.5,1.8,1.3,2.3,2.3c0.6,1.1,0.6,2.6,0.6,5.6V866c0,3,0,4.4-0.6,5.6c-0.5,1-1.3,1.8-2.3,2.3c-1.1,0.6-2.6,0.6-5.6,0.6h-31
			c-3,0-4.5,0-5.6-0.6c-1-0.5-1.8-1.3-2.3-2.3c-0.6-1.1-0.6-2.6-0.6-5.6L567.1,845.9z"/>
		<path class="st1" d="M585.7,847.6l-8,8l8,8 M596.4,847.6l8,8l-8,8"/>
	</g>
	<g id="SVGRepo_iconCarrier-138">
		<path class="st1" d="M332.2,848.4l-10.7,9.8l10.7,11.5 M358.8,848.4l10.7,9.8l-10.7,11.5 M350.8,837.8l-10.7,42.7"/>
	</g>
	<g id="SVGRepo_iconCarrier-139">
		<path class="st1" d="M747.2,880.4v-5c0.1-7.5-5.9-13.6-13.3-13.7c-7.5-0.1-13.6,5.9-13.7,13.3v5.3L747.2,880.4z M747.2,880.4h21
			v-2.7c0.2-7.2-5.5-13.1-12.7-13.3c-0.2,0-0.4,0-0.7,0c-3.7,0-7.2,1.6-9.6,4.3 M741.6,846c0,4.4-3.6,8-8,8s-8-3.6-8-8s3.6-8,8-8
			S741.6,841.6,741.6,846z M760.2,851.3c0,2.9-2.4,5.3-5.3,5.3c-2.9,0-5.3-2.4-5.3-5.3c0-2.9,2.4-5.3,5.3-5.3
			C757.8,846,760.2,848.4,760.2,851.3L760.2,851.3z"/>
	</g>
	<g id="SVGRepo_iconCarrier-140">
		<path class="st1" d="M509,869.4v11 M498,880.4h22 M493.5,869.4h30.9c3,0,4.5,0,5.6-0.6c1-0.5,1.8-1.3,2.3-2.3
			c0.6-1.1,0.6-2.6,0.6-5.6v-20.1c0-3,0-4.4-0.6-5.6c-0.5-1-1.3-1.8-2.3-2.3c-1.1-0.6-2.6-0.6-5.6-0.6h-30.9c-3,0-4.5,0-5.6,0.6
			c-1,0.5-1.8,1.3-2.3,2.3c-0.6,1.1-0.6,2.6-0.6,5.6V861c0,3,0,4.4,0.6,5.6c0.5,1,1.3,1.8,2.3,2.3
			C489.1,869.4,490.6,869.4,493.5,869.4L493.5,869.4z"/>
	</g>
	<g id="SVGRepo_iconCarrier-141">
		<path class="st1" d="M770.2,917.8h-8.5 M770.2,928.5h-8 M770.2,939.1h-8.5 M730.7,917.8h-8.5 M735.6,913v-8.5 M735.6,952.5v-8.6
			 M746.3,912.5v-8 M746.3,952.5v-8 M756.9,913v-8.5 M756.9,952.5V944 M730.2,928.5h-8 M730.7,939.2h-8.5 M743,944.5h6.4
			c4.5,0,6.7,0,8.4-0.9c1.5-0.8,2.7-2,3.5-3.5c0.9-1.7,0.9-4,0.9-8.4v-6.4c0-4.5,0-6.7-0.9-8.4c-0.8-1.5-2-2.7-3.5-3.5
			c-1.7-0.9-4-0.9-8.4-0.9H743c-4.5,0-6.7,0-8.4,0.9c-1.5,0.8-2.7,2-3.5,3.5c-0.9,1.7-0.9,4-0.9,8.4v6.4c0,4.5,0,6.7,0.9,8.4
			c0.8,1.5,2,2.7,3.5,3.5C736.3,944.5,738.5,944.5,743,944.5L743,944.5z M740.9,923.2h10.6v10.6h-10.6V923.2z"/>
	</g>
	<g id="SVGRepo_iconCarrier-142">
		<path class="st1" d="M664.4,865.9v-26.3c0-4.2,3.4-7.7,7.7-7.6c0.6,0,1.2,0.1,1.8,0.2l13.5,3.4c5.3,1.3,9,6,9,11.5v15.7
			c0,9.8-7.9,17.7-17.7,17.7c-0.3,0-0.5,0-0.8,0C670.4,880.1,664.4,873.3,664.4,865.9z M678.4,880.4h-1c-13.3,0-24-8.5-24-18.9
			c0-6.6,4.2-12.3,10.7-15.7 M680.4,845.4v6"/>
	</g>
	<g id="SVGRepo_iconCarrier-143">
		<path class="st1" d="M191,952.5v-5c0.1-7.5-5.9-13.6-13.3-13.7c-7.5-0.1-13.6,5.9-13.7,13.3v5.3L191,952.5z M191,952.5h21v-2.7
			c0.1-7.3-5.7-13.2-13-13.3c-3.8-0.1-7.4,1.5-10,4.3 M185.3,918c0,4.4-3.6,8-8,8s-8-3.6-8-8s3.6-8,8-8S185.3,913.6,185.3,918z
			 M204,923.3c0,2.9-2.4,5.3-5.3,5.3s-5.3-2.4-5.3-5.3c0-2.9,2.4-5.3,5.3-5.3c0,0,0,0,0,0C201.6,918,204,920.4,204,923.3z"/>
	</g>
	<g id="SVGRepo_iconCarrier-144">
		<path class="st1" d="M85.6,924c0-3,0-4.5,0.6-5.6c0.5-1,1.3-1.8,2.3-2.3c1.2-0.6,2.6-0.6,5.6-0.6h30.9c3,0,4.5,0,5.6,0.6
			c1,0.5,1.8,1.3,2.3,2.3c0.6,1.1,0.6,2.6,0.6,5.6v20c0,3,0,4.4-0.6,5.6c-0.5,1-1.3,1.8-2.3,2.3c-1.1,0.6-2.6,0.6-5.6,0.6H94.2
			c-3,0-4.5,0-5.6-0.6c-1-0.5-1.8-1.3-2.3-2.3c-0.6-1.1-0.6-2.6-0.6-5.6V924z"/>
		<path class="st1" d="M104.3,925.7l-8,8l8,8 M115,925.7l8,8l-8,8"/>
	</g>
	<g id="SVGRepo_iconCarrier-145">
		<path class="st1" d="M33.3,941.5v11 M22.3,952.5h22 M17.9,941.5h30.9c3,0,4.5,0,5.6-0.6c1-0.5,1.8-1.3,2.3-2.3
			c0.6-1.1,0.6-2.6,0.6-5.6v-20c0-3,0-4.5-0.6-5.6c-0.5-1-1.3-1.8-2.3-2.3c-1.1-0.6-2.6-0.6-5.6-0.6H17.9c-3,0-4.5,0-5.6,0.6
			c-1,0.5-1.8,1.3-2.3,2.3c-0.6,1.1-0.6,2.6-0.6,5.6v20c0,3,0,4.4,0.6,5.6c0.5,1,1.3,1.8,2.3,2.3C13.4,941.5,14.9,941.5,17.9,941.5z
			"/>
	</g>
	<g id="SVGRepo_iconCarrier-146">
		<path class="st1" d="M25.3,1009v-26.3c0-4.2,3.4-7.7,7.7-7.7c0.6,0,1.3,0.1,1.9,0.2l13.5,3.4c5.3,1.3,9,6,9,11.5v15.7
			c0,9.8-7.9,17.7-17.7,17.7c-0.3,0-0.5,0-0.8,0C31.4,1023.2,25.3,1016.5,25.3,1009z M39.3,1023.5h-1c-13.3,0-24-8.5-24-18.9
			c0-6.6,4.2-12.3,10.7-15.7 M41.3,988.5v6"/>
	</g>
	<g id="SVGRepo_iconCarrier-147">
		<path class="st1" d="M117.6,1015.6L117.6,1015.6 M110.2,1023.6h14.9c3,0,4.5,0,5.6-0.6c1-0.5,1.8-1.3,2.3-2.3
			c0.6-1.1,0.6-2.6,0.6-5.6v-30.8c0-3,0-4.5-0.6-5.6c-0.5-1-1.3-1.8-2.3-2.3c-1.1-0.6-2.6-0.6-5.6-0.6h-14.9c-3,0-4.5,0-5.6,0.6
			c-1,0.5-1.8,1.3-2.3,2.3c-0.6,1.1-0.6,2.6-0.6,5.6v30.8c0,3,0,4.5,0.6,5.6c0.5,1,1.3,1.8,2.3,2.3
			C105.7,1023.6,107.2,1023.6,110.2,1023.6L110.2,1023.6z"/>
	</g>
	<g id="SVGRepo_iconCarrier-148">
		<path class="st1" d="M212,988.8h-8.5 M212,999.6h-8 M212,1010.2h-8.5 M172.5,988.8H164 M177.4,984v-8.5 M177.4,1023.6v-8.6
			 M188,983.6v-8 M188,1023.6v-8 M198.6,984v-8.5 M198.6,1023.5v-8.5 M172,999.6h-8 M172.5,1010.2H164 M184.8,1015.6h6.4
			c4.5,0,6.7,0,8.4-0.9c1.5-0.8,2.7-2,3.5-3.5c0.9-1.7,0.9-4,0.9-8.4v-6.4c0-4.5,0-6.7-0.9-8.4c-0.8-1.5-2-2.7-3.5-3.5
			c-1.7-0.9-4-0.9-8.4-0.9h-6.4c-4.5,0-6.7,0-8.4,0.9c-1.5,0.8-2.7,2-3.5,3.5c-0.9,1.7-0.9,4-0.9,8.4v6.4c0,4.5,0,6.7,0.9,8.4
			c0.8,1.5,2,2.7,3.5,3.5C178,1015.6,180.3,1015.6,184.8,1015.6L184.8,1015.6z M182.6,994.2h10.6v10.6h-10.7L182.6,994.2z"/>
	</g>
	<g id="SVGRepo_iconCarrier-149">
		<path class="st1" d="M239.4,995c0-3,0-4.4,0.6-5.6c0.5-1,1.3-1.8,2.3-2.3c1.1-0.6,2.6-0.6,5.6-0.6h30.9c3,0,4.5,0,5.6,0.6
			c1,0.5,1.8,1.3,2.3,2.3c0.6,1.1,0.6,2.6,0.6,5.6v20.1c0,3,0,4.4-0.6,5.6c-0.5,1-1.3,1.8-2.3,2.3c-1.1,0.6-2.6,0.6-5.6,0.6h-30.9
			c-3,0-4.5,0-5.6-0.6c-1-0.5-1.8-1.3-2.3-2.3c-0.6-1.1-0.6-2.6-0.6-5.6V995z"/>
		<path class="st1" d="M258,996.8l-8,8l8,8 M268.7,996.8l8,8l-8,8"/>
	</g>
	<g id="SVGRepo_iconCarrier-150">
		<path class="st1" d="M321.5,1023.1l34.6-34.7l13.3,11.1 M321.5,1023.6h24c13.1,0,23.8-10.5,24-23.5 M321.5,1023.1
			c0,0,4.1-10,2.5-13.3c-5.9-11.9-1-26.3,10.8-32.2c11.9-5.9,26.3-1,32.2,10.8c1.6,3.3,2.5,7,2.5,10.7v0.5 M342.8,1001.8l-9.3-8
			l-11.3,11.1"/>
	</g>
	<g id="SVGRepo_iconCarrier-151">
		<path class="st1" d="M430.2,1023.6v-5c0.1-7.5-5.9-13.6-13.3-13.7c-7.5-0.1-13.6,5.9-13.7,13.3l0,0v5.3L430.2,1023.6z
			 M430.2,1023.6h21v-2.7c0.1-7.3-5.7-13.2-13-13.3c-3.8-0.1-7.4,1.5-10,4.3 M424.5,989.1c0,4.4-3.6,8-8,8s-8-3.6-8-8s3.6-8,8-8
			S424.5,984.7,424.5,989.1C424.5,989.1,424.5,989.1,424.5,989.1L424.5,989.1z M443.2,994.4c0,2.9-2.4,5.3-5.3,5.3
			c-2.9,0-5.3-2.4-5.3-5.3c0-2.9,2.4-5.3,5.3-5.3C440.8,989.1,443.2,991.5,443.2,994.4C443.2,994.4,443.2,994.4,443.2,994.4
			L443.2,994.4z"/>
	</g>
	<g id="SVGRepo_iconCarrier-152">
		<path class="st1" d="M567.1,1005.8c-0.1-0.9,0-1.9,0.3-2.8c0.3-0.5,0.7-0.9,1.2-1.1c0.9-0.3,1.9-0.4,2.9-0.3h2.2
			c1-0.1,2,0,2.9,0.3c0.5,0.2,0.9,0.6,1.2,1.1c0.3,0.9,0.4,1.8,0.3,2.8v12.6c0.1,0.9,0,1.9-0.3,2.8c-0.3,0.5-0.7,0.9-1.2,1.1
			c-0.9,0.3-1.9,0.4-2.9,0.3h-2.2c-1,0.1-2,0-2.9-0.3c-0.5-0.2-0.9-0.6-1.2-1.1c-0.3-0.9-0.4-1.8-0.3-2.8V1005.8z"/>
		<path class="st1" d="M586.1,979.8c-0.1-0.9,0-1.9,0.3-2.8c0.3-0.5,0.7-0.9,1.2-1.2c0.9-0.3,1.9-0.4,2.9-0.3h2.2c1-0.1,2,0,2.9,0.3
			c0.5,0.3,0.9,0.7,1.2,1.2c0.3,0.9,0.4,1.9,0.3,2.8v39.5c0.1,0.9,0,1.9-0.3,2.8c-0.3,0.5-0.7,0.9-1.2,1.2c-0.9,0.3-1.9,0.4-2.9,0.3
			h-2.2c-1,0.1-2,0-2.9-0.3c-0.5-0.3-0.9-0.7-1.2-1.2c-0.3-0.9-0.4-1.9-0.3-2.8V979.8z"/>
		<path class="st1" d="M604.1,995.8c-0.1-0.9,0-1.9,0.3-2.8c0.3-0.5,0.7-0.9,1.2-1.2c0.9-0.3,1.9-0.4,2.9-0.3h2.2c1-0.1,2,0,2.9,0.3
			c0.5,0.3,0.9,0.7,1.2,1.2c0.3,0.9,0.4,1.9,0.3,2.8v23.5c0.1,0.9,0,1.9-0.3,2.8c-0.3,0.5-0.7,0.9-1.2,1.2c-0.9,0.3-1.9,0.4-2.9,0.3
			h-2.2c-1,0.1-2,0-2.9-0.3c-0.5-0.3-0.9-0.7-1.2-1.2c-0.3-0.9-0.4-1.9-0.3-2.8V995.8z"/>
	</g>
	<g id="SVGRepo_iconCarrier-153">
		<path class="st1" d="M659,991.6l-10.7,9.8l10.7,11.5 M685.7,991.6l10.7,9.8l-10.7,11.5 M677.7,980.9l-10.7,42.7"/>
	</g>
	<g id="SVGRepo_iconCarrier-154">
		<path class="st1" d="M745.6,1005.6v8 M745.6,997.6L745.6,997.6 M747.6,975.6H735c-3,0-4.4,0-5.6,0.6c-1,0.5-1.8,1.3-2.3,2.3
			c-0.6,1.1-0.6,2.6-0.6,5.6v30.9c0,3,0,4.5,0.6,5.6c0.5,1,1.3,1.8,2.3,2.3c1.1,0.6,2.6,0.6,5.6,0.6h20.1c3,0,4.4,0,5.6-0.6
			c1-0.5,1.8-1.3,2.3-2.3c0.6-1.1,0.6-2.6,0.6-5.6v-23.4 M747.9,975.1l16,16 M747.6,975.6v11.7c-0.1,0.9,0,1.9,0.3,2.8
			c0.3,0.5,0.7,0.9,1.2,1.2c0.9,0.3,1.9,0.4,2.8,0.3h11.7"/>
	</g>
	<g id="SVGRepo_iconCarrier-155">
		<path class="st1" d="M514,991h5.5c7.5,0,13.5,6,13.6,13.4c0,7.5-6,13.5-13.4,13.6l0,0H514 M504,991h-5.5c-7.5,0-13.5,6-13.6,13.4
			c0,7.5,6,13.5,13.4,13.6h5.6 M498,1005h22"/>
	</g>
</g>
</svg>
